SplineFontDB: 1.0
FontName: DejaVuSerif-BoldOblique
FullName: DejaVu Serif Bold Oblique
FamilyName: DejaVu Serif
Weight: Bold
Copyright: Copyright (c) 2003 by Bitstream, Inc. All Rights Reserved.\nDejaVu changes are in public domain\n
Version: 1.11
ItalicAngle: -11
UnderlinePosition: -217
UnderlineWidth: 240
Ascent: 1556
Descent: 492
Order2: 1
NeedsXUIDChange: 1
FSType: 4
PfmFamily: 17
TTFWeight: 700
TTFWidth: 5
Panose: 2 6 8 3 5 3 5 11 2 4
LineGap: 410
VLineGap: 0
OS2TypoAscent: 1556
OS2TypoDescent: -492
OS2TypoLinegap: 0
OS2WinAscent: 1923
OS2WinAOffset: 0
OS2WinDescent: 483
OS2WinDOffset: 0
HheadAscent: 1923
HheadAOffset: 0
HheadDescent: -483
HheadDOffset: 0
ScriptLang: 2
 1 latn 1 dflt 
 1 DFLT 1 dflt 
TtfTable: prep 1407
\,q1GjNmf-c:\8arWC@O"3D#Ta>*k<]*$'b"3(*=`0LMBrWC"9"2MZA"i,Ng^IJC?0E]":"2#!D
]D_oDrWB_1"1SjD[L*,E'a(fi"1&=:ZTnZ!Yo3eN)?[4I)?m>d"0WUFY+H.,Xu?HbT+(t++Tnf)
"02e3Wi6R6W\O[U&Hf"_"K3pTVj\Y1Vu?dqV%Ns/*<W,N"/M\B"f/a4UN@L[UFQG@F<(OZ]*"b"
)?li6"/$P7T+(moS\#&srWA^]>m6e2".arFS=:f.S6Z5e5QmRF*X/#Z".GVi"e$J7R^iC55lUtT
&HeC/".2=VQQ60o$NlZ["-a5sP8OIcO^nWYrWA:)*<hR9"-AQO"csE#Nsc&N5Qm+,%0_b+"-!`l
N/J#HN%tKn$3Q/+",Vh^"c<3\LiaX@Lj]A[$Nl)(",(b:"b\W5K7Xa?KDkt)E=W5)'*Ec7%0_:]
"+La^Im=-cF<(O6rW@Rr*sI)l"+20mH[<:-Hi=+nH!LT"]*!A0"F55<"aOAUGsDLW,m/?M"*Sc,
"a4Y`F`\W-Fnu2^*<UB^"*/Al"`jSEE=W.kJ-9h0/d64n")fdoDZ0`TrW?sJ")CO3C'k&VrW?d?
"(sk%Ag%7fI04$Z"$hiUCBJ%X"(?T[@/^77('@hM%g?8<"'Z?>=]c[J=Y0_X*<T@u"',d3<)X\=
<0dVb)?WkU"&Vl1"]6QJ:_"$?:_j./%M/e>(B[E,*!K)c"&2>r"\fs=9gAhT%ibaH0`t&Y&-Y]^
"%l,o"\O1F8IYbm7g]DjI02tH"%G]g"\(6L777Of71B>f\Gs?0rrb^u"%,Bl"[eRX65Tej5Rmr`
I02_m#mER("$hA>5<UG!5J%"]4XgOu>m!5#*!JJS"$AX^"[!D"4$!uX3uA&\3=5pN&d(-$"#r4M
"ZUo42`:sG2\-!LJ-7b:"#`CI2)H-R23n>$.gZA9(]uQ#*<e6b"#;;7"Z$&Z0b+:>$k!4m*Wn&@
.0V@`""k`("YLhu/M%J;/X?Ji.gZA1&HaRL"=jc\.OGE).NJU?%0J%E"=PW0"XoZ=-RK*&-P6G.
5QiD>"!o3A"XUb_,SM=),Uig?'-RN(rW=>f$3_W>"!Jcm"X+3T+b0\<#Ql27"<S:#"Wo2r5dVRE
/Hm1V"!&Ne*.7o.'a#@0!uWir(_\%r)#aUR(+BD'CBG=c+U&W1!u1tH"Vi'\'Gpoc%M/dW+Ti>h

StartChar: .notdef
Encoding: 0 -1 0
Width: 1229
Flags: W
HStem: -362 114<63 950> 1329 115<277 1165>
Fore
-73.5254 -362 m 1,0,-1
 277.525 1444 l 1,1,-1
 1301.53 1444 l 1,2,-1
 950.475 -362 l 1,3,-1
 -73.5254 -362 l 1,0,-1
63.6338 -248 m 1,4,-1
 858.634 -248 l 1,5,-1
 1165.17 1329 l 1,6,-1
 370.172 1329 l 1,7,-1
 63.6338 -248 l 1,4,-1
EndSplineSet
EndChar
StartChar: exclam
Encoding: 33 33 4
Width: 899
Flags: W
HStem: -29 381<301.076 375.136> 1473 20G<409.924 784.924>
Fore
149.203 162 m 0,0,1
 164.365 240 164.365 240 230.75 296 c 128,-1,2
 297.136 352 297.136 352 375.136 352 c 0,3,4
 453.136 352 453.136 352 498.25 296 c 128,-1,5
 543.365 240 543.365 240 528.203 162 c 0,6,7
 512.848 83 512.848 83 445.962 27 c 128,-1,8
 379.076 -29 379.076 -29 301.076 -29 c 0,9,10
 223.076 -29 223.076 -29 178.462 27 c 128,-1,11
 133.848 83 133.848 83 149.203 162 c 0,0,1
409.924 1493 m 1,12,-1
 784.924 1493 l 1,13,-1
 502.255 651 l 1,14,-1
 465.323 461 l 1,15,-1
 326.323 461 l 1,16,-1
 363.255 651 l 1,17,-1
 409.924 1493 l 1,12,-1
EndSplineSet
EndChar
StartChar: quotedbl
Encoding: 34 34 5
Width: 1067
Flags: W
HStem: 1473 20G<248.94 485.94 688.94 925.94>
Fore
485.94 1493 m 1,0,-1
 378.06 938 l 1,1,-1
 141.06 938 l 1,2,-1
 248.94 1493 l 1,3,-1
 485.94 1493 l 1,0,-1
925.94 1493 m 1,4,-1
 818.06 938 l 1,5,-1
 581.06 938 l 1,6,-1
 688.94 1493 l 1,7,-1
 925.94 1493 l 1,4,-1
EndSplineSet
EndChar
StartChar: numbersign
Encoding: 35 35 6
Width: 1716
Flags: W
HStem: 0 21G<179.131 402.131 666.131 887.131> 383 215<111 349 663 836 1151 1393> 872 213<321 563 883 1050 1368 1603>
Fore
1050.63 872 m 1,0,-1
 786.63 872 l 1,1,-1
 663.37 598 l 1,2,-1
 927.37 598 l 1,3,-1
 1050.63 872 l 1,0,-1
1053.87 1470 m 1,4,-1
 883.033 1085 l 1,5,-1
 1147.03 1085 l 1,6,-1
 1318.87 1470 l 1,7,-1
 1539.87 1470 l 1,8,-1
 1368.03 1085 l 1,9,-1
 1645.03 1085 l 1,10,-1
 1603.63 872 l 1,11,-1
 1273.63 872 l 1,12,-1
 1151.37 598 l 1,13,-1
 1435.37 598 l 1,14,-1
 1393.58 383 l 1,15,-1
 1057.58 383 l 1,16,-1
 887.131 0 l 1,17,-1
 666.131 0 l 1,18,-1
 836.578 383 l 1,19,-1
 572.578 383 l 1,20,-1
 402.131 0 l 1,21,-1
 179.131 0 l 1,22,-1
 349.578 383 l 1,23,-1
 70.5781 383 l 1,24,-1
 112.37 598 l 1,25,-1
 440.37 598 l 1,26,-1
 563.63 872 l 1,27,-1
 280.63 872 l 1,28,-1
 322.033 1085 l 1,29,-1
 660.033 1085 l 1,30,-1
 830.869 1470 l 1,31,-1
 1053.87 1470 l 1,4,-1
EndSplineSet
EndChar
StartChar: dollar
Encoding: 36 36 7
Width: 1425
Flags: W
HStem: -299 383<491.657 541> -29 113<499 526> 1177 382<827 898.251>
Fore
84.0088 59 m 1,0,-1
 140.573 350 l 1,1,-1
 260.573 350 l 1,2,3
 251.526 216 251.526 216 317.197 150 c 128,-1,4
 382.868 84 382.868 84 526.868 84 c 2,5,-1
 540.868 84 l 1,6,-1
 619.593 489 l 1,7,8
 381.283 544 381.283 544 291.749 639 c 128,-1,9
 202.216 734 202.216 734 233.899 897 c 0,10,11
 268.888 1077 268.888 1077 411.507 1180.5 c 128,-1,12
 554.125 1284 554.125 1284 775.291 1290 c 1,13,-1
 827.579 1559 l 1,14,-1
 948.579 1559 l 1,15,-1
 896.291 1290 l 1,16,17
 1007.12 1284 1007.12 1284 1105.45 1262.5 c 128,-1,18
 1203.77 1241 1203.77 1241 1293.19 1202 c 1,19,-1
 1240.31 930 l 1,20,-1
 1119.31 930 l 1,21,22
 1125.86 1046 1125.86 1046 1061.9 1110.5 c 128,-1,23
 997.938 1175 997.938 1175 874.326 1177 c 1,24,-1
 802.017 805 l 1,25,26
 1059.55 746 1059.55 746 1149.21 646.5 c 128,-1,27
 1238.87 547 1238.87 547 1203.88 367 c 0,28,29
 1167.92 182 1167.92 182 1021.49 79.5 c 128,-1,30
 875.069 -23 875.069 -23 639.903 -29 c 1,31,-1
 587.421 -299 l 1,32,-1
 466.421 -299 l 1,33,-1
 518.903 -29 l 1,34,35
 409.292 -27 409.292 -27 300.568 -5 c 128,-1,36
 191.845 17 191.845 17 84.0088 59 c 1,0,-1
753.521 1178 m 1,37,38
 666.382 1167 666.382 1167 608.718 1125 c 128,-1,39
 551.055 1083 551.055 1083 539.197 1022 c 0,40,41
 525.591 952 525.591 952 559.732 909 c 128,-1,42
 593.874 866 593.874 866 687.431 838 c 1,43,-1
 753.521 1178 l 1,37,38
661.868 84 m 1,44,45
 765.007 95 765.007 95 825.462 138.5 c 128,-1,46
 885.918 182 885.918 182 900.302 256 c 0,47,48
 914.686 330 914.686 330 875.517 378 c 128,-1,49
 836.347 426 836.347 426 734.372 457 c 1,50,-1
 661.868 84 l 1,44,45
EndSplineSet
EndChar
StartChar: percent
Encoding: 37 37 8
Width: 1946
Flags: W
HStem: -29 101<1352 1386> 684 100<1476 1510> 707 100<434 469> 1419 101<558 592>
Fore
572.915 1419 m 0,0,1
 508.915 1419 508.915 1419 467.405 1349.5 c 128,-1,2
 425.896 1280 425.896 1280 393.629 1114 c 0,3,4
 361.168 947 361.168 947 375.561 877 c 128,-1,5
 389.954 807 389.954 807 453.954 807 c 0,6,7
 518.954 807 518.954 807 560.561 877 c 128,-1,8
 602.168 947 602.168 947 634.629 1114 c 0,9,10
 666.896 1280 666.896 1280 652.405 1349.5 c 128,-1,11
 637.915 1419 637.915 1419 572.915 1419 c 0,0,1
592.548 1520 m 0,12,13
 783.548 1520 783.548 1520 864.734 1415.5 c 128,-1,14
 945.922 1311 945.922 1311 907.629 1114 c 0,15,16
 869.336 917 869.336 917 747.427 812 c 128,-1,17
 625.517 707 625.517 707 434.517 707 c 0,18,19
 244.517 707 244.517 707 163.427 812 c 128,-1,20
 82.3359 917 82.3359 917 120.629 1114 c 0,21,22
 158.922 1311 158.922 1311 280.734 1415.5 c 128,-1,23
 402.548 1520 402.548 1520 592.548 1520 c 0,12,13
1504.55 1520 m 1,24,-1
 1676.55 1520 l 1,25,-1
 441.452 -29 l 1,26,-1
 269.452 -29 l 1,27,-1
 1504.55 1520 l 1,24,-1
1510.48 784 m 0,28,29
 1701.48 784 1701.48 784 1782.17 679.5 c 128,-1,30
 1862.86 575 1862.86 575 1824.76 379 c 0,31,32
 1786.47 182 1786.47 182 1664.96 76.5 c 128,-1,33
 1543.45 -29 1543.45 -29 1352.45 -29 c 0,34,35
 1162.45 -29 1162.45 -29 1081.46 76.5 c 128,-1,36
 1000.47 182 1000.47 182 1038.76 379 c 0,37,38
 1076.86 575 1076.86 575 1198.67 679.5 c 128,-1,39
 1320.48 784 1320.48 784 1510.48 784 c 0,28,29
1491.05 684 m 0,40,41
 1426.05 684 1426.05 684 1384.54 614.5 c 128,-1,42
 1343.03 545 1343.03 545 1310.76 379 c 0,43,44
 1278.3 212 1278.3 212 1293.19 142 c 128,-1,45
 1308.08 72 1308.08 72 1372.08 72 c 0,46,47
 1437.08 72 1437.08 72 1478.69 142 c 128,-1,48
 1520.3 212 1520.3 212 1552.76 379 c 0,49,50
 1585.03 545 1585.03 545 1570.54 614.5 c 128,-1,51
 1556.05 684 1556.05 684 1491.05 684 c 0,40,41
EndSplineSet
EndChar
StartChar: ampersand
Encoding: 38 38 9
Width: 1849
Flags: W
HStem: -29 158<570.452 693.164> 0 121<1519 1667> 795 120<1325 1485 1326 1803> 1399 121<989 1039>
Fore
1667.09 0 m 1,0,-1
 1188.09 0 l 1,1,-1
 1086.55 131 l 1,2,3
 971.003 51 971.003 51 842.228 11 c 128,-1,4
 713.452 -29 713.452 -29 570.452 -29 c 0,5,6
 270.452 -29 270.452 -29 125.833 99 c 128,-1,7
 -18.7861 227 -18.7861 227 24.7549 451 c 0,8,9
 56.4395 614 56.4395 614 165.39 729.5 c 128,-1,10
 274.341 845 274.341 845 475.475 928 c 1,11,12
 437.498 995 437.498 995 423.855 1056 c 128,-1,13
 410.212 1117 410.212 1117 421.292 1174 c 0,14,15
 453.17 1338 453.17 1338 608.359 1429 c 128,-1,16
 763.548 1520 763.548 1520 1012.55 1520 c 0,17,18
 1086.55 1520 1086.55 1520 1182.71 1508 c 128,-1,19
 1278.88 1496 1278.88 1496 1398.41 1473 c 1,20,-1
 1337.76 1161 l 1,21,-1
 1208.76 1161 l 1,22,23
 1214.87 1285 1214.87 1285 1167.95 1342 c 128,-1,24
 1121.03 1399 1121.03 1399 1014.03 1399 c 0,25,26
 913.027 1399 913.027 1399 845.697 1351 c 128,-1,27
 778.367 1303 778.367 1303 762.428 1221 c 0,28,29
 744.545 1129 744.545 1129 888.168 947 c 0,30,31
 904.28 927 904.28 927 912.53 918 c 1,32,-1
 1278.84 436 l 1,33,34
 1352.06 504 1352.06 504 1403.36 593 c 128,-1,35
 1454.66 682 1454.66 682 1485.62 795 c 1,36,-1
 1303.62 795 l 1,37,-1
 1326.95 915 l 1,38,-1
 1826.95 915 l 1,39,-1
 1803.62 795 l 1,40,-1
 1627.62 795 l 1,41,42
 1582.24 649 1582.24 649 1514.78 536 c 128,-1,43
 1447.31 423 1447.31 423 1356.4 336 c 1,44,-1
 1520.61 121 l 1,45,-1
 1690.61 121 l 1,46,-1
 1667.09 0 l 1,0,-1
1011.6 229 m 1,47,-1
 560.898 817 l 1,48,49
 492.875 750 492.875 750 450.199 674.5 c 128,-1,50
 407.523 599 407.523 599 391.39 516 c 0,51,52
 358.539 347 358.539 347 443.852 238 c 128,-1,53
 529.164 129 529.164 129 693.164 129 c 0,54,55
 771.164 129 771.164 129 849.427 153.5 c 128,-1,56
 927.689 178 927.689 178 1011.6 229 c 1,47,-1
EndSplineSet
EndChar
StartChar: quotesingle
Encoding: 39 39 10
Width: 627
Flags: W
HStem: 1473 20G<248.94 485.94>
Fore
485.94 1493 m 1,0,-1
 378.06 938 l 1,1,-1
 141.06 938 l 1,2,-1
 248.94 1493 l 1,3,-1
 485.94 1493 l 1,0,-1
EndSplineSet
EndChar
StartChar: parenleft
Encoding: 40 40 11
Width: 969
Flags: W
Fore
679.769 -319 m 1,0,1
 367.066 -194 367.066 -194 246.356 39 c 128,-1,2
 125.647 272 125.647 272 192.902 618 c 0,3,4
 260.158 964 260.158 964 468.866 1194 c 128,-1,5
 677.573 1424 677.573 1424 1044.23 1556 c 1,6,-1
 1020.91 1436 l 1,7,8
 844.245 1340 844.245 1340 738.104 1151.5 c 128,-1,9
 631.964 963 631.964 963 564.902 618 c 0,10,11
 498.036 274 498.036 274 530.896 85.5 c 128,-1,12
 563.755 -103 563.755 -103 703.094 -199 c 1,13,-1
 679.769 -319 l 1,0,1
EndSplineSet
EndChar
StartChar: parenright
Encoding: 41 41 12
Width: 969
Flags: W
Fore
-78.2314 -319 m 1,0,-1
 -54.9062 -199 l 1,1,2
 121.755 -103 121.755 -103 227.896 85.5 c 128,-1,3
 334.036 274 334.036 274 400.902 618 c 0,4,5
 467.964 963 467.964 963 435.104 1151.5 c 128,-1,6
 402.245 1340 402.245 1340 262.906 1436 c 1,7,-1
 286.231 1556 l 1,8,9
 601.573 1424 601.573 1424 721.366 1194 c 128,-1,10
 841.158 964 841.158 964 773.902 618 c 0,11,12
 706.647 272 706.647 272 494.856 39 c 128,-1,13
 283.066 -194 283.066 -194 -78.2314 -319 c 1,0,-1
EndSplineSet
EndChar
StartChar: asterisk
Encoding: 42 42 13
Width: 1071
Flags: W
HStem: 1500 20G<536.428 719.428>
Fore
1058.56 1212 m 1,0,-1
 665.902 1044 l 1,1,-1
 992.858 874 l 1,2,-1
 864.729 719 l 1,3,-1
 583.187 958 l 1,4,-1
 534.572 569 l 1,5,-1
 351.572 569 l 1,6,-1
 454.187 958 l 1,7,-1
 79.7295 719 l 1,8,-1
 11.8584 874 l 1,9,-1
 405.902 1044 l 1,10,-1
 77.5586 1212 l 1,11,-1
 206.271 1370 l 1,12,-1
 487.23 1128 l 1,13,-1
 536.428 1520 l 1,14,-1
 719.428 1520 l 1,15,-1
 616.23 1128 l 1,16,-1
 991.271 1370 l 1,17,-1
 1058.56 1212 l 1,0,-1
EndSplineSet
EndChar
StartChar: plus
Encoding: 43 43 14
Width: 1716
Flags: W
HStem: 528 230<238 720 995 1476>
Fore
1097.6 1284 m 1,0,-1
 995.354 758 l 1,1,-1
 1521.35 758 l 1,2,-1
 1476.65 528 l 1,3,-1
 950.646 528 l 1,4,-1
 848.402 2 l 1,5,-1
 618.402 2 l 1,6,-1
 720.646 528 l 1,7,-1
 194.646 528 l 1,8,-1
 239.354 758 l 1,9,-1
 765.354 758 l 1,10,-1
 867.598 1284 l 1,11,-1
 1097.6 1284 l 1,0,-1
EndSplineSet
EndChar
StartChar: comma
Encoding: 44 44 15
Width: 713
Flags: W
Fore
-9.44629 -197 m 1,0,1
 110.882 -113 110.882 -113 180.098 -9 c 128,-1,2
 249.312 95 249.312 95 276.138 233 c 2,3,-1
 292.854 319 l 1,4,-1
 577.854 319 l 1,5,-1
 576.299 311 l 2,6,7
 533.341 90 533.341 90 409.837 -69.5 c 128,-1,8
 286.334 -229 286.334 -229 73.1465 -338 c 1,9,-1
 -9.44629 -197 l 1,0,1
EndSplineSet
EndChar
StartChar: hyphen
Encoding: 45 45 16
Width: 850
Flags: W
HStem: 414 270<136 712>
Fore
137.241 684 m 1,0,-1
 765.241 684 l 1,1,-1
 712.759 414 l 1,2,-1
 84.7588 414 l 1,3,-1
 137.241 684 l 1,0,-1
EndSplineSet
KernsSLIF: 356 -339 0 0 221 -225 0 0 376 -225 0 0 89 -225 0 0 88 -149 0 0 87 -112 0 0 86 -149 0 0 84 -339 0 0
EndChar
StartChar: period
Encoding: 46 46 17
Width: 713
Flags: W
HStem: -29 21G<279.971 358.471>
Fore
166.098 162 m 0,0,1
 181.259 240 181.259 240 248.145 296 c 128,-1,2
 315.029 352 315.029 352 393.029 352 c 0,3,4
 472.029 352 472.029 352 517.145 296 c 128,-1,5
 562.259 240 562.259 240 547.098 162 c 0,6,7
 531.741 83 531.741 83 464.855 27 c 128,-1,8
 397.971 -29 397.971 -29 318.971 -29 c 0,9,10
 240.971 -29 240.971 -29 195.855 27 c 128,-1,11
 150.741 83 150.741 83 166.098 162 c 0,0,1
EndSplineSet
EndChar
StartChar: slash
Encoding: 47 47 18
Width: 748
Flags: W
HStem: 1473 20G<689.571 911.571>
Fore
689.571 1493 m 1,0,-1
 911.571 1493 l 1,1,-1
 57.4287 -190 l 1,2,-1
 -163.571 -190 l 1,3,-1
 689.571 1493 l 1,0,-1
EndSplineSet
EndChar
StartChar: zero
Encoding: 48 48 19
Width: 1425
Flags: W
HStem: -29 117<562 597> 1403 117<835 863>
Fore
585.195 88 m 0,0,1
 705.195 88 705.195 88 770.883 197 c 128,-1,2
 836.57 306 836.57 306 921.902 745 c 0,3,4
 1006.65 1181 1006.65 1181 983.729 1292 c 128,-1,5
 960.805 1403 960.805 1403 840.805 1403 c 0,6,7
 720.805 1403 720.805 1403 655.117 1294 c 128,-1,8
 589.43 1185 589.43 1185 503.902 745 c 0,9,10
 418.57 306 418.57 306 441.883 197 c 128,-1,11
 465.195 88 465.195 88 585.195 88 c 0,0,1
562.452 -29 m 0,12,13
 263.452 -29 263.452 -29 143.231 170.5 c 128,-1,14
 23.0098 370 23.0098 370 95.9023 745 c 0,15,16
 168.796 1120 168.796 1120 366.672 1320 c 128,-1,17
 564.548 1520 564.548 1520 863.548 1520 c 0,18,19
 1161.55 1520 1161.55 1520 1281.67 1320 c 128,-1,20
 1401.8 1120 1401.8 1120 1328.9 745 c 0,21,22
 1256.01 370 1256.01 370 1058.23 170.5 c 128,-1,23
 860.452 -29 860.452 -29 562.452 -29 c 0,12,13
EndSplineSet
EndChar
StartChar: one
Encoding: 49 49 20
Width: 1425
Flags: W
HStem: 0 121<155 1073> 1500 20G<772.729 1087.73>
Fore
133.271 0 m 1,0,-1
 156.791 121 l 1,1,-1
 436.791 121 l 1,2,-1
 671.603 1329 l 1,3,-1
 324.836 1145 l 1,4,-1
 353.799 1294 l 1,5,-1
 772.729 1520 l 1,6,-1
 1087.73 1520 l 1,7,-1
 815.791 121 l 1,8,-1
 1096.79 121 l 1,9,-1
 1073.27 0 l 1,10,-1
 133.271 0 l 1,0,-1
EndSplineSet
EndChar
StartChar: two
Encoding: 50 50 21
Width: 1425
Flags: W
HStem: 0 262<300 1093> 1403 117<673.986 780.729>
Fore
340.755 1124 m 1,0,-1
 220.755 1124 l 1,1,-1
 283.345 1446 l 1,2,3
 412.537 1483 412.537 1483 535.633 1501.5 c 128,-1,4
 658.729 1520 658.729 1520 780.729 1520 c 0,5,6
 1065.73 1520 1065.73 1520 1202.58 1403.5 c 128,-1,7
 1339.44 1287 1339.44 1287 1299.01 1079 c 0,8,9
 1270.24 931 1270.24 931 1159.4 813.5 c 128,-1,10
 1048.56 696 1048.56 696 769.265 535 c 1,11,-1
 300.198 262 l 1,12,-1
 1007.2 262 l 1,13,-1
 1041.41 438 l 1,14,-1
 1178.41 438 l 1,15,-1
 1093.27 0 l 1,16,-1
 -10.7295 0 l 1,17,-1
 36.7002 244 l 1,18,-1
 287.44 397 l 2,19,20
 608.344 592 608.344 592 728.975 729 c 128,-1,21
 849.604 866 849.604 866 885.176 1049 c 0,22,23
 918.804 1222 918.804 1222 864.896 1312.5 c 128,-1,24
 810.986 1403 810.986 1403 673.986 1403 c 0,25,26
 555.986 1403 555.986 1403 471.088 1331.5 c 128,-1,27
 386.19 1260 386.19 1260 340.755 1124 c 1,0,-1
EndSplineSet
EndChar
StartChar: three
Encoding: 51 51 22
Width: 1425
Flags: W
HStem: -29 117<441 498.452> 1403 117<694.805 824.548>
Fore
312.941 1450 m 1,0,1
 451.744 1485 451.744 1485 579.146 1502.5 c 128,-1,2
 706.548 1520 706.548 1520 824.548 1520 c 0,3,4
 1094.55 1520 1094.55 1520 1220.29 1423.5 c 128,-1,5
 1346.03 1327 1346.03 1327 1311.04 1147 c 0,6,7
 1284.8 1012 1284.8 1012 1185.47 928 c 128,-1,8
 1086.15 844 1086.15 844 920.51 815 c 1,9,10
 1109.48 784 1109.48 784 1185.66 682 c 128,-1,11
 1261.83 580 1261.83 580 1227.42 403 c 0,12,13
 1186.8 194 1186.8 194 999.626 82.5 c 128,-1,14
 812.452 -29 812.452 -29 498.452 -29 c 0,15,16
 380.452 -29 380.452 -29 258.84 -9 c 128,-1,17
 137.228 11 137.228 11 8.00293 51 c 1,18,-1
 71.7598 379 l 1,19,-1
 192.76 379 l 1,20,21
 176.157 237 176.157 237 239.677 162.5 c 128,-1,22
 303.195 88 303.195 88 441.195 88 c 0,23,24
 593.195 88 593.195 88 692.62 172.5 c 128,-1,25
 792.045 257 792.045 257 822.174 412 c 0,26,27
 853.664 574 853.664 574 784.27 662 c 128,-1,28
 714.875 750 714.875 750 555.875 750 c 2,29,-1
 489.875 750 l 1,30,-1
 513.2 870 l 1,31,-1
 565.2 870 l 2,32,33
 712.2 870 712.2 870 799.418 938 c 128,-1,34
 886.636 1006 886.636 1006 912.877 1141 c 0,35,36
 937.563 1268 937.563 1268 881.185 1335.5 c 128,-1,37
 824.805 1403 824.805 1403 694.805 1403 c 0,38,39
 576.805 1403 576.805 1403 495.268 1338.5 c 128,-1,40
 413.73 1274 413.73 1274 375.821 1151 c 1,41,-1
 254.821 1151 l 1,42,-1
 312.941 1450 l 1,0,1
EndSplineSet
EndChar
StartChar: four
Encoding: 52 52 23
Width: 1425
Flags: W
HStem: 0 121<359 1159> 0 522<215 1159> 393 129<215 635 1038 1269> 1500 20G<856.729 1232.73>
Fore
1159.27 0 m 1,0,-1
 337.271 0 l 1,1,-1
 360.791 121 l 1,2,-1
 582.791 121 l 1,3,-1
 635.662 393 l 1,4,-1
 12.6621 393 l 1,5,-1
 35.0166 508 l 1,6,-1
 856.729 1520 l 1,7,-1
 1232.73 1520 l 1,8,-1
 1038.74 522 l 1,9,-1
 1294.74 522 l 1,10,-1
 1269.66 393 l 1,11,-1
 1013.66 393 l 1,12,-1
 960.791 121 l 1,13,-1
 1182.79 121 l 1,14,-1
 1159.27 0 l 1,0,-1
660.737 522 m 1,15,-1
 801.663 1247 l 1,16,-1
 215.737 522 l 1,17,-1
 660.737 522 l 1,15,-1
EndSplineSet
EndChar
StartChar: five
Encoding: 53 53 24
Width: 1425
Flags: W
HStem: -29 117<447 514.076> 883 123<611.352 727.26> 1231 262<383 1251>
Fore
1302.92 1493 m 1,0,-1
 1252 1231 l 1,1,-1
 452.996 1231 l 1,2,-1
 389.239 903 l 1,3,4
 465.152 954 465.152 954 551.206 980 c 128,-1,5
 637.26 1006 637.26 1006 727.26 1006 c 0,6,7
 1003.26 1006 1003.26 1006 1136.14 866.5 c 128,-1,8
 1269.03 727 1269.03 727 1222.38 487 c 0,9,10
 1174.95 243 1174.95 243 988.513 107 c 128,-1,11
 802.076 -29 802.076 -29 514.076 -29 c 0,12,13
 392.076 -29 392.076 -29 275.464 -9 c 128,-1,14
 158.852 11 158.852 11 36.0156 53 c 1,15,-1
 99.3838 379 l 1,16,-1
 219.384 379 l 1,17,18
 196.81 232 196.81 232 253.314 160 c 128,-1,19
 309.819 88 309.819 88 447.819 88 c 0,20,21
 594.819 88 594.819 88 684.966 186.5 c 128,-1,22
 775.112 285 775.112 285 814.377 487 c 0,23,24
 853.059 686 853.059 686 802.705 784.5 c 128,-1,25
 752.352 883 752.352 883 611.352 883 c 0,26,27
 535.352 883 535.352 883 469.729 851.5 c 128,-1,28
 404.105 820 404.105 820 340.276 754 c 1,29,-1
 240.276 754 l 1,30,-1
 383.924 1493 l 1,31,-1
 1302.92 1493 l 1,0,-1
EndSplineSet
EndChar
StartChar: six
Encoding: 54 54 25
Width: 1425
Flags: W
HStem: -29 117<599 607> 870 119<751.2 872.332> 1403 117<941 991>
Fore
531.116 885 m 1,0,1
 606.224 937 606.224 937 691.777 963 c 128,-1,2
 777.332 989 777.332 989 872.332 989 c 0,3,4
 1101.33 989 1101.33 989 1205.78 855 c 128,-1,5
 1310.24 721 1310.24 721 1264.75 487 c 0,6,7
 1216.74 240 1216.74 240 1043.6 105.5 c 128,-1,8
 870.452 -29 870.452 -29 599.452 -29 c 0,9,10
 293.452 -29 293.452 -29 171.815 155.5 c 128,-1,11
 50.1787 340 50.1787 340 119.767 698 c 0,12,13
 198.88 1105 198.88 1105 414.214 1312.5 c 128,-1,14
 629.548 1520 629.548 1520 973.548 1520 c 0,15,16
 1063.55 1520 1063.55 1520 1163.63 1505 c 128,-1,17
 1263.72 1490 1263.72 1490 1375.88 1460 c 1,18,-1
 1324.57 1196 l 1,19,-1
 1203.57 1196 l 1,20,21
 1198.4 1298 1198.4 1298 1139.1 1350.5 c 128,-1,22
 1079.8 1403 1079.8 1403 969.805 1403 c 0,23,24
 791.805 1403 791.805 1403 688.591 1281 c 128,-1,25
 585.376 1159 585.376 1159 531.116 885 c 1,0,1
599.195 88 m 0,26,27
 702.195 88 702.195 88 763.203 175.5 c 128,-1,28
 824.212 263 824.212 263 866.197 479 c 0,29,30
 908.184 695 908.184 695 881.192 782.5 c 128,-1,31
 854.2 870 854.2 870 751.2 870 c 0,32,33
 648.2 870 648.2 870 587.692 782.5 c 128,-1,34
 527.184 695 527.184 695 485.197 479 c 0,35,36
 443.212 263 443.212 263 469.703 175.5 c 128,-1,37
 496.195 88 496.195 88 599.195 88 c 0,26,27
EndSplineSet
EndChar
StartChar: seven
Encoding: 55 55 26
Width: 1425
Flags: W
HStem: 0 21G<290.896 493.896> 1210 283<307 1126>
Fore
1350.73 1239 m 1,0,-1
 493.896 0 l 1,1,-1
 290.896 0 l 1,2,-1
 1126.1 1210 l 1,3,-1
 389.096 1210 l 1,4,-1
 349.83 1008 l 1,5,-1
 212.83 1008 l 1,6,-1
 307.104 1493 l 1,7,-1
 1400.1 1493 l 1,8,-1
 1350.73 1239 l 1,0,-1
EndSplineSet
EndChar
StartChar: eight
Encoding: 56 56 27
Width: 1425
Flags: W
HStem: -29 117<558 606> 735 117<708 733> 1403 117<828 861>
Fore
961.622 795 m 1,0,1
 1133.98 766 1133.98 766 1206.66 664 c 128,-1,2
 1279.33 562 1279.33 562 1247.26 397 c 0,3,4
 1207.22 191 1207.22 191 1030.33 81 c 128,-1,5
 853.452 -29 853.452 -29 560.452 -29 c 0,6,7
 267.452 -29 267.452 -29 132.834 81 c 128,-1,8
 -1.78418 191 -1.78418 191 38.2588 397 c 0,9,10
 70.3311 562 70.3311 562 183.158 664 c 128,-1,11
 295.984 766 295.984 766 478.622 795 c 1,12,13
 328.619 831 328.619 831 267.045 915.5 c 128,-1,14
 205.47 1000 205.47 1000 230.739 1130 c 0,15,16
 267.672 1320 267.672 1320 429.109 1420 c 128,-1,17
 590.548 1520 590.548 1520 861.548 1520 c 0,18,19
 1131.55 1520 1131.55 1520 1254.61 1420 c 128,-1,20
 1377.67 1320 1377.67 1320 1340.74 1130 c 0,21,22
 1315.47 1000 1315.47 1000 1220.54 915.5 c 128,-1,23
 1125.62 831 1125.62 831 961.622 795 c 1,0,1
952.962 1126 m 0,24,25
 983.674 1284 983.674 1284 957.239 1343.5 c 128,-1,26
 930.805 1403 930.805 1403 838.805 1403 c 0,27,28
 745.805 1403 745.805 1403 696.739 1343.5 c 128,-1,29
 647.674 1284 647.674 1284 616.962 1126 c 0,30,31
 586.444 969 586.444 969 612.572 910.5 c 128,-1,32
 638.701 852 638.701 852 731.701 852 c 0,33,34
 824.701 852 824.701 852 873.572 910.5 c 128,-1,35
 922.444 969 922.444 969 952.962 1126 c 0,24,25
853.562 414 m 0,36,37
 889.135 597 889.135 597 856.047 666 c 128,-1,38
 822.959 735 822.959 735 708.959 735 c 0,39,40
 593.959 735 593.959 735 534.547 666 c 128,-1,41
 475.135 597 475.135 597 439.562 414 c 0,42,43
 403.603 229 403.603 229 436.398 158.5 c 128,-1,44
 469.195 88 469.195 88 583.195 88 c 0,45,46
 696.195 88 696.195 88 756.898 158.5 c 128,-1,47
 817.603 229 817.603 229 853.562 414 c 0,36,37
EndSplineSet
EndChar
StartChar: nine
Encoding: 57 57 28
Width: 1425
Flags: W
HStem: -29 117<432 482> 502 119<552.668 673.8> 1403 117<816 839>
Fore
825.805 1403 m 0,0,1
 722.805 1403 722.805 1403 662.297 1315.5 c 128,-1,2
 601.788 1228 601.788 1228 559.803 1012 c 0,3,4
 517.816 796 517.816 796 544.308 708.5 c 128,-1,5
 570.8 621 570.8 621 673.8 621 c 0,6,7
 776.8 621 776.8 621 837.808 708.5 c 128,-1,8
 898.816 796 898.816 796 940.803 1012 c 0,9,10
 982.788 1228 982.788 1228 955.797 1315.5 c 128,-1,11
 928.805 1403 928.805 1403 825.805 1403 c 0,0,1
894.272 608 m 1,12,13
 817.971 555 817.971 555 732.319 528.5 c 128,-1,14
 646.668 502 646.668 502 552.668 502 c 0,15,16
 324.668 502 324.668 502 220.118 635.5 c 128,-1,17
 115.568 769 115.568 769 161.247 1004 c 0,18,19
 209.454 1252 209.454 1252 381.501 1386 c 128,-1,20
 553.548 1520 553.548 1520 824.548 1520 c 0,21,22
 1130.55 1520 1130.55 1520 1252.59 1335 c 128,-1,23
 1374.63 1150 1374.63 1150 1305.23 793 c 0,24,25
 1226.12 386 1226.12 386 1010.79 178.5 c 128,-1,26
 795.452 -29 795.452 -29 451.452 -29 c 0,27,28
 361.452 -29 361.452 -29 261.368 -14 c 128,-1,29
 161.284 1 161.284 1 49.1152 31 c 1,30,-1
 100.432 295 l 1,31,-1
 221.432 295 l 1,32,33
 226.604 193 226.604 193 285.9 140.5 c 128,-1,34
 345.195 88 345.195 88 456.195 88 c 0,35,36
 632.195 88 632.195 88 736.007 210.5 c 128,-1,37
 839.818 333 839.818 333 894.272 608 c 1,12,13
EndSplineSet
EndChar
StartChar: colon
Encoding: 58 58 29
Width: 756
Flags: W
HStem: -29 381<276.603 350.661> 625 379<403.728 477.397>
Fore
251.271 813 m 0,0,1
 266.627 892 266.627 892 333.012 948 c 128,-1,2
 399.397 1004 399.397 1004 477.397 1004 c 0,3,4
 555.397 1004 555.397 1004 600.415 947.5 c 128,-1,5
 645.433 891 645.433 891 630.271 813 c 0,6,7
 615.109 735 615.109 735 548.918 680 c 128,-1,8
 482.728 625 482.728 625 403.728 625 c 0,9,10
 324.728 625 324.728 625 280.418 680 c 128,-1,11
 236.109 735 236.109 735 251.271 813 c 0,0,1
124.729 162 m 0,12,13
 139.891 240 139.891 240 206.276 296 c 128,-1,14
 272.661 352 272.661 352 350.661 352 c 0,15,16
 428.661 352 428.661 352 473.776 296 c 128,-1,17
 518.891 240 518.891 240 503.729 162 c 0,18,19
 488.373 83 488.373 83 421.488 27 c 128,-1,20
 354.603 -29 354.603 -29 276.603 -29 c 0,21,22
 198.603 -29 198.603 -29 153.988 27 c 128,-1,23
 109.373 83 109.373 83 124.729 162 c 0,12,13
EndSplineSet
EndChar
StartChar: semicolon
Encoding: 59 59 30
Width: 756
Flags: W
HStem: 625 379<432.981 506.651>
Fore
280.525 813 m 0,0,1
 295.881 892 295.881 892 362.267 948 c 128,-1,2
 428.651 1004 428.651 1004 506.651 1004 c 0,3,4
 584.651 1004 584.651 1004 629.669 947.5 c 128,-1,5
 674.687 891 674.687 891 659.525 813 c 0,6,7
 644.363 735 644.363 735 578.173 680 c 128,-1,8
 511.981 625 511.981 625 432.981 625 c 0,9,10
 353.981 625 353.981 625 309.673 680 c 128,-1,11
 265.363 735 265.363 735 280.525 813 c 0,0,1
-49.0498 -188 m 1,12,13
 72.084 -105 72.084 -105 141.202 -1.5 c 128,-1,14
 210.32 102 210.32 102 237.146 240 c 2,15,-1
 254.251 328 l 1,16,-1
 539.251 328 l 1,17,18
 495.515 103 495.515 103 371.025 -59 c 128,-1,19
 246.536 -221 246.536 -221 34.3486 -330 c 1,20,-1
 -49.0498 -188 l 1,12,13
EndSplineSet
EndChar
StartChar: less
Encoding: 60 60 31
Width: 1716
Flags: W
Fore
1564.41 979 m 1,0,-1
 519.708 641 l 1,1,-1
 1433.4 305 l 1,2,-1
 1386.94 66 l 1,3,-1
 195.132 530 l 1,4,-1
 239.062 756 l 1,5,-1
 1611.06 1219 l 1,6,-1
 1564.41 979 l 1,0,-1
EndSplineSet
EndChar
StartChar: equal
Encoding: 61 61 32
Width: 1716
Flags: W
HStem: 301 227<193 1432> 756 227<282 1521>
Fore
194.841 528 m 1,0,-1
 1476.84 528 l 1,1,-1
 1432.72 301 l 1,2,-1
 150.717 301 l 1,3,-1
 194.841 528 l 1,0,-1
283.283 983 m 1,4,-1
 1565.28 983 l 1,5,-1
 1521.16 756 l 1,6,-1
 239.159 756 l 1,7,-1
 283.283 983 l 1,4,-1
EndSplineSet
EndChar
StartChar: greater
Encoding: 62 62 33
Width: 1716
Flags: W
Fore
282.409 979 m 1,0,-1
 329.061 1219 l 1,1,-1
 1521.06 756 l 1,2,-1
 1477.13 530 l 1,3,-1
 104.939 66 l 1,4,-1
 151.396 305 l 1,5,-1
 1195.71 641 l 1,6,-1
 282.409 979 l 1,0,-1
EndSplineSet
EndChar
StartChar: question
Encoding: 63 63 34
Width: 1200
Flags: W
HStem: -29 381<381.452 455.512> 1407 113<620.583 736.548>
Fore
228.579 162 m 0,0,1
 243.741 240 243.741 240 310.626 296 c 128,-1,2
 377.512 352 377.512 352 455.512 352 c 0,3,4
 534.512 352 534.512 352 579.626 296 c 128,-1,5
 624.741 240 624.741 240 609.579 162 c 0,6,7
 594.223 83 594.223 83 527.338 27 c 128,-1,8
 460.452 -29 460.452 -29 381.452 -29 c 0,9,10
 303.452 -29 303.452 -29 258.338 27 c 128,-1,11
 213.223 83 213.223 83 228.579 162 c 0,0,1
270.33 1452 m 1,12,13
 400.938 1486 400.938 1486 516.243 1503 c 128,-1,14
 631.548 1520 631.548 1520 736.548 1520 c 0,15,16
 988.548 1520 988.548 1520 1102.07 1409.5 c 128,-1,17
 1215.59 1299 1215.59 1299 1175.74 1094 c 0,18,19
 1136.48 892 1136.48 892 983.331 775.5 c 128,-1,20
 830.187 659 830.187 659 581.688 641 c 1,21,-1
 541.839 436 l 1,22,-1
 402.839 436 l 1,23,-1
 460.959 735 l 1,24,25
 609.317 778 609.317 778 692.2 870 c 128,-1,26
 775.083 962 775.083 962 805.018 1116 c 0,27,28
 833.009 1260 833.009 1260 786.296 1333.5 c 128,-1,29
 739.583 1407 739.583 1407 620.583 1407 c 0,30,31
 510.583 1407 510.583 1407 438.254 1341 c 128,-1,32
 365.925 1275 365.925 1275 331.655 1145 c 1,33,-1
 210.655 1145 l 1,34,-1
 270.33 1452 l 1,12,13
EndSplineSet
EndChar
StartChar: at
Encoding: 64 64 35
Width: 2048
Flags: W
HStem: -356 127<863 927.133> 92 127<907.529 984.215> 866 127<1082 1111> 1313 127<1202 1268>
Fore
1264.61 504 m 2,0,-1
 1279.39 580 l 2,1,2
 1304.46 709 1304.46 709 1257.72 787.5 c 128,-1,3
 1210.98 866 1210.98 866 1109.98 866 c 0,4,5
 1010.98 866 1010.98 866 933.471 778.5 c 128,-1,6
 855.963 691 855.963 691 827.194 543 c 0,7,8
 798.426 395 798.426 395 841.82 307 c 128,-1,9
 885.215 219 885.215 219 984.215 219 c 0,10,11
 1085.21 219 1085.21 219 1162.28 296.5 c 128,-1,12
 1239.34 374 1239.34 374 1264.61 504 c 2,0,-1
1213.3 240 m 1,13,14
 1155.3 168 1155.3 168 1076.42 130 c 128,-1,15
 997.529 92 997.529 92 907.529 92 c 0,16,17
 716.529 92 716.529 92 630.854 212 c 128,-1,18
 545.18 332 545.18 332 586.194 543 c 0,19,20
 627.209 754 627.209 754 759.438 873.5 c 128,-1,21
 891.666 993 891.666 993 1082.67 993 c 0,22,23
 1172.67 993 1172.67 993 1236.78 955 c 128,-1,24
 1300.89 917 1300.89 917 1331.09 846 c 1,25,-1
 1355.39 971 l 1,26,-1
 1574.39 971 l 1,27,-1
 1430.16 229 l 1,28,29
 1580.74 268 1580.74 268 1681.48 385 c 128,-1,30
 1782.22 502 1782.22 502 1816.44 678 c 0,31,32
 1844.23 821 1844.23 821 1811.97 938 c 128,-1,33
 1779.72 1055 1779.72 1055 1685.38 1151 c 0,34,35
 1608.54 1229 1608.54 1229 1492.7 1271 c 128,-1,36
 1376.87 1313 1376.87 1313 1236.87 1313 c 0,37,38
 1106.87 1313 1106.87 1313 987.063 1278 c 128,-1,39
 867.261 1243 867.261 1243 759.849 1174 c 0,40,41
 597.244 1068 597.244 1068 488.865 904 c 128,-1,42
 380.487 740 380.487 740 342.194 543 c 0,43,44
 312.065 388 312.065 388 333.838 250.5 c 128,-1,45
 355.611 113 355.611 113 424.979 12 c 0,46,47
 508.848 -107 508.848 -107 636.49 -168 c 128,-1,48
 764.133 -229 764.133 -229 927.133 -229 c 0,49,50
 1049.13 -229 1049.13 -229 1169.74 -195 c 128,-1,51
 1290.35 -161 1290.35 -161 1406.37 -94 c 1,52,-1
 1445.1 -188 l 1,53,54
 1300.77 -272 1300.77 -272 1154.11 -314 c 128,-1,55
 1007.45 -356 1007.45 -356 863.446 -356 c 0,56,57
 669.446 -356 669.446 -356 519.692 -293 c 128,-1,58
 369.938 -230 369.938 -230 267.431 -104 c 0,59,60
 165.533 20 165.533 20 131.703 185.5 c 128,-1,61
 97.873 351 97.873 351 135.194 543 c 0,62,63
 172.516 735 172.516 735 270.588 900 c 128,-1,64
 368.661 1065 368.661 1065 518.958 1190 c 0,65,66
 671.45 1316 671.45 1316 847.002 1378 c 128,-1,67
 1022.55 1440 1022.55 1440 1227.55 1440 c 0,68,69
 1405.55 1440 1405.55 1440 1542.13 1391.5 c 128,-1,70
 1678.7 1343 1678.7 1343 1774.65 1245 c 1,71,72
 1886.07 1134 1886.07 1134 1924.47 992 c 128,-1,73
 1962.87 850 1962.87 850 1929.05 676 c 0,74,75
 1875.4 400 1875.4 400 1687.46 246 c 128,-1,76
 1499.53 92 1499.53 92 1215.53 92 c 2,77,-1
 1184.53 92 l 1,78,-1
 1213.3 240 l 1,13,14
EndSplineSet
EndChar
StartChar: A
Encoding: 65 65 36
Width: 1589
Flags: W
HStem: 0 121<-139 282 790 1466> 426 121<385 873> 1473 20G<813.104 1052.1>
Fore
-161.104 0 m 1,0,-1
 -137.585 121 l 1,1,-1
 -15.585 121 l 1,2,-1
 813.104 1493 l 1,3,-1
 1052.1 1493 l 1,4,-1
 1348.42 121 l 1,5,-1
 1490.42 121 l 1,6,-1
 1466.9 0 l 1,7,-1
 767.896 0 l 1,8,-1
 791.415 121 l 1,9,-1
 937.415 121 l 1,10,-1
 873.701 426 l 1,11,-1
 312.701 426 l 1,12,-1
 128.415 121 l 1,13,-1
 306.415 121 l 1,14,-1
 282.896 0 l 1,15,-1
 -161.104 0 l 1,0,-1
385.221 547 m 1,16,-1
 848.221 547 l 1,17,-1
 729.212 1118 l 1,18,-1
 385.221 547 l 1,16,-1
EndSplineSet
KernsSLIF: 357 -36 0 0 356 -112 0 0 253 -83 0 0 221 -102 0 0 64258 -36 0 0 64257 -36 0 0 376 -102 0 0 255 -83 0 0 8217 -243 0 0 8221 -243 0 0 121 -83 0 0 119 -83 0 0 118 -83 0 0 116 -36 0 0 102 -36 0 0 89 -102 0 0 87 -102 0 0 86 -149 0 0 84 -112 0 0
EndChar
StartChar: B
Encoding: 66 66 37
Width: 1731
Flags: W
HStem: 0 121<-27 780> 750 120<696 847> 1372 121<240 408 241 959>
Fore
-49.1045 0 m 1,0,-1
 -25.585 121 l 1,1,-1
 165.415 121 l 1,2,-1
 408.585 1372 l 1,3,-1
 217.585 1372 l 1,4,-1
 241.104 1493 l 1,5,-1
 1126.1 1493 l 2,6,7
 1399.1 1493 1399.1 1493 1518.22 1401 c 128,-1,8
 1637.34 1309 1637.34 1309 1601.38 1124 c 0,9,10
 1575.53 991 1575.53 991 1465.86 913 c 128,-1,11
 1356.2 835 1356.2 835 1166.32 815 c 1,12,13
 1387.23 794 1387.23 794 1487.99 695 c 128,-1,14
 1588.75 596 1588.75 596 1556.87 432 c 0,15,16
 1513.71 210 1513.71 210 1325.8 105 c 128,-1,17
 1137.9 0 1137.9 0 780.896 0 c 2,18,-1
 -49.1045 0 l 1,0,-1
696.006 870 m 1,19,-1
 827.006 870 l 2,20,21
 999.006 870 999.006 870 1094.15 932.5 c 128,-1,22
 1189.3 995 1189.3 995 1214.38 1124 c 0,23,24
 1239.65 1254 1239.65 1254 1170.62 1313 c 128,-1,25
 1101.58 1372 1101.58 1372 924.585 1372 c 2,26,-1
 793.585 1372 l 1,27,-1
 696.006 870 l 1,19,-1
550.415 121 m 1,28,-1
 693.415 121 l 2,29,30
 884.415 121 884.415 121 991.188 197 c 128,-1,31
 1097.96 273 1097.96 273 1128.87 432 c 0,32,33
 1159.97 592 1159.97 592 1082.32 671 c 128,-1,34
 1004.68 750 1004.68 750 815.681 750 c 2,35,-1
 672.681 750 l 1,36,-1
 550.415 121 l 1,28,-1
EndSplineSet
KernsSLIF: 268 38 0 0 262 38 0 0 286 38 0 0 221 -36 0 0 210 38 0 0 212 38 0 0 211 38 0 0 376 -36 0 0 338 38 0 0 213 38 0 0 216 38 0 0 214 38 0 0 199 38 0 0 89 -36 0 0 79 38 0 0 71 38 0 0 67 38 0 0 45 38 0 0
EndChar
StartChar: C
Encoding: 67 67 38
Width: 1630
Flags: W
HStem: -29 121<752 818.973> 1399 121<1041 1091>
Fore
1463.9 426 m 1,0,1
 1359.99 195 1359.99 195 1185.22 83 c 128,-1,2
 1010.45 -29 1010.45 -29 752.452 -29 c 0,3,4
 374.452 -29 374.452 -29 195.48 179.5 c 128,-1,5
 16.5088 388 16.5088 388 85.9023 745 c 0,6,7
 155.491 1103 155.491 1103 415.52 1311.5 c 128,-1,8
 675.548 1520 675.548 1520 1053.55 1520 c 0,9,10
 1186.55 1520 1186.55 1520 1324.33 1488 c 128,-1,11
 1462.11 1456 1462.11 1456 1610.47 1391 c 1,12,-1
 1539.13 1024 l 1,13,-1
 1412.13 1024 l 1,14,15
 1409.68 1212 1409.68 1212 1324.85 1305.5 c 128,-1,16
 1240.03 1399 1240.03 1399 1071.03 1399 c 0,17,18
 853.027 1399 853.027 1399 715.829 1238.5 c 128,-1,19
 578.632 1078 578.632 1078 513.902 745 c 0,20,21
 449.174 412 449.174 412 524.073 252 c 128,-1,22
 598.973 92 598.973 92 818.973 92 c 0,23,24
 967.973 92 967.973 92 1078.61 175 c 128,-1,25
 1189.24 258 1189.24 258 1264.9 426 c 1,26,-1
 1463.9 426 l 1,0,1
EndSplineSet
KernsSLIF: 46 -36 0 0 44 -36 0 0
EndChar
StartChar: D
Encoding: 68 68 39
Width: 1776
Flags: W
HStem: 0 121<-27 718> 1372 121<240 408 241 959>
Fore
550.415 121 m 1,0,-1
 689.415 121 l 2,1,2
 923.415 121 923.415 121 1061.07 271 c 128,-1,3
 1198.73 421 1198.73 421 1262.29 748 c 0,4,5
 1325.46 1073 1325.46 1073 1246.53 1222.5 c 128,-1,6
 1167.58 1372 1167.58 1372 932.585 1372 c 2,7,-1
 793.585 1372 l 1,8,-1
 550.415 121 l 1,0,-1
-49.1045 0 m 1,9,-1
 -25.585 121 l 1,10,-1
 165.415 121 l 1,11,-1
 408.585 1372 l 1,12,-1
 217.585 1372 l 1,13,-1
 241.104 1493 l 1,14,-1
 1007.1 1493 l 2,15,16
 1409.1 1493 1409.1 1493 1584.78 1301 c 128,-1,17
 1760.46 1109 1760.46 1109 1690.29 748 c 0,18,19
 1619.73 385 1619.73 385 1368.81 192.5 c 128,-1,20
 1117.9 0 1117.9 0 716.896 0 c 2,21,-1
 -49.1045 0 l 1,9,-1
EndSplineSet
KernsSLIF: 86 -36 0 0 46 -73 0 0 45 38 0 0 44 -73 0 0
EndChar
StartChar: E
Encoding: 69 69 40
Width: 1561
Flags: W
HStem: 0 121<-27 1310> 0 137<553 1310> 551 326<697 1161> 741 136<697 1061> 1047 20G<1125.3 1262.3> 1141 352<241 1514> 1356 137<241 1418> 1372 121<240 408>
Fore
-49.1045 0 m 1,0,-1
 -25.585 121 l 1,1,-1
 165.415 121 l 1,2,-1
 408.585 1372 l 1,3,-1
 217.585 1372 l 1,4,-1
 241.104 1493 l 1,5,-1
 1583.1 1493 l 1,6,-1
 1514.68 1141 l 1,7,-1
 1376.68 1141 l 1,8,-1
 1418.47 1356 l 1,9,-1
 790.475 1356 l 1,10,-1
 697.366 877 l 1,11,-1
 1088.37 877 l 1,12,-1
 1125.3 1067 l 1,13,-1
 1262.3 1067 l 1,14,-1
 1162 551 l 1,15,-1
 1025 551 l 1,16,-1
 1061.93 741 l 1,17,-1
 670.931 741 l 1,18,-1
 553.525 137 l 1,19,-1
 1200.53 137 l 1,20,-1
 1242.32 352 l 1,21,-1
 1379.32 352 l 1,22,-1
 1310.9 0 l 1,23,-1
 -49.1045 0 l 1,0,-1
EndSplineSet
KernsSLIF: 45 38 0 0
EndChar
StartChar: F
Encoding: 70 70 41
Width: 1454
Flags: W
HStem: 0 121<-27 763> 551 326<699 1151> 741 136<699 1051> 1047 20G<1115.3 1252.3> 1141 352<241 1503> 1356 137<241 1408> 1372 121<240 408>
Fore
-49.1045 0 m 1,0,-1
 -25.585 121 l 1,1,-1
 165.415 121 l 1,2,-1
 408.585 1372 l 1,3,-1
 217.585 1372 l 1,4,-1
 241.104 1493 l 1,5,-1
 1572.1 1493 l 1,6,-1
 1503.68 1141 l 1,7,-1
 1366.68 1141 l 1,8,-1
 1408.47 1356 l 1,9,-1
 792.475 1356 l 1,10,-1
 699.366 877 l 1,11,-1
 1078.37 877 l 1,12,-1
 1115.3 1067 l 1,13,-1
 1252.3 1067 l 1,14,-1
 1152 551 l 1,15,-1
 1015 551 l 1,16,-1
 1051.93 741 l 1,17,-1
 672.931 741 l 1,18,-1
 552.415 121 l 1,19,-1
 787.415 121 l 1,20,-1
 763.896 0 l 1,21,-1
 -49.1045 0 l 1,0,-1
EndSplineSet
KernsSLIF: 252 -36 0 0 229 -112 0 0 230 -112 0 0 59 -73 0 0 242 -112 0 0 45 -92 0 0 46 -206 0 0 367 -36 0 0 245 -112 0 0 235 -112 0 0 249 -36 0 0 44 -206 0 0 224 -112 0 0 195 -120 0 0 234 -112 0 0 341 -36 0 0 232 -112 0 0 196 -120 0 0 193 -120 0 0 251 -36 0 0 227 -112 0 0 194 -120 0 0 248 -112 0 0 244 -112 0 0 65 -120 0 0 97 -112 0 0 228 -112 0 0 246 -112 0 0 250 -36 0 0 225 -112 0 0 345 -36 0 0 226 -112 0 0 233 -112 0 0 283 -112 0 0 101 -112 0 0 339 -112 0 0 111 -112 0 0 114 -36 0 0 117 -36 0 0 192 -120 0 0 58 -73 0 0 243 -112 0 0
EndChar
StartChar: G
Encoding: 71 71 42
Width: 1749
Flags: W
HStem: -29 121<758 816> 578 120<1038 1196> 1399 121<1057 1116>
Fore
1463.13 1024 m 1,0,1
 1456.62 1222 1456.62 1222 1368.83 1310.5 c 128,-1,2
 1281.03 1399 1281.03 1399 1090.03 1399 c 0,3,4
 858.027 1399 858.027 1399 718.913 1241.5 c 128,-1,5
 579.798 1084 579.798 1084 513.902 745 c 0,6,7
 448.591 409 448.591 409 521.782 250.5 c 128,-1,8
 594.973 92 594.973 92 814.973 92 c 0,9,10
 898.973 92 898.973 92 974.666 111 c 128,-1,11
 1050.36 130 1050.36 130 1116.75 168 c 1,12,-1
 1196.44 578 l 1,13,-1
 1016.44 578 l 1,14,-1
 1039.77 698 l 1,15,-1
 1577.77 698 l 1,16,-1
 1466.39 125 l 1,17,18
 1283.23 47 1283.23 47 1108.34 9 c 128,-1,19
 933.452 -29 933.452 -29 758.452 -29 c 0,20,21
 374.452 -29 374.452 -29 195.189 178 c 128,-1,22
 15.9258 385 15.9258 385 85.9023 745 c 0,23,24
 156.074 1106 156.074 1106 415.811 1313 c 128,-1,25
 675.548 1520 675.548 1520 1059.55 1520 c 0,26,27
 1219.55 1520 1219.55 1520 1368.33 1488 c 128,-1,28
 1517.11 1456 1517.11 1456 1661.47 1391 c 1,29,-1
 1590.13 1024 l 1,30,-1
 1463.13 1024 l 1,0,1
EndSplineSet
KernsSLIF: 46 -73 0 0 45 38 0 0 44 -73 0 0
EndChar
StartChar: H
Encoding: 72 72 43
Width: 1935
Flags: W
HStem: 0 121<-27 718 952 1697> 733 137<696 1263> 1372 121<240 408 241 985 1219 1387 1220 1964>
Fore
-49.1045 0 m 1,0,-1
 -25.585 121 l 1,1,-1
 165.415 121 l 1,2,-1
 408.585 1372 l 1,3,-1
 217.585 1372 l 1,4,-1
 241.104 1493 l 1,5,-1
 1009.1 1493 l 1,6,-1
 985.585 1372 l 1,7,-1
 793.585 1372 l 1,8,-1
 696.006 870 l 1,9,-1
 1290.01 870 l 1,10,-1
 1387.58 1372 l 1,11,-1
 1196.58 1372 l 1,12,-1
 1220.1 1493 l 1,13,-1
 1988.1 1493 l 1,14,-1
 1964.58 1372 l 1,15,-1
 1772.58 1372 l 1,16,-1
 1529.42 121 l 1,17,-1
 1721.42 121 l 1,18,-1
 1697.9 0 l 1,19,-1
 929.896 0 l 1,20,-1
 953.415 121 l 1,21,-1
 1144.42 121 l 1,22,-1
 1263.38 733 l 1,23,-1
 669.376 733 l 1,24,-1
 550.415 121 l 1,25,-1
 742.415 121 l 1,26,-1
 718.896 0 l 1,27,-1
 -49.1045 0 l 1,0,-1
EndSplineSet
EndChar
StartChar: I
Encoding: 73 73 44
Width: 958
Flags: W
HStem: 0 121<-27 718> 1372 121<240 408 241 985>
Fore
-49.1045 0 m 1,0,-1
 -25.585 121 l 1,1,-1
 165.415 121 l 1,2,-1
 408.585 1372 l 1,3,-1
 217.585 1372 l 1,4,-1
 241.104 1493 l 1,5,-1
 1009.1 1493 l 1,6,-1
 985.585 1372 l 1,7,-1
 793.585 1372 l 1,8,-1
 550.415 121 l 1,9,-1
 742.415 121 l 1,10,-1
 718.896 0 l 1,11,-1
 -49.1045 0 l 1,0,-1
EndSplineSet
EndChar
StartChar: J
Encoding: 74 74 45
Width: 969
Flags: W
HStem: -426 121<-37 1> 1372 121<281 475 282 1053>
Fore
-323.29 -358 m 1,0,-1
 -277.61 -123 l 1,1,-1
 -147.61 -123 l 1,2,3
 -159.883 -217 -159.883 -217 -129.936 -261 c 128,-1,4
 -99.9883 -305 -99.9883 -305 -23.9883 -305 c 0,5,6
 73.0117 -305 73.0117 -305 125.993 -230.5 c 128,-1,7
 178.975 -156 178.975 -156 218.822 49 c 2,8,-1
 475.988 1372 l 1,9,-1
 258.988 1372 l 1,10,-1
 282.508 1493 l 1,11,-1
 1077.51 1493 l 1,12,-1
 1053.99 1372 l 1,13,-1
 862.988 1372 l 1,14,-1
 604.268 41 l 2,15,16
 557.033 -202 557.033 -202 412.763 -314 c 128,-1,17
 268.492 -426 268.492 -426 1.49219 -426 c 0,18,19
 -81.5078 -426 -81.5078 -426 -162.203 -409 c 128,-1,20
 -242.899 -392 -242.899 -392 -323.29 -358 c 1,0,-1
EndSplineSet
KernsSLIF: 59 -83 0 0 58 -83 0 0 46 -159 0 0 44 -83 0 0
EndChar
StartChar: K
Encoding: 75 75 46
Width: 1780
Flags: W
HStem: 0 121<-27 718 1573 1697> 1372 121<240 408 241 985 1289 1426 1290 1823>
Fore
-49.1045 0 m 1,0,-1
 -25.585 121 l 1,1,-1
 165.415 121 l 1,2,-1
 408.585 1372 l 1,3,-1
 217.585 1372 l 1,4,-1
 241.104 1493 l 1,5,-1
 1009.1 1493 l 1,6,-1
 985.585 1372 l 1,7,-1
 793.585 1372 l 1,8,-1
 687.647 827 l 1,9,-1
 1426.58 1372 l 1,10,-1
 1266.58 1372 l 1,11,-1
 1290.1 1493 l 1,12,-1
 1847.1 1493 l 1,13,-1
 1823.58 1372 l 1,14,-1
 1624.58 1372 l 1,15,-1
 998.976 911 l 1,16,-1
 1574.42 121 l 1,17,-1
 1721.42 121 l 1,18,-1
 1697.9 0 l 1,19,-1
 1191.9 0 l 1,20,-1
 667.821 725 l 1,21,-1
 550.415 121 l 1,22,-1
 742.415 121 l 1,23,-1
 718.896 0 l 1,24,-1
 -49.1045 0 l 1,0,-1
EndSplineSet
KernsSLIF: 367 -45 0 0 366 -73 0 0 283 -45 0 0 268 -55 0 0 262 -55 0 0 253 -92 0 0 221 -55 0 0 217 -73 0 0 219 -73 0 0 218 -73 0 0 210 -55 0 0 212 -55 0 0 211 -55 0 0 193 -83 0 0 194 -83 0 0 376 -55 0 0 255 -92 0 0 339 -45 0 0 338 -55 0 0 213 -55 0 0 195 -83 0 0 192 -83 0 0 248 -36 0 0 216 -55 0 0 252 -45 0 0 251 -45 0 0 249 -45 0 0 250 -45 0 0 245 -45 0 0 246 -45 0 0 244 -45 0 0 242 -45 0 0 243 -45 0 0 235 -45 0 0 234 -45 0 0 232 -45 0 0 233 -45 0 0 220 -73 0 0 214 -55 0 0 199 -55 0 0 196 -83 0 0 121 -92 0 0 117 -45 0 0 111 -45 0 0 101 -45 0 0 89 -55 0 0 87 -73 0 0 85 -73 0 0 79 -55 0 0 67 -55 0 0 65 -83 0 0 45 -149 0 0
EndChar
StartChar: L
Encoding: 76 76 47
Width: 1440
Flags: W
HStem: 0 121<-27 1249> 0 137<553 1249> 1372 121<240 408 241 985>
Fore
-49.1045 0 m 1,0,-1
 -25.585 121 l 1,1,-1
 165.415 121 l 1,2,-1
 408.585 1372 l 1,3,-1
 217.585 1372 l 1,4,-1
 241.104 1493 l 1,5,-1
 1009.1 1493 l 1,6,-1
 985.585 1372 l 1,7,-1
 793.585 1372 l 1,8,-1
 553.525 137 l 1,9,-1
 1141.53 137 l 1,10,-1
 1187.4 373 l 1,11,-1
 1322.4 373 l 1,12,-1
 1249.9 0 l 1,13,-1
 -49.1045 0 l 1,0,-1
EndSplineSet
KernsSLIF: 366 -112 0 0 356 -167 0 0 253 -73 0 0 221 -131 0 0 217 -112 0 0 219 -112 0 0 218 -112 0 0 376 -131 0 0 255 -73 0 0 8217 -491 0 0 8216 -491 0 0 8221 -491 0 0 8220 -491 0 0 220 -112 0 0 121 -73 0 0 89 -131 0 0 87 -139 0 0 86 -243 0 0 85 -112 0 0 84 -167 0 0
EndChar
StartChar: M
Encoding: 77 77 48
Width: 2267
Flags: W
HStem: 0 121<-37 460 1280 2025> 1372 121<230 397 1701 2292>
Fore
-59.1045 0 m 1,0,-1
 -35.585 121 l 1,1,-1
 154.415 121 l 1,2,-1
 397.585 1372 l 1,3,-1
 207.585 1372 l 1,4,-1
 231.104 1493 l 1,5,-1
 847.104 1493 l 1,6,-1
 1086.89 535 l 1,7,-1
 1701.1 1493 l 1,8,-1
 2316.1 1493 l 1,9,-1
 2292.58 1372 l 1,10,-1
 2101.58 1372 l 1,11,-1
 1858.42 121 l 1,12,-1
 2049.42 121 l 1,13,-1
 2025.9 0 l 1,14,-1
 1257.9 0 l 1,15,-1
 1281.42 121 l 1,16,-1
 1471.42 121 l 1,17,-1
 1692.81 1260 l 1,18,-1
 1027.46 219 l 1,19,-1
 774.465 219 l 1,20,-1
 515.814 1260 l 1,21,-1
 294.415 121 l 1,22,-1
 484.415 121 l 1,23,-1
 460.896 0 l 1,24,-1
 -59.1045 0 l 1,0,-1
EndSplineSet
EndChar
StartChar: N
Encoding: 78 78 49
Width: 1872
Flags: W
HStem: 0 121<-33 466> 1372 121<234 402 1412 1579 1413 1911>
Fore
-55.1045 0 m 1,0,-1
 -31.585 121 l 1,1,-1
 159.415 121 l 1,2,-1
 402.585 1372 l 1,3,-1
 211.585 1372 l 1,4,-1
 235.104 1493 l 1,5,-1
 702.104 1493 l 1,6,-1
 1397.64 436 l 1,7,-1
 1579.58 1372 l 1,8,-1
 1389.58 1372 l 1,9,-1
 1413.1 1493 l 1,10,-1
 1935.1 1493 l 1,11,-1
 1911.58 1372 l 1,12,-1
 1720.58 1372 l 1,13,-1
 1453.9 0 l 1,14,-1
 1191.9 0 l 1,15,-1
 486.632 1079 l 1,16,-1
 300.415 121 l 1,17,-1
 490.415 121 l 1,18,-1
 466.896 0 l 1,19,-1
 -55.1045 0 l 1,0,-1
EndSplineSet
KernsSLIF: 59 -73 0 0 58 -73 0 0 46 -131 0 0 44 -131 0 0
EndChar
StartChar: O
Encoding: 79 79 50
Width: 1784
Flags: W
HStem: -29 121<736 786> 1399 121<992 1043>
Fore
763.973 92 m 0,0,1
 954.973 92 954.973 92 1079.27 253 c 0,2,3
 1203.56 414 1203.56 414 1267.9 745 c 0,4,5
 1332.44 1077 1332.44 1077 1270.73 1238 c 0,6,7
 1209.03 1399 1209.03 1399 1018.03 1399 c 0,8,9
 828.027 1399 828.027 1399 702.94 1236.5 c 0,10,11
 577.854 1074 577.854 1074 513.902 745 c 0,12,13
 450.146 417 450.146 417 512.06 254.5 c 0,14,15
 573.973 92 573.973 92 763.973 92 c 0,0,1
740.452 -29 m 0,16,17
 363.452 -29 363.452 -29 189.495 177 c 0,18,19
 15.5371 383 15.5371 383 85.9023 745 c 0,20,21
 156.269 1107 156.269 1107 410.908 1313.5 c 0,22,23
 665.548 1520 665.548 1520 1041.55 1520 c 0,24,25
 1418.55 1520 1418.55 1520 1592.5 1314 c 0,26,27
 1766.46 1108 1766.46 1108 1695.9 745 c 0,28,29
 1625.54 383 1625.54 383 1371 177 c 0,30,31
 1116.45 -29 1116.45 -29 740.452 -29 c 0,16,17
EndSplineSet
KernsSLIF: 88 -36 0 0 86 -36 0 0 46 -120 0 0 45 75 0 0 44 -120 0 0
EndChar
StartChar: P
Encoding: 80 80 51
Width: 1540
Flags: W
HStem: 0 121<-27 767> 618 121<670 921> 1372 121<240 408 241 927>
Fore
-49.1045 0 m 1,0,-1
 -25.585 121 l 1,1,-1
 165.415 121 l 1,2,-1
 408.585 1372 l 1,3,-1
 217.585 1372 l 1,4,-1
 241.104 1493 l 1,5,-1
 1091.1 1493 l 2,6,7
 1340.1 1493 1340.1 1493 1464.07 1374.5 c 128,-1,8
 1588.04 1256 1588.04 1256 1549.36 1057 c 0,9,10
 1510.48 857 1510.48 857 1339.75 737.5 c 128,-1,11
 1169.02 618 1169.02 618 921.022 618 c 2,12,-1
 647.022 618 l 1,13,-1
 550.415 121 l 1,14,-1
 791.415 121 l 1,15,-1
 767.896 0 l 1,16,-1
 -49.1045 0 l 1,0,-1
670.542 739 m 1,17,-1
 782.542 739 l 2,18,19
 912.542 739 912.542 739 1006.86 825.5 c 128,-1,20
 1101.17 912 1101.17 912 1129.36 1057 c 0,21,22
 1157.35 1201 1157.35 1201 1096.97 1286.5 c 128,-1,23
 1036.58 1372 1036.58 1372 905.585 1372 c 2,24,-1
 793.585 1372 l 1,25,-1
 670.542 739 l 1,17,-1
EndSplineSet
KernsSLIF: 283 -55 0 0 193 -149 0 0 194 -149 0 0 8222 -264 0 0 8218 -264 0 0 339 -55 0 0 195 -149 0 0 192 -149 0 0 248 -55 0 0 230 -55 0 0 245 -55 0 0 246 -55 0 0 244 -55 0 0 242 -55 0 0 243 -55 0 0 235 -55 0 0 234 -55 0 0 232 -55 0 0 233 -55 0 0 229 -55 0 0 227 -55 0 0 228 -55 0 0 226 -55 0 0 224 -55 0 0 225 -55 0 0 196 -149 0 0 111 -55 0 0 101 -55 0 0 97 -55 0 0 65 -149 0 0 59 -73 0 0 58 -73 0 0 46 -339 0 0 45 -112 0 0 44 -264 0 0
EndChar
StartChar: Q
Encoding: 81 81 52
Width: 1784
Flags: W
HStem: -369 246<1217 1257> -29 121<767.497 797.018> 1399 121<1025 1076>
Fore
767.497 -29 m 1,0,1
 390.663 -23 390.663 -23 219.817 181 c 128,-1,2
 48.9707 385 48.9707 385 118.947 745 c 0,3,4
 189.313 1107 189.313 1107 443.953 1313.5 c 128,-1,5
 698.592 1520 698.592 1520 1074.59 1520 c 0,6,7
 1451.59 1520 1451.59 1520 1625.55 1314 c 128,-1,8
 1799.51 1108 1799.51 1108 1728.95 745 c 0,9,10
 1667.13 427 1667.13 427 1464.15 229 c 128,-1,11
 1261.16 31 1261.16 31 948.024 -16 c 1,12,13
 989.944 -73 989.944 -73 1061.08 -98 c 128,-1,14
 1132.23 -123 1132.23 -123 1253.23 -123 c 2,15,-1
 1304.23 -123 l 1,16,-1
 1256.41 -369 l 1,17,-1
 1227.41 -369 l 2,18,19
 1037.41 -369 1037.41 -369 926.347 -287 c 128,-1,20
 815.286 -205 815.286 -205 767.497 -29 c 1,0,1
797.018 92 m 0,21,22
 988.018 92 988.018 92 1112.31 253 c 128,-1,23
 1236.61 414 1236.61 414 1300.95 745 c 0,24,25
 1365.48 1077 1365.48 1077 1303.78 1238 c 128,-1,26
 1242.07 1399 1242.07 1399 1051.07 1399 c 0,27,28
 861.072 1399 861.072 1399 735.985 1236.5 c 128,-1,29
 610.898 1074 610.898 1074 546.947 745 c 0,30,31
 483.19 417 483.19 417 545.104 254.5 c 128,-1,32
 607.018 92 607.018 92 797.018 92 c 0,21,22
EndSplineSet
KernsSLIF: 46 -102 0 0 45 75 0 0 44 -102 0 0
EndChar
StartChar: R
Encoding: 82 82 53
Width: 1702
Flags: W
HStem: 0 121<-27 718 1438 1568> 1372 121<240 408 241 943>
Fore
1083.6 729 m 1,0,1
 1170.07 716 1170.07 716 1222.13 670 c 128,-1,2
 1274.19 624 1274.19 624 1302.28 537 c 2,3,-1
 1439.42 121 l 1,4,-1
 1592.42 121 l 1,5,-1
 1568.9 0 l 1,6,-1
 1077.9 0 l 1,7,-1
 927.561 451 l 1,8,9
 885.773 591 885.773 591 844.758 629.5 c 128,-1,10
 803.741 668 803.741 668 717.741 668 c 2,11,-1
 656.741 668 l 1,12,-1
 550.415 121 l 1,13,-1
 742.415 121 l 1,14,-1
 718.896 0 l 1,15,-1
 -49.1045 0 l 1,16,-1
 -25.585 121 l 1,17,-1
 165.415 121 l 1,18,-1
 408.585 1372 l 1,19,-1
 217.585 1372 l 1,20,-1
 241.104 1493 l 1,21,-1
 1093.1 1493 l 2,22,23
 1353.1 1493 1353.1 1493 1474.29 1388.5 c 128,-1,24
 1595.48 1284 1595.48 1284 1558.16 1092 c 0,25,26
 1527.83 936 1527.83 936 1409.74 845.5 c 128,-1,27
 1291.65 755 1291.65 755 1083.6 729 c 1,0,1
680.066 788 m 1,28,-1
 811.066 788 l 2,29,30
 951.066 788 951.066 788 1041.34 864 c 128,-1,31
 1131.61 940 1131.61 940 1159.02 1081 c 0,32,33
 1186.43 1222 1186.43 1222 1125.51 1297 c 128,-1,34
 1064.58 1372 1064.58 1372 924.585 1372 c 2,35,-1
 793.585 1372 l 1,36,-1
 680.066 788 l 1,28,-1
EndSplineSet
KernsSLIF: 356 -36 0 0 253 -36 0 0 221 -63 0 0 376 -63 0 0 255 -36 0 0 8217 -73 0 0 8221 -73 0 0 248 38 0 0 230 47 0 0 229 47 0 0 227 47 0 0 228 47 0 0 226 47 0 0 224 47 0 0 225 47 0 0 121 -36 0 0 97 47 0 0 89 -63 0 0 87 -45 0 0 86 -73 0 0 84 -36 0 0
EndChar
StartChar: S
Encoding: 83 83 54
Width: 1479
Flags: W
HStem: -29 121<554 624> 1399 121<826 892>
Fore
27.085 72 m 1,0,-1
 95.8955 426 l 1,1,-1
 222.896 426 l 1,2,3
 219.239 258 219.239 258 311.106 175 c 128,-1,4
 402.973 92 402.973 92 593.973 92 c 0,5,6
 748.973 92 748.973 92 841.44 151 c 128,-1,7
 933.909 210 933.909 210 956.068 324 c 0,8,9
 973.562 414 973.562 414 928.282 464 c 128,-1,10
 883.001 514 883.001 514 719.359 557 c 2,11,-1
 506.05 612 l 1,12,13
 297.936 668 297.936 668 228.276 767.5 c 128,-1,14
 158.617 867 158.617 867 194.383 1051 c 0,15,16
 237.535 1273 237.535 1273 409.042 1396.5 c 128,-1,17
 580.548 1520 580.548 1520 846.548 1520 c 0,18,19
 977.548 1520 977.548 1520 1114.77 1498 c 128,-1,20
 1252 1476 1252 1476 1395.44 1432 c 1,21,-1
 1331.3 1102 l 1,22,-1
 1204.3 1102 l 1,23,24
 1205.23 1256 1205.23 1256 1121.13 1327.5 c 128,-1,25
 1037.03 1399 1037.03 1399 856.027 1399 c 0,26,27
 708.027 1399 708.027 1399 622.517 1347.5 c 128,-1,28
 537.006 1296 537.006 1296 517.18 1194 c 0,29,30
 499.103 1101 499.103 1101 541.675 1052.5 c 128,-1,31
 584.247 1004 584.247 1004 777.14 952 c 1,32,-1
 990.448 897 l 2,33,34
 1188.34 845 1188.34 845 1260.46 735 c 128,-1,35
 1332.58 625 1332.58 625 1295.06 432 c 0,36,37
 1251.13 206 1251.13 206 1072.29 88.5 c 128,-1,38
 893.452 -29 893.452 -29 590.452 -29 c 0,39,40
 444.452 -29 444.452 -29 305.312 -4 c 128,-1,41
 166.172 21 166.172 21 27.085 72 c 1,0,-1
EndSplineSet
KernsSLIF: 350 -45 0 0 352 -45 0 0 83 -45 0 0 46 -73 0 0 45 75 0 0 44 -73 0 0
EndChar
StartChar: T
Encoding: 84 84 55
Width: 1524
Flags: W
HStem: 0 121<248 1009> 1356 137<168 687 168 1486>
Fore
225.896 0 m 1,0,-1
 249.415 121 l 1,1,-1
 447.415 121 l 1,2,-1
 687.475 1356 l 1,3,-1
 278.475 1356 l 1,4,-1
 232.601 1120 l 1,5,-1
 95.6006 1120 l 1,6,-1
 168.104 1493 l 1,7,-1
 1648.1 1493 l 1,8,-1
 1575.6 1120 l 1,9,-1
 1440.6 1120 l 1,10,-1
 1486.47 1356 l 1,11,-1
 1074.47 1356 l 1,12,-1
 834.415 121 l 1,13,-1
 1033.42 121 l 1,14,-1
 1009.9 0 l 1,15,-1
 225.896 0 l 1,0,-1
EndSplineSet
KernsSLIF: 252 -188 0 0 229 -196 0 0 230 -159 0 0 59 -73 0 0 242 -235 0 0 255 -225 0 0 45 -339 0 0 8222 -149 0 0 367 -188 0 0 245 -235 0 0 235 -235 0 0 249 -188 0 0 44 -225 0 0 224 -196 0 0 195 -112 0 0 234 -235 0 0 231 -235 0 0 341 -149 0 0 232 -235 0 0 196 -112 0 0 193 -112 0 0 269 -235 0 0 345 -149 0 0 233 -235 0 0 251 -188 0 0 253 -225 0 0 8218 -149 0 0 227 -196 0 0 194 -112 0 0 248 -159 0 0 244 -235 0 0 353 -188 0 0 65 -112 0 0 283 -235 0 0 187 -149 0 0 351 -188 0 0 228 -196 0 0 119 -225 0 0 246 -235 0 0 250 -188 0 0 8250 -149 0 0 263 -235 0 0 225 -196 0 0 46 -264 0 0 84 -73 0 0 226 -196 0 0 101 -235 0 0 356 -73 0 0 97 -196 0 0 99 -235 0 0 171 -149 0 0 339 -159 0 0 8249 -149 0 0 111 -235 0 0 115 -188 0 0 114 -149 0 0 117 -188 0 0 192 -112 0 0 121 -225 0 0 58 -73 0 0 243 -235 0 0
EndChar
StartChar: U
Encoding: 85 85 56
Width: 1786
Flags: W
HStem: -29 152<757.076 913.622> 1372 121<216 384 217 962 1367 1535 1368 1865>
Fore
384.403 1372 m 1,0,-1
 194.403 1372 l 1,1,-1
 217.924 1493 l 1,2,-1
 985.924 1493 l 1,3,-1
 962.403 1372 l 1,4,-1
 771.403 1372 l 1,5,-1
 626.201 625 l 2,6,7
 571.969 346 571.969 346 637.296 234.5 c 128,-1,8
 702.622 123 702.622 123 913.622 123 c 0,9,10
 1119.62 123 1119.62 123 1227.99 235.5 c 128,-1,11
 1336.36 348 1336.36 348 1390.2 625 c 2,12,-1
 1535.4 1372 l 1,13,-1
 1345.4 1372 l 1,14,-1
 1368.92 1493 l 1,15,-1
 1888.92 1493 l 1,16,-1
 1865.4 1372 l 1,17,-1
 1674.4 1372 l 1,18,-1
 1525.12 604 l 2,19,20
 1458.64 262 1458.64 262 1282.36 116.5 c 128,-1,21
 1106.08 -29 1106.08 -29 757.076 -29 c 0,22,23
 410.076 -29 410.076 -29 289.65 118 c 128,-1,24
 169.225 265 169.225 265 235.508 606 c 2,25,-1
 384.403 1372 l 1,0,-1
EndSplineSet
KernsSLIF: 193 -63 0 0 194 -63 0 0 195 -63 0 0 192 -63 0 0 196 -63 0 0 65 -63 0 0 59 -73 0 0 58 -73 0 0 46 -188 0 0 45 -36 0 0 44 -188 0 0
EndChar
StartChar: V
Encoding: 86 86 57
Width: 1589
Flags: W
HStem: 0 21G<546.896 784.896> 1372 121<132 250 133 809 1318 1473 1319 1739>
Fore
1763.1 1493 m 1,0,-1
 1739.58 1372 l 1,1,-1
 1614.58 1372 l 1,2,-1
 784.896 0 l 1,3,-1
 546.896 0 l 1,4,-1
 250.585 1372 l 1,5,-1
 109.585 1372 l 1,6,-1
 133.104 1493 l 1,7,-1
 833.104 1493 l 1,8,-1
 809.585 1372 l 1,9,-1
 664.585 1372 l 1,10,-1
 875.343 383 l 1,11,-1
 1473.58 1372 l 1,12,-1
 1295.58 1372 l 1,13,-1
 1319.1 1493 l 1,14,-1
 1763.1 1493 l 1,0,-1
EndSplineSet
KernsSLIF: 367 -131 0 0 283 -188 0 0 253 -83 0 0 210 -36 0 0 212 -36 0 0 211 -36 0 0 193 -159 0 0 194 -159 0 0 8222 -264 0 0 8218 -264 0 0 255 -83 0 0 8217 38 0 0 8221 38 0 0 339 -188 0 0 338 -36 0 0 213 -36 0 0 195 -159 0 0 192 -159 0 0 248 -188 0 0 230 -188 0 0 216 -36 0 0 252 -131 0 0 251 -131 0 0 249 -131 0 0 250 -131 0 0 245 -188 0 0 246 -188 0 0 244 -188 0 0 242 -188 0 0 243 -188 0 0 235 -188 0 0 234 -188 0 0 232 -188 0 0 233 -188 0 0 229 -188 0 0 227 -188 0 0 228 -188 0 0 226 -188 0 0 224 -188 0 0 225 -188 0 0 214 -36 0 0 196 -159 0 0 121 -83 0 0 117 -131 0 0 111 -188 0 0 105 -36 0 0 101 -188 0 0 97 -188 0 0 79 -36 0 0 65 -159 0 0 59 -206 0 0 58 -206 0 0 46 -358 0 0 45 -149 0 0 44 -358 0 0
EndChar
StartChar: W
Encoding: 87 87 58
Width: 2300
Flags: W
HStem: 0 21G<407.896 665.896 1341.9 1599.9> 1372 121<126 248 127 811 2006 2161 2007 2445>
Fore
1599.9 0 m 1,0,-1
 1341.9 0 l 1,1,-1
 1215.19 1087 l 1,2,-1
 665.896 0 l 1,3,-1
 407.896 0 l 1,4,-1
 248.585 1372 l 1,5,-1
 103.585 1372 l 1,6,-1
 127.104 1493 l 1,7,-1
 835.104 1493 l 1,8,-1
 811.585 1372 l 1,9,-1
 651.585 1372 l 1,10,-1
 758.338 455 l 1,11,-1
 1282.1 1493 l 1,12,-1
 1566.1 1493 l 1,13,-1
 1689.03 438 l 1,14,-1
 2161.58 1372 l 1,15,-1
 1983.58 1372 l 1,16,-1
 2007.1 1493 l 1,17,-1
 2469.1 1493 l 1,18,-1
 2445.58 1372 l 1,19,-1
 2292.58 1372 l 1,20,-1
 1599.9 0 l 1,0,-1
EndSplineSet
KernsSLIF: 252 -83 0 0 229 -178 0 0 230 -139 0 0 59 -139 0 0 242 -167 0 0 45 -112 0 0 8222 -225 0 0 367 -83 0 0 245 -167 0 0 235 -167 0 0 249 -83 0 0 44 -319 0 0 224 -178 0 0 195 -131 0 0 234 -167 0 0 341 -92 0 0 8221 38 0 0 232 -167 0 0 196 -131 0 0 193 -131 0 0 8217 38 0 0 251 -83 0 0 253 -45 0 0 8218 -225 0 0 227 -178 0 0 194 -131 0 0 248 -167 0 0 244 -167 0 0 65 -131 0 0 97 -178 0 0 228 -178 0 0 246 -167 0 0 250 -83 0 0 225 -178 0 0 345 -92 0 0 46 -319 0 0 226 -178 0 0 233 -167 0 0 283 -167 0 0 101 -167 0 0 105 -36 0 0 339 -167 0 0 255 -45 0 0 111 -167 0 0 114 -92 0 0 117 -83 0 0 192 -131 0 0 121 -45 0 0 58 -139 0 0 243 -167 0 0
EndChar
StartChar: X
Encoding: 88 88 59
Width: 1589
Flags: W
HStem: 0 121<-86 421 719 1441> 1372 121<154 268 155 873 1133 1284 1134 1630>
Fore
660.664 575 m 1,0,-1
 261.415 121 l 1,1,-1
 445.415 121 l 1,2,-1
 421.896 0 l 1,3,-1
 -108.104 0 l 1,4,-1
 -84.585 121 l 1,5,-1
 99.415 121 l 1,6,-1
 603.406 692 l 1,7,-1
 268.585 1372 l 1,8,-1
 131.585 1372 l 1,9,-1
 155.104 1493 l 1,10,-1
 897.104 1493 l 1,11,-1
 873.585 1372 l 1,12,-1
 709.585 1372 l 1,13,-1
 916.945 952 l 1,14,-1
 1284.58 1372 l 1,15,-1
 1110.58 1372 l 1,16,-1
 1134.1 1493 l 1,17,-1
 1654.1 1493 l 1,18,-1
 1630.58 1372 l 1,19,-1
 1446.58 1372 l 1,20,-1
 973.397 836 l 1,21,-1
 1324.42 121 l 1,22,-1
 1465.42 121 l 1,23,-1
 1441.9 0 l 1,24,-1
 696.896 0 l 1,25,-1
 720.415 121 l 1,26,-1
 886.415 121 l 1,27,-1
 660.664 575 l 1,0,-1
EndSplineSet
KernsSLIF: 268 -36 0 0 262 -36 0 0 210 -36 0 0 212 -36 0 0 211 -36 0 0 193 -73 0 0 194 -73 0 0 338 -36 0 0 213 -36 0 0 195 -73 0 0 192 -73 0 0 216 -36 0 0 214 -36 0 0 199 -36 0 0 196 -73 0 0 79 -36 0 0 67 -36 0 0 65 -73 0 0 45 -73 0 0
EndChar
StartChar: Y
Encoding: 89 89 60
Width: 1462
Flags: W
HStem: 0 121<229 995> 1372 121<126 230 127 819 1197 1323 1198 1602>
Fore
206.896 0 m 1,0,-1
 230.415 121 l 1,1,-1
 431.415 121 l 1,2,-1
 528.022 618 l 1,3,-1
 230.585 1372 l 1,4,-1
 103.585 1372 l 1,5,-1
 127.104 1493 l 1,6,-1
 843.104 1493 l 1,7,-1
 819.585 1372 l 1,8,-1
 653.585 1372 l 1,9,-1
 878.982 803 l 1,10,-1
 1323.58 1372 l 1,11,-1
 1174.58 1372 l 1,12,-1
 1198.1 1493 l 1,13,-1
 1626.1 1493 l 1,14,-1
 1602.58 1372 l 1,15,-1
 1475.58 1372 l 1,16,-1
 925.13 670 l 1,17,-1
 818.415 121 l 1,18,-1
 1019.42 121 l 1,19,-1
 995.896 0 l 1,20,-1
 206.896 0 l 1,0,-1
EndSplineSet
KernsSLIF: 367 -178 0 0 283 -178 0 0 268 -36 0 0 262 -36 0 0 193 -131 0 0 194 -131 0 0 339 -178 0 0 195 -131 0 0 192 -131 0 0 248 -178 0 0 230 -159 0 0 252 -178 0 0 251 -178 0 0 249 -178 0 0 250 -178 0 0 245 -178 0 0 246 -178 0 0 244 -178 0 0 242 -178 0 0 243 -178 0 0 235 -178 0 0 234 -178 0 0 232 -178 0 0 233 -178 0 0 229 -159 0 0 227 -159 0 0 228 -159 0 0 226 -159 0 0 224 -159 0 0 225 -159 0 0 199 -36 0 0 196 -131 0 0 117 -178 0 0 111 -178 0 0 105 -36 0 0 101 -178 0 0 97 -159 0 0 67 -36 0 0 65 -131 0 0 59 -253 0 0 58 -253 0 0 46 -264 0 0 45 -206 0 0 44 -264 0 0
EndChar
StartChar: Z
Encoding: 90 90 61
Width: 1495
Flags: W
HStem: 0 137<411 1275> 1356 137<260 1085>
Fore
-69.1045 0 m 1,0,-1
 -41.6973 141 l 1,1,-1
 1085.47 1356 l 1,2,-1
 370.475 1356 l 1,3,-1
 327.128 1133 l 1,4,-1
 190.128 1133 l 1,5,-1
 260.104 1493 l 1,6,-1
 1556.1 1493 l 1,7,-1
 1528.7 1352 l 1,8,-1
 411.525 137 l 1,9,-1
 1165.53 137 l 1,10,-1
 1206.15 346 l 1,11,-1
 1343.15 346 l 1,12,-1
 1275.9 0 l 1,13,-1
 -69.1045 0 l 1,0,-1
EndSplineSet
KernsSLIF: 46 -36 0 0 44 -36 0 0
EndChar
StartChar: bracketleft
Encoding: 91 91 62
Width: 969
Flags: W
HStem: -270 120<455 645> 1436 120<433 977>
Fore
433.469 1556 m 1,0,-1
 1000.47 1556 l 1,1,-1
 977.144 1436 l 1,2,-1
 764.144 1436 l 1,3,-1
 455.856 -150 l 1,4,-1
 668.856 -150 l 1,5,-1
 645.531 -270 l 1,6,-1
 78.5312 -270 l 1,7,-1
 433.469 1556 l 1,0,-1
EndSplineSet
EndChar
StartChar: backslash
Encoding: 92 92 63
Width: 748
Flags: W
HStem: 1473 20G<163.571 384.571>
Fore
384.571 1493 m 1,0,-1
 584.429 -190 l 1,1,-1
 362.429 -190 l 1,2,-1
 163.571 1493 l 1,3,-1
 384.571 1493 l 1,0,-1
EndSplineSet
EndChar
StartChar: bracketright
Encoding: 93 93 64
Width: 969
Flags: W
HStem: -270 120<-11 535> 1436 120<321 512>
Fore
890.469 1556 m 1,0,-1
 535.531 -270 l 1,1,-1
 -32.4688 -270 l 1,2,-1
 -9.14355 -150 l 1,3,-1
 203.856 -150 l 1,4,-1
 512.144 1436 l 1,5,-1
 299.144 1436 l 1,6,-1
 322.469 1556 l 1,7,-1
 890.469 1556 l 1,0,-1
EndSplineSet
EndChar
StartChar: asciicircum
Encoding: 94 94 65
Width: 1716
Flags: W
HStem: 1473 20G<804.135 1027.13>
Fore
1027.13 1493 m 1,0,-1
 1454.87 936 l 1,1,-1
 1241.87 936 l 1,2,-1
 865.095 1251 l 1,3,-1
 365.865 936 l 1,4,-1
 152.865 936 l 1,5,-1
 804.135 1493 l 1,6,-1
 1027.13 1493 l 1,0,-1
EndSplineSet
EndChar
StartChar: underscore
Encoding: 95 95 66
Width: 1024
Flags: W
HStem: -483 190<17 1005>
Fore
1042.47 -293 m 1,0,-1
 1005.53 -483 l 1,1,-1
 -18.4658 -483 l 1,2,-1
 18.4658 -293 l 1,3,-1
 1042.47 -293 l 1,0,-1
EndSplineSet
EndChar
StartChar: grave
Encoding: 96 96 67
Width: 1024
Flags: HW
Fore
542 1638 m 1,0,-1
 726 1262 l 1,1,-1
 562 1262 l 1,2,-1
 263 1638 l 1,3,-1
 542 1638 l 1,0,-1
EndSplineSet
EndChar
StartChar: a
Encoding: 97 97 68
Width: 1327
Flags: W
HStem: -29 21G<231.55 368.05> 0 121<1048 1176> 547 119<614 767> 981 111<611 686.95>
Fore
1151.62 653 m 2,0,-1
 1048.21 121 l 1,1,-1
 1200.21 121 l 1,2,-1
 1176.69 0 l 1,3,-1
 670.687 0 l 1,4,-1
 696.928 135 l 1,5,6
 610.601 51 610.601 51 516.825 11 c 0,7,8
 423.05 -29 423.05 -29 313.05 -29 c 0,9,10
 150.05 -29 150.05 -29 79.5586 58.5 c 0,11,12
 9.06641 146 9.06641 146 40.75 309 c 0,13,14
 75.5449 488 75.5449 488 218.345 577 c 0,15,16
 361.145 666 361.145 666 614.145 666 c 2,17,-1
 800.145 666 l 1,18,-1
 812.39 729 l 2,19,20
 837.465 858 837.465 858 788.42 919.5 c 0,21,22
 739.374 981 739.374 981 611.374 981 c 0,23,24
 505.374 981 505.374 981 439.418 937.5 c 0,25,26
 373.463 894 373.463 894 330.219 795 c 1,27,-1
 217.219 795 l 1,28,-1
 261.732 1024 l 1,29,30
 363.341 1058 363.341 1058 468.646 1075 c 0,31,32
 573.95 1092 573.95 1092 686.95 1092 c 0,33,34
 971.95 1092 971.95 1092 1083.85 986 c 0,35,36
 1195.74 880 1195.74 880 1151.62 653 c 2,0,-1
735.61 334 m 2,37,-1
 777.013 547 l 1,38,-1
 644.013 547 l 2,39,40
 545.013 547 545.013 547 481.517 493 c 0,41,42
 418.02 439 418.02 439 398.388 338 c 0,43,44
 378.755 237 378.755 237 407.536 187 c 0,45,46
 436.317 137 436.317 137 515.317 137 c 0,47,48
 597.317 137 597.317 137 657.813 191 c 0,49,50
 718.31 245 718.31 245 735.61 334 c 2,37,-1
EndSplineSet
EndChar
StartChar: b
Encoding: 98 98 69
Width: 1432
Flags: W
HStem: -29 156<630.277 707.953> 0 121<-79 404> 936 156<787.53 925.854> 1436 120<200 329>
Fore
74.1104 121 m 1,0,-1
 329.721 1436 l 1,1,-1
 177.721 1436 l 1,2,-1
 201.047 1556 l 1,3,-1
 707.047 1556 l 1,4,-1
 584.976 928 l 1,5,6
 646.109 1011 646.109 1011 729.981 1051.5 c 128,-1,7
 813.854 1092 813.854 1092 925.854 1092 c 0,8,9
 1152.85 1092 1152.85 1092 1254.29 942.5 c 128,-1,10
 1355.73 793 1355.73 793 1305 532 c 0,11,12
 1254.27 271 1254.27 271 1094.61 121 c 128,-1,13
 934.953 -29 934.953 -29 707.953 -29 c 0,14,15
 595.953 -29 595.953 -29 527.826 11.5 c 128,-1,16
 459.698 52 459.698 52 430.832 135 c 1,17,-1
 404.591 0 l 1,18,-1
 -101.409 0 l 1,19,-1
 -77.8896 121 l 1,20,-1
 74.1104 121 l 1,0,-1
497.699 479 m 2,21,22
 461.544 293 461.544 293 492.91 210 c 128,-1,23
 524.277 127 524.277 127 630.277 127 c 0,24,25
 739.277 127 739.277 127 800.883 215 c 128,-1,26
 862.488 303 862.488 303 907.001 532 c 0,27,28
 951.514 761 951.514 761 924.022 848.5 c 128,-1,29
 896.53 936 896.53 936 787.53 936 c 0,30,31
 681.53 936 681.53 936 617.897 853 c 128,-1,32
 554.264 770 554.264 770 518.108 584 c 2,33,-1
 497.699 479 l 2,21,22
EndSplineSet
EndChar
StartChar: c
Encoding: 99 99 70
Width: 1247
Flags: W
HStem: -29 113<571.05 652.015> 979 113<774 838.985>
Fore
1116.22 332 m 1,0,1
 1042.84 150 1042.84 150 907.947 60.5 c 128,-1,2
 773.05 -29 773.05 -29 571.05 -29 c 0,3,4
 287.05 -29 287.05 -29 159.624 118 c 128,-1,5
 32.1973 265 32.1973 265 84.0977 532 c 0,6,7
 135.414 796 135.414 796 318.182 944 c 128,-1,8
 500.95 1092 500.95 1092 774.95 1092 c 0,9,10
 885.95 1092 885.95 1092 994.868 1071 c 128,-1,11
 1103.79 1050 1103.79 1050 1212.62 1008 c 1,12,-1
 1155.28 713 l 1,13,-1
 1043.28 713 l 1,14,15
 1053.52 848 1053.52 848 1003.25 913.5 c 128,-1,16
 952.985 979 952.985 979 838.985 979 c 0,17,18
 690.985 979 690.985 979 609.047 879 c 128,-1,19
 527.109 779 527.109 779 479.098 532 c 0,20,21
 432.252 291 432.252 291 473.133 187.5 c 128,-1,22
 514.015 84 514.015 84 652.015 84 c 0,23,24
 759.015 84 759.015 84 835.955 148 c 128,-1,25
 912.896 212 912.896 212 950.221 332 c 1,26,-1
 1116.22 332 l 1,0,1
EndSplineSet
EndChar
StartChar: d
Encoding: 100 100 71
Width: 1432
Flags: W
HStem: -29 21G<301.953 470.953> 0 121<1108 1235> 936 156<632.854 711.53> 1436 120<880 1009>
Fore
823.699 479 m 2,0,-1
 844.108 584 l 2,1,2
 880.264 770 880.264 770 848.397 853 c 128,-1,3
 816.53 936 816.53 936 711.53 936 c 0,4,5
 601.53 936 601.53 936 540.022 848.5 c 128,-1,6
 478.514 761 478.514 761 434.001 532 c 0,7,8
 389.488 303 389.488 303 417.383 215 c 128,-1,9
 445.277 127 445.277 127 554.277 127 c 0,10,11
 659.277 127 659.277 127 723.41 210 c 128,-1,12
 787.544 293 787.544 293 823.699 479 c 2,0,-1
1108.11 121 m 1,13,-1
 1259.11 121 l 1,14,-1
 1235.59 0 l 1,15,-1
 730.591 0 l 1,16,-1
 756.832 135 l 1,17,18
 695.698 52 695.698 52 611.326 11.5 c 128,-1,19
 526.953 -29 526.953 -29 414.953 -29 c 0,20,21
 188.953 -29 188.953 -29 88.6104 121 c 128,-1,22
 -11.7324 271 -11.7324 271 39.001 532 c 0,23,24
 89.9287 794 89.9287 794 248.392 943 c 128,-1,25
 406.854 1092 406.854 1092 632.854 1092 c 0,26,27
 744.854 1092 744.854 1092 813.481 1051.5 c 128,-1,28
 882.109 1011 882.109 1011 910.976 928 c 1,29,-1
 1009.72 1436 l 1,30,-1
 857.721 1436 l 1,31,-1
 881.047 1556 l 1,32,-1
 1387.05 1556 l 1,33,-1
 1108.11 121 l 1,13,-1
EndSplineSet
EndChar
StartChar: e
Encoding: 101 101 72
Width: 1303
Flags: W
HStem: -29 113<546.05 654.015> 481 119<492 1200> 979 113<723 763>
Fore
834.315 600 m 1,0,1
 875.135 810 875.135 810 852.56 894.5 c 128,-1,2
 829.985 979 829.985 979 735.985 979 c 0,3,4
 644.985 979 644.985 979 589.352 896 c 128,-1,5
 533.718 813 533.718 813 495.813 618 c 2,6,-1
 492.315 600 l 1,7,-1
 834.315 600 l 1,0,1
1200.18 481 m 1,8,-1
 469.184 481 l 1,9,-1
 467.629 473 l 2,10,11
 427.586 267 427.586 267 471.801 175.5 c 128,-1,12
 516.015 84 516.015 84 654.015 84 c 0,13,14
 769.015 84 769.015 84 851.872 145 c 128,-1,15
 934.729 206 934.729 206 977.277 322 c 1,16,-1
 1143.28 322 l 1,17,18
 1065.09 141 1065.09 141 920.572 56 c 128,-1,19
 776.05 -29 776.05 -29 546.05 -29 c 0,20,21
 270.05 -29 270.05 -29 150.832 116.5 c 128,-1,22
 31.6143 262 31.6143 262 84.0977 532 c 0,23,24
 135.414 796 135.414 796 315.182 944 c 128,-1,25
 494.95 1092 494.95 1092 763.95 1092 c 0,26,27
 1027.95 1092 1027.95 1092 1138.72 936.5 c 128,-1,28
 1249.5 781 1249.5 781 1200.18 481 c 1,8,-1
EndSplineSet
EndChar
StartChar: f
Encoding: 102 102 73
Width: 881
Flags: W
HStem: 0 121<-59 628> 942 121<117 252 630 873> 1444 112<817 863>
Fore
1090.52 1290 m 1,0,-1
 978.522 1290 l 1,1,2
 985.685 1368 985.685 1368 955.571 1406 c 128,-1,3
 925.457 1444 925.457 1444 856.457 1444 c 0,4,5
 776.457 1444 776.457 1444 729.28 1386.5 c 128,-1,6
 682.104 1329 682.104 1329 657.028 1200 c 2,7,-1
 630.398 1063 l 1,8,-1
 897.398 1063 l 1,9,-1
 873.878 942 l 1,10,-1
 606.878 942 l 1,11,-1
 447.292 121 l 1,12,-1
 652.292 121 l 1,13,-1
 628.772 0 l 1,14,-1
 -81.2275 0 l 1,15,-1
 -57.708 121 l 1,16,-1
 93.292 121 l 1,17,-1
 252.878 942 l 1,18,-1
 94.8779 942 l 1,19,-1
 118.398 1063 l 1,20,-1
 276.398 1063 l 1,21,-1
 302.251 1196 l 2,22,23
 336.656 1373 336.656 1373 467.442 1464.5 c 128,-1,24
 598.228 1556 598.228 1556 817.228 1556 c 0,25,26
 902.228 1556 902.228 1556 981.381 1546.5 c 128,-1,27
 1060.53 1537 1060.53 1537 1134.84 1518 c 1,28,-1
 1090.52 1290 l 1,0,-1
EndSplineSet
KernsSLIF: 8217 151 0 0 8221 151 0 0 8220 65 0 0 46 -73 0 0 45 -73 0 0 44 -45 0 0
EndChar
StartChar: g
Encoding: 103 103 74
Width: 1432
Flags: W
HStem: -455 113<429 479> -29 156<501.453 640.776> 936 156<719.354 798.03> 942 121<1023 1505>
Fore
1354.2 942 m 1,0,-1
 1173.81 14 l 2,1,2
 1130.27 -210 1130.27 -210 946.958 -332.5 c 128,-1,3
 763.646 -455 763.646 -455 472.646 -455 c 0,4,5
 366.646 -455 366.646 -455 260.854 -438.5 c 128,-1,6
 155.062 -422 155.062 -422 46.4756 -389 c 1,7,-1
 95.8486 -135 l 1,8,-1
 208.849 -135 l 1,9,10
 203.438 -240 203.438 -240 263.025 -291 c 128,-1,11
 322.611 -342 322.611 -342 451.611 -342 c 0,12,13
 615.611 -342 615.611 -342 698.371 -263.5 c 128,-1,14
 781.13 -185 781.13 -185 819.812 14 c 2,15,-1
 843.331 135 l 1,16,17
 782.197 52 782.197 52 697.825 11.5 c 128,-1,18
 613.453 -29 613.453 -29 501.453 -29 c 0,19,20
 275.453 -29 275.453 -29 175.11 121 c 128,-1,21
 74.7666 271 74.7666 271 125.5 532 c 0,22,23
 176.428 794 176.428 794 334.891 943 c 128,-1,24
 493.354 1092 493.354 1092 719.354 1092 c 0,25,26
 831.354 1092 831.354 1092 899.98 1051.5 c 128,-1,27
 968.608 1011 968.608 1011 997.475 928 c 1,28,-1
 1023.72 1063 l 1,29,-1
 1528.72 1063 l 1,30,-1
 1505.2 942 l 1,31,-1
 1354.2 942 l 1,0,-1
930.608 584 m 2,32,33
 966.763 770 966.763 770 934.896 853 c 128,-1,34
 903.03 936 903.03 936 798.03 936 c 0,35,36
 688.03 936 688.03 936 626.521 848.5 c 128,-1,37
 565.014 761 565.014 761 520.5 532 c 0,38,39
 475.987 303 475.987 303 503.882 215 c 128,-1,40
 531.776 127 531.776 127 640.776 127 c 0,41,42
 745.776 127 745.776 127 809.91 210 c 128,-1,43
 874.043 293 874.043 293 910.198 479 c 2,44,-1
 930.608 584 l 2,32,33
EndSplineSet
EndChar
StartChar: h
Encoding: 104 104 75
Width: 1489
Flags: W
HStem: 0 121<-59 553 678 1290> 926 166<810.769 989.035> 1436 120<213 348>
Fore
-81.2275 0 m 1,0,-1
 -57.708 121 l 1,1,-1
 93.292 121 l 1,2,-1
 348.902 1436 l 1,3,-1
 190.902 1436 l 1,4,-1
 214.228 1556 l 1,5,-1
 726.228 1556 l 1,6,-1
 601.241 913 l 1,7,8
 683.707 1008 683.707 1008 773.871 1050 c 128,-1,9
 864.035 1092 864.035 1092 989.035 1092 c 0,10,11
 1168.04 1092 1168.04 1092 1239.03 986.5 c 128,-1,12
 1310.02 881 1310.02 881 1270.17 676 c 2,13,-1
 1162.29 121 l 1,14,-1
 1314.29 121 l 1,15,-1
 1290.77 0 l 1,16,-1
 655.772 0 l 1,17,-1
 679.292 121 l 1,18,-1
 808.292 121 l 1,19,-1
 918.117 686 l 2,20,21
 944.358 821 944.358 821 920.063 873.5 c 128,-1,22
 895.769 926 895.769 926 810.769 926 c 0,23,24
 703.769 926 703.769 926 638.51 847.5 c 128,-1,25
 573.251 769 573.251 769 540.012 598 c 2,26,-1
 447.292 121 l 1,27,-1
 577.292 121 l 1,28,-1
 553.772 0 l 1,29,-1
 -81.2275 0 l 1,0,-1
EndSplineSet
EndChar
StartChar: i
Encoding: 105 105 76
Width: 778
Flags: W
HStem: 0 121<-59 575> 942 121<124 252> 1174 382<457.975 532.228>
Fore
301.907 1364 m 0,0,1
 317.651 1445 317.651 1445 384.439 1500.5 c 128,-1,2
 451.228 1556 451.228 1556 532.228 1556 c 0,3,4
 611.228 1556 611.228 1556 655.939 1500.5 c 128,-1,5
 700.651 1445 700.651 1445 684.907 1364 c 0,6,7
 669.551 1285 669.551 1285 603.263 1229.5 c 128,-1,8
 536.975 1174 536.975 1174 457.975 1174 c 0,9,10
 376.975 1174 376.975 1174 331.665 1229 c 128,-1,11
 286.356 1284 286.356 1284 301.907 1364 c 0,0,1
447.292 121 m 1,12,-1
 599.292 121 l 1,13,-1
 575.772 0 l 1,14,-1
 -81.2275 0 l 1,15,-1
 -57.708 121 l 1,16,-1
 93.292 121 l 1,17,-1
 252.878 942 l 1,18,-1
 101.878 942 l 1,19,-1
 125.398 1063 l 1,20,-1
 630.398 1063 l 1,21,-1
 447.292 121 l 1,12,-1
EndSplineSet
EndChar
StartChar: j
Encoding: 106 106 77
Width: 741
Flags: W
HStem: -455 113<-101 -67> 942 121<166 295> 1174 382<492.196 566.449>
Fore
336.128 1364 m 0,0,1
 351.873 1445 351.873 1445 418.161 1500.5 c 128,-1,2
 484.449 1556 484.449 1556 566.449 1556 c 0,3,4
 644.449 1556 644.449 1556 689.564 1500 c 128,-1,5
 734.679 1444 734.679 1444 719.128 1364 c 0,6,7
 703.772 1285 703.772 1285 637.484 1229.5 c 128,-1,8
 571.196 1174 571.196 1174 492.196 1174 c 0,9,10
 411.196 1174 411.196 1174 365.887 1229 c 128,-1,11
 320.578 1284 320.578 1284 336.128 1364 c 0,0,1
295.1 942 m 1,12,-1
 144.1 942 l 1,13,-1
 167.62 1063 l 1,14,-1
 672.62 1063 l 1,15,-1
 441.696 -125 l 2,16,17
 410.012 -288 410.012 -288 278.281 -371.5 c 128,-1,18
 146.551 -455 146.551 -455 -78.4492 -455 c 0,19,20
 -138.449 -455 -138.449 -455 -204.506 -445 c 128,-1,21
 -270.562 -435 -270.562 -435 -339.868 -416 c 1,22,-1
 -295.938 -190 l 1,23,-1
 -183.133 -191 l 1,24,25
 -196.684 -271 -196.684 -271 -174.084 -306.5 c 128,-1,26
 -151.484 -342 -151.484 -342 -85.4844 -342 c 0,27,28
 -12.4844 -342 -12.4844 -342 25.6514 -295 c 128,-1,29
 63.7871 -248 63.7871 -248 87.6963 -125 c 2,30,-1
 295.1 942 l 1,12,-1
EndSplineSet
EndChar
StartChar: k
Encoding: 107 107 78
Width: 1419
Flags: W
HStem: 0 121<-59 557 715 1302> 942 121<931 1035 932 1393> 1436 120<220 348>
Fore
557.772 0 m 1,0,-1
 -81.2275 0 l 1,1,-1
 -57.708 121 l 1,2,-1
 93.292 121 l 1,3,-1
 348.902 1436 l 1,4,-1
 197.902 1436 l 1,5,-1
 221.228 1556 l 1,6,-1
 726.228 1556 l 1,7,-1
 532.042 557 l 1,8,-1
 1035.88 942 l 1,9,-1
 908.878 942 l 1,10,-1
 932.398 1063 l 1,11,-1
 1417.4 1063 l 1,12,-1
 1393.88 942 l 1,13,-1
 1196.88 942 l 1,14,-1
 875.061 696 l 1,15,-1
 1211.29 121 l 1,16,-1
 1326.29 121 l 1,17,-1
 1302.77 0 l 1,18,-1
 692.772 0 l 1,19,-1
 716.292 121 l 1,20,-1
 841.292 121 l 1,21,-1
 619.962 500 l 1,22,-1
 503.856 412 l 1,23,-1
 447.292 121 l 1,24,-1
 581.292 121 l 1,25,-1
 557.772 0 l 1,0,-1
EndSplineSet
KernsSLIF: 45 -83 0 0
EndChar
StartChar: l
Encoding: 108 108 79
Width: 778
Flags: W
HStem: 0 121<-59 575> 1436 120<220 348>
Fore
447.292 121 m 1,0,-1
 599.292 121 l 1,1,-1
 575.772 0 l 1,2,-1
 -81.2275 0 l 1,3,-1
 -57.708 121 l 1,4,-1
 93.292 121 l 1,5,-1
 348.902 1436 l 1,6,-1
 197.902 1436 l 1,7,-1
 221.228 1556 l 1,8,-1
 726.228 1556 l 1,9,-1
 447.292 121 l 1,0,-1
EndSplineSet
EndChar
StartChar: m
Encoding: 109 109 80
Width: 2167
Flags: W
HStem: 0 121<-14 595 707 1292 1403 2013> 942 121<169 297> 1072 20G<958.132 1078.13 1652.63 1801.63>
Fore
1309.67 889 m 1,0,1
 1404.28 995 1404.28 995 1499.7 1043.5 c 128,-1,2
 1595.13 1092 1595.13 1092 1710.13 1092 c 0,3,4
 1893.13 1092 1893.13 1092 1963.51 988.5 c 128,-1,5
 2033.89 885 2033.89 885 1993.27 676 c 2,6,-1
 1885.39 121 l 1,7,-1
 2037.39 121 l 1,8,-1
 2013.87 0 l 1,9,-1
 1380.87 0 l 1,10,-1
 1404.39 121 l 1,11,-1
 1531.39 121 l 1,12,-1
 1628.97 623 l 2,13,14
 1667.65 822 1667.65 822 1647.26 874 c 128,-1,15
 1626.86 926 1626.86 926 1543.86 926 c 0,16,17
 1449.86 926 1449.86 926 1383.77 853.5 c 128,-1,18
 1317.68 781 1317.68 781 1291.63 647 c 2,19,-1
 1189.39 121 l 1,20,-1
 1316.39 121 l 1,21,-1
 1292.87 0 l 1,22,-1
 684.868 0 l 1,23,-1
 708.389 121 l 1,24,-1
 835.389 121 l 1,25,-1
 932.967 623 l 2,26,27
 971.649 822 971.649 822 950.757 874 c 128,-1,28
 929.864 926 929.864 926 847.864 926 c 0,29,30
 752.864 926 752.864 926 686.771 853.5 c 128,-1,31
 620.68 781 620.68 781 594.633 647 c 2,32,-1
 492.389 121 l 1,33,-1
 619.389 121 l 1,34,-1
 595.868 0 l 1,35,-1
 -36.1318 0 l 1,36,-1
 -12.6113 121 l 1,37,-1
 138.389 121 l 1,38,-1
 297.975 942 l 1,39,-1
 146.975 942 l 1,40,-1
 170.494 1063 l 1,41,-1
 675.494 1063 l 1,42,-1
 646.338 913 l 1,43,44
 726.415 1006 726.415 1006 814.773 1049 c 128,-1,45
 903.132 1092 903.132 1092 1013.13 1092 c 0,46,47
 1143.13 1092 1143.13 1092 1214.51 1042.5 c 128,-1,48
 1285.89 993 1285.89 993 1309.67 889 c 1,0,1
EndSplineSet
EndChar
StartChar: n
Encoding: 110 110 81
Width: 1489
Flags: W
HStem: 0 121<-14 598 723 1335> 942 121<169 297> 1072 20G<971.632 1123.63>
Fore
-36.1318 0 m 1,0,-1
 -12.6113 121 l 1,1,-1
 138.389 121 l 1,2,-1
 297.975 942 l 1,3,-1
 146.975 942 l 1,4,-1
 170.494 1063 l 1,5,-1
 675.494 1063 l 1,6,-1
 646.338 913 l 1,7,8
 728.804 1008 728.804 1008 818.968 1050 c 128,-1,9
 909.132 1092 909.132 1092 1034.13 1092 c 0,10,11
 1213.13 1092 1213.13 1092 1284.12 986.5 c 128,-1,12
 1355.12 881 1355.12 881 1315.27 676 c 2,13,-1
 1207.39 121 l 1,14,-1
 1359.39 121 l 1,15,-1
 1335.87 0 l 1,16,-1
 700.868 0 l 1,17,-1
 724.389 121 l 1,18,-1
 853.389 121 l 1,19,-1
 963.213 686 l 2,20,21
 989.455 821 989.455 821 965.159 873.5 c 128,-1,22
 940.864 926 940.864 926 855.864 926 c 0,23,24
 748.864 926 748.864 926 683.605 847.5 c 128,-1,25
 618.347 769 618.347 769 585.107 598 c 2,26,-1
 492.389 121 l 1,27,-1
 622.389 121 l 1,28,-1
 598.868 0 l 1,29,-1
 -36.1318 0 l 1,0,-1
EndSplineSet
EndChar
StartChar: o
Encoding: 111 111 82
Width: 1366
Flags: W
HStem: -29 113<574 614> 979 113<756 794>
Fore
597.015 84 m 0,0,1
 709.015 84 709.015 84 773.176 180 c 0,2,3
 837.336 276 837.336 276 887.098 532 c 0,4,5
 936.858 788 936.858 788 910.422 883.5 c 0,6,7
 883.985 979 883.985 979 770.985 979 c 128,-1,8
 657.985 979 657.985 979 593.228 882.5 c 0,9,10
 528.47 786 528.47 786 479.098 532 c 0,11,12
 429.725 278 429.725 278 456.87 181 c 0,13,14
 484.015 84 484.015 84 597.015 84 c 0,0,1
575.05 -29 m 0,15,16
 294.05 -29 294.05 -29 163.609 120.5 c 0,17,18
 33.1699 270 33.1699 270 84.0977 532 c 0,19,20
 135.219 795 135.219 795 323.585 943.5 c 0,21,22
 511.95 1092 511.95 1092 792.95 1092 c 0,23,24
 1074.95 1092 1074.95 1092 1205.08 943.5 c 0,25,26
 1335.22 795 1335.22 795 1284.1 532 c 0,27,28
 1233.17 270 1233.17 270 1044.61 120.5 c 0,29,30
 856.05 -29 856.05 -29 575.05 -29 c 0,15,16
EndSplineSet
KernsSLIF: 46 -36 0 0
EndChar
StartChar: p
Encoding: 112 112 83
Width: 1432
Flags: W
HStem: -426 121<-79 569> -29 156<713.958 791.635> 942 121<187 317> 1072 20G<953.534 1123.03>
Fore
601.789 584 m 2,0,-1
 581.38 479 l 2,1,2
 545.225 293 545.225 293 576.591 210 c 128,-1,3
 607.958 127 607.958 127 713.958 127 c 0,4,5
 822.958 127 822.958 127 884.563 215 c 128,-1,6
 946.169 303 946.169 303 990.682 532 c 0,7,8
 1035.19 761 1035.19 761 1007.7 848.5 c 128,-1,9
 980.211 936 980.211 936 871.211 936 c 0,10,11
 765.211 936 765.211 936 701.578 853 c 128,-1,12
 637.944 770 637.944 770 601.789 584 c 2,0,-1
317.378 942 m 1,13,-1
 165.378 942 l 1,14,-1
 188.897 1063 l 1,15,-1
 694.897 1063 l 1,16,-1
 668.656 928 l 1,17,18
 729.79 1011 729.79 1011 813.662 1051.5 c 128,-1,19
 897.535 1092 897.535 1092 1009.53 1092 c 0,20,21
 1236.53 1092 1236.53 1092 1337.97 942.5 c 128,-1,22
 1439.42 793 1439.42 793 1388.68 532 c 0,23,24
 1337.95 271 1337.95 271 1178.29 121 c 128,-1,25
 1018.63 -29 1018.63 -29 791.635 -29 c 0,26,27
 679.635 -29 679.635 -29 611.507 11.5 c 128,-1,28
 543.379 52 543.379 52 514.513 135 c 1,29,-1
 428.985 -305 l 1,30,-1
 592.985 -305 l 1,31,-1
 569.466 -426 l 1,32,-1
 -100.534 -426 l 1,33,-1
 -77.0146 -305 l 1,34,-1
 74.9854 -305 l 1,35,-1
 317.378 942 l 1,13,-1
EndSplineSet
EndChar
StartChar: q
Encoding: 113 113 84
Width: 1432
Flags: W
HStem: -426 121<589 1236> -29 156<498.635 637.958> 936 156<716.534 795.211> 942 121<1020 1502>
Fore
1351.38 942 m 1,0,-1
 1108.99 -305 l 1,1,-1
 1259.99 -305 l 1,2,-1
 1236.47 -426 l 1,3,-1
 567.466 -426 l 1,4,-1
 590.985 -305 l 1,5,-1
 754.985 -305 l 1,6,-1
 840.513 135 l 1,7,8
 779.379 52 779.379 52 695.007 11.5 c 128,-1,9
 610.635 -29 610.635 -29 498.635 -29 c 0,10,11
 272.635 -29 272.635 -29 172.291 121 c 128,-1,12
 71.9482 271 71.9482 271 122.682 532 c 0,13,14
 173.609 794 173.609 794 332.072 943 c 128,-1,15
 490.535 1092 490.535 1092 716.534 1092 c 0,16,17
 828.535 1092 828.535 1092 897.162 1051.5 c 128,-1,18
 965.79 1011 965.79 1011 994.656 928 c 1,19,-1
 1020.9 1063 l 1,20,-1
 1525.9 1063 l 1,21,-1
 1502.38 942 l 1,22,-1
 1351.38 942 l 1,0,-1
927.789 584 m 2,23,24
 963.944 770 963.944 770 932.078 853 c 128,-1,25
 900.211 936 900.211 936 795.211 936 c 0,26,27
 685.211 936 685.211 936 623.703 848.5 c 128,-1,28
 562.194 761 562.194 761 517.682 532 c 0,29,30
 473.169 303 473.169 303 501.063 215 c 128,-1,31
 528.958 127 528.958 127 637.958 127 c 0,32,33
 742.958 127 742.958 127 807.091 210 c 128,-1,34
 871.225 293 871.225 293 907.38 479 c 2,35,-1
 927.789 584 l 2,23,24
EndSplineSet
EndChar
StartChar: r
Encoding: 114 114 85
Width: 1079
Flags: W
HStem: 0 121<-14 661> 758 334<1028 1060.23> 942 121<158 297>
Fore
1202.83 1075 m 1,0,-1
 1141.21 758 l 1,1,-1
 1028.21 758 l 1,2,3
 1038.73 843 1038.73 843 1006.8 884.5 c 128,-1,4
 974.864 926 974.864 926 898.864 926 c 0,5,6
 782.864 926 782.864 926 696.038 824 c 128,-1,7
 609.211 722 609.211 722 574.028 541 c 2,8,-1
 492.389 121 l 1,9,-1
 685.389 121 l 1,10,-1
 661.868 0 l 1,11,-1
 -36.1318 0 l 1,12,-1
 -12.6113 121 l 1,13,-1
 138.389 121 l 1,14,-1
 297.975 942 l 1,15,-1
 135.975 942 l 1,16,-1
 159.494 1063 l 1,17,-1
 675.494 1063 l 1,18,-1
 638.757 874 l 1,19,20
 712.333 985 712.333 985 808.232 1038.5 c 128,-1,21
 904.132 1092 904.132 1092 1028.13 1092 c 0,22,23
 1059.13 1092 1059.13 1092 1102.76 1087.5 c 128,-1,24
 1146.38 1083 1146.38 1083 1202.83 1075 c 1,0,-1
EndSplineSet
KernsSLIF: 8217 75 0 0 8216 75 0 0 8221 75 0 0 8220 75 0 0 46 -188 0 0 44 -149 0 0
EndChar
StartChar: s
Encoding: 115 115 86
Width: 1153
Flags: W
HStem: -29 113<397 447> 979 113<684 735>
Fore
-1.28711 31 m 1,0,-1
 56.4434 328 l 1,1,-1
 169.443 328 l 1,2,3
 160.312 209 160.312 209 223.164 146.5 c 128,-1,4
 286.015 84 286.015 84 415.015 84 c 0,5,6
 523.015 84 523.015 84 587.804 121.5 c 128,-1,7
 652.594 159 652.594 159 666.2 229 c 0,8,9
 678.641 293 678.641 293 648.943 328 c 128,-1,10
 619.247 363 619.247 363 519.301 389 c 2,11,-1
 380.493 426 l 2,12,13
 223.463 467 223.463 467 164.333 543.5 c 128,-1,14
 105.203 620 105.203 620 130.472 750 c 0,15,16
 164.1 923 164.1 923 300.525 1007.5 c 128,-1,17
 436.95 1092 436.95 1092 686.95 1092 c 0,18,19
 780.95 1092 780.95 1092 884.438 1076.5 c 128,-1,20
 987.925 1061 987.925 1061 1110.51 1028 c 1,21,-1
 1058.42 760 l 1,22,-1
 945.416 760 l 1,23,24
 957.604 869 957.604 869 899.794 924 c 128,-1,25
 841.985 979 841.985 979 713.985 979 c 0,26,27
 605.985 979 605.985 979 543.779 944.5 c 128,-1,28
 481.573 910 481.573 910 468.744 844 c 0,29,30
 458.247 790 458.247 790 484.222 759 c 128,-1,31
 510.195 728 510.195 728 589.113 707 c 2,32,-1
 726.922 670 l 2,33,34
 925.619 617 925.619 617 990.458 539 c 128,-1,35
 1055.3 461 1055.3 461 1028.28 322 c 0,36,37
 993.289 142 993.289 142 848.169 56.5 c 128,-1,38
 703.05 -29 703.05 -29 432.05 -29 c 0,39,40
 333.05 -29 333.05 -29 224.966 -14 c 128,-1,41
 116.881 1 116.881 1 -1.28711 31 c 1,0,-1
EndSplineSet
EndChar
StartChar: t
Encoding: 116 116 87
Width: 946
Flags: W
HStem: -29 113<439.796 542.761> 942 121<122 253 631 902> 942 451<341 902>
Fore
253.539 942 m 1,0,-1
 99.5391 942 l 1,1,-1
 123.059 1063 l 1,2,-1
 277.059 1063 l 1,3,-1
 341.204 1393 l 1,4,-1
 695.204 1393 l 1,5,-1
 631.059 1063 l 1,6,-1
 926.059 1063 l 1,7,-1
 902.539 942 l 1,8,-1
 607.539 942 l 1,9,-1
 480.997 291 l 2,10,11
 453.979 152 453.979 152 469.369 118 c 128,-1,12
 484.761 84 484.761 84 542.761 84 c 0,13,14
 606.761 84 606.761 84 646.119 127 c 128,-1,15
 685.478 170 685.478 170 704.972 260 c 1,16,-1
 853.972 260 l 1,17,18
 813.871 100 813.871 100 722.833 35.5 c 128,-1,19
 631.796 -29 631.796 -29 439.796 -29 c 0,20,21
 220.796 -29 220.796 -29 156.11 39.5 c 128,-1,22
 91.4258 108 91.4258 108 126.997 291 c 2,23,-1
 253.539 942 l 1,0,-1
EndSplineSet
EndChar
StartChar: u
Encoding: 117 117 88
Width: 1489
Flags: W
HStem: -29 21G<365.368 517.368> 0 121<1191 1318> 942 121<152 281 889 995>
Fore
1374.13 1063 m 1,0,-1
 1191.03 121 l 1,1,-1
 1342.03 121 l 1,2,-1
 1318.51 0 l 1,3,-1
 812.506 0 l 1,4,-1
 841.662 150 l 1,5,6
 760.196 55 760.196 55 670.032 13 c 128,-1,7
 579.868 -29 579.868 -29 454.868 -29 c 0,8,9
 275.868 -29 275.868 -29 204.875 76.5 c 128,-1,10
 133.883 182 133.883 182 173.73 387 c 2,11,-1
 281.611 942 l 1,12,-1
 129.611 942 l 1,13,-1
 153.132 1063 l 1,14,-1
 659.132 1063 l 1,15,-1
 538.422 442 l 2,16,17
 499.935 244 499.935 244 522.535 190.5 c 128,-1,18
 545.136 137 545.136 137 633.136 137 c 0,19,20
 740.136 137 740.136 137 804.991 216 c 128,-1,21
 869.848 295 869.848 295 903.281 467 c 2,22,-1
 995.611 942 l 1,23,-1
 866.611 942 l 1,24,-1
 890.132 1063 l 1,25,-1
 1374.13 1063 l 1,0,-1
EndSplineSet
EndChar
StartChar: v
Encoding: 118 118 89
Width: 1190
Flags: W
HStem: 0 21G<353.687 637.687> 942 121<65 159 66 652 944 1060 945 1320>
Fore
353.687 0 m 1,0,-1
 159.793 942 l 1,1,-1
 42.793 942 l 1,2,-1
 66.3135 1063 l 1,3,-1
 676.313 1063 l 1,4,-1
 652.793 942 l 1,5,-1
 523.793 942 l 1,6,-1
 662.17 270 l 1,7,-1
 1060.79 942 l 1,8,-1
 921.793 942 l 1,9,-1
 945.313 1063 l 1,10,-1
 1344.31 1063 l 1,11,-1
 1320.79 942 l 1,12,-1
 1197.79 942 l 1,13,-1
 637.687 0 l 1,14,-1
 353.687 0 l 1,0,-1
EndSplineSet
KernsSLIF: 8217 75 0 0 8216 75 0 0 8221 75 0 0 8220 75 0 0 46 -206 0 0 44 -167 0 0
EndChar
StartChar: w
Encoding: 119 119 90
Width: 1763
Flags: W
HStem: 0 21G<316.687 558.687 1010.69 1254.69> 942 121<84 177 85 663 1509 1625 1510 1883>
Fore
1207.31 1063 m 1,0,-1
 1311.5 354 l 1,1,-1
 1625.79 942 l 1,2,-1
 1486.79 942 l 1,3,-1
 1510.31 1063 l 1,4,-1
 1907.31 1063 l 1,5,-1
 1883.79 942 l 1,6,-1
 1758.79 942 l 1,7,-1
 1254.69 0 l 1,8,-1
 1010.69 0 l 1,9,-1
 915.145 666 l 1,10,-1
 558.687 0 l 1,11,-1
 316.687 0 l 1,12,-1
 177.793 942 l 1,13,-1
 61.793 942 l 1,14,-1
 85.3135 1063 l 1,15,-1
 687.313 1063 l 1,16,-1
 663.793 942 l 1,17,-1
 538.793 942 l 1,18,-1
 623.024 367 l 1,19,-1
 996.313 1063 l 1,20,-1
 1207.31 1063 l 1,0,-1
EndSplineSet
KernsSLIF: 8217 75 0 0 8216 75 0 0 8221 75 0 0 8220 75 0 0 46 -206 0 0 44 -167 0 0
EndChar
StartChar: x
Encoding: 120 120 91
Width: 1221
Flags: W
HStem: 0 121<-81 334 478 1131> 942 121<112 208 113 738 878 986 879 1269>
Fore
747.477 678 m 1,0,-1
 986.793 942 l 1,1,-1
 855.793 942 l 1,2,-1
 879.313 1063 l 1,3,-1
 1293.31 1063 l 1,4,-1
 1269.79 942 l 1,5,-1
 1128.79 942 l 1,6,-1
 784.123 563 l 1,7,-1
 1014.21 121 l 1,8,-1
 1155.21 121 l 1,9,-1
 1131.69 0 l 1,10,-1
 455.687 0 l 1,11,-1
 479.207 121 l 1,12,-1
 616.207 121 l 1,13,-1
 470.634 401 l 1,14,-1
 215.207 121 l 1,15,-1
 358.207 121 l 1,16,-1
 334.687 0 l 1,17,-1
 -103.313 0 l 1,18,-1
 -79.793 121 l 1,19,-1
 72.207 121 l 1,20,-1
 431.376 518 l 1,21,-1
 208.793 942 l 1,22,-1
 89.793 942 l 1,23,-1
 113.313 1063 l 1,24,-1
 762.313 1063 l 1,25,-1
 738.793 942 l 1,26,-1
 609.793 942 l 1,27,-1
 747.477 678 l 1,0,-1
EndSplineSet
KernsSLIF: 45 -36 0 0
EndChar
StartChar: y
Encoding: 121 121 92
Width: 1190
Flags: W
HStem: -455 113<192 224> 942 121<119 212 120 710 986 1105 987 1363>
Fore
533.257 -240 m 1,0,1
 462.515 -357 462.515 -357 384.99 -406 c 128,-1,2
 307.465 -455 307.465 -455 192.466 -455 c 0,3,4
 143.466 -455 143.466 -455 85.6035 -444 c 128,-1,5
 27.7422 -433 27.7422 -433 -39.1768 -412 c 1,6,-1
 3.97656 -190 l 1,7,-1
 116.782 -191 l 1,8,9
 104.814 -268 104.814 -268 131.122 -305 c 128,-1,10
 157.431 -342 157.431 -342 224.431 -342 c 0,11,12
 289.431 -342 289.431 -342 336.331 -306.5 c 128,-1,13
 383.231 -271 383.231 -271 442.475 -172 c 1,14,-1
 465.667 -135 l 1,15,-1
 212.015 942 l 1,16,-1
 97.0146 942 l 1,17,-1
 120.534 1063 l 1,18,-1
 733.534 1063 l 1,19,-1
 710.015 942 l 1,20,-1
 583.015 942 l 1,21,-1
 730.749 313 l 1,22,-1
 1105.01 942 l 1,23,-1
 964.015 942 l 1,24,-1
 987.534 1063 l 1,25,-1
 1386.53 1063 l 1,26,-1
 1363.01 942 l 1,27,-1
 1234.01 942 l 1,28,-1
 533.257 -240 l 1,0,1
EndSplineSet
KernsSLIF: 8217 75 0 0 8216 75 0 0 8221 75 0 0 8220 75 0 0 46 -235 0 0 44 -196 0 0
EndChar
StartChar: z
Encoding: 122 122 93
Width: 1163
Flags: W
HStem: 0 119<402 990> 946 117<207 762>
Fore
-31.3135 0 m 1,0,-1
 -7.79297 121 l 1,1,-1
 762.57 946 l 1,2,-1
 303.57 946 l 1,3,-1
 268.193 764 l 1,4,-1
 149.193 764 l 1,5,-1
 207.313 1063 l 1,6,-1
 1197.31 1063 l 1,7,-1
 1174.18 944 l 1,8,-1
 402.818 119 l 1,9,-1
 894.818 119 l 1,10,-1
 932.139 311 l 1,11,-1
 1051.14 311 l 1,12,-1
 990.687 0 l 1,13,-1
 -31.3135 0 l 1,0,-1
EndSplineSet
EndChar
StartChar: braceleft
Encoding: 123 123 94
Width: 1317
Flags: W
HStem: -334 121<843 949> 1436 120<1166 1293>
Fore
972.831 -213 m 1,0,-1
 949.311 -334 l 1,1,-1
 801.311 -334 l 2,2,3
 565.311 -334 565.311 -334 488.073 -309.5 c 128,-1,4
 410.835 -285 410.835 -285 372.887 -223 c 0,5,6
 350.885 -187 350.885 -187 349.075 -132 c 128,-1,7
 347.267 -77 347.267 -77 369.037 35 c 2,8,-1
 417.632 285 l 2,9,10
 446.983 436 446.983 436 404.66 493.5 c 128,-1,11
 362.337 551 362.337 551 221.337 551 c 2,12,-1
 160.337 551 l 1,13,-1
 183.857 672 l 1,14,-1
 244.857 672 l 2,15,16
 385.857 672 385.857 672 450.534 729.5 c 128,-1,17
 515.211 787 515.211 787 544.562 938 c 2,18,-1
 593.157 1188 l 2,19,20
 614.928 1300 614.928 1300 638.021 1354.5 c 128,-1,21
 661.115 1409 661.115 1409 697.308 1446 c 0,22,23
 759.165 1507 759.165 1507 845.927 1531.5 c 128,-1,24
 932.689 1556 932.689 1556 1168.69 1556 c 2,25,-1
 1316.69 1556 l 1,26,-1
 1293.36 1436 l 1,27,-1
 1190.36 1436 l 2,28,29
 1078.36 1436 1078.36 1436 1028.23 1389 c 128,-1,30
 978.092 1342 978.092 1342 951.656 1206 c 2,31,-1
 899.174 936 l 2,32,33
 868.268 777 868.268 777 805.646 709.5 c 128,-1,34
 743.025 642 743.025 642 608.194 612 c 1,35,36
 732.585 578 732.585 578 768.256 512 c 128,-1,37
 803.928 446 803.928 446 773.021 287 c 2,38,-1
 720.344 16 l 2,39,40
 694.103 -119 694.103 -119 725.967 -166 c 128,-1,41
 757.831 -213 757.831 -213 869.831 -213 c 2,42,-1
 972.831 -213 l 1,0,-1
EndSplineSet
EndChar
StartChar: bar
Encoding: 124 124 95
Width: 745
Flags: W
Fore
678.046 1565 m 1,0,-1
 279.954 -483 l 1,1,-1
 64.9541 -483 l 1,2,-1
 463.046 1565 l 1,3,-1
 678.046 1565 l 1,0,-1
EndSplineSet
EndChar
StartChar: braceright
Encoding: 125 125 96
Width: 1317
Flags: W
HStem: -334 121<24 150> 551 121<1069 1133> 1536 20G<369.689 515.689>
Fore
25.8311 -213 m 1,0,-1
 126.831 -213 l 2,1,2
 237.831 -213 237.831 -213 288.467 -166 c 128,-1,3
 339.103 -119 339.103 -119 365.344 16 c 2,4,-1
 418.021 287 l 2,5,6
 448.538 444 448.538 444 510.562 511 c 128,-1,7
 572.585 578 572.585 578 711.194 612 c 1,8,9
 587.025 642 587.025 642 550.243 710 c 128,-1,10
 513.462 778 513.462 778 544.174 936 c 2,11,-1
 596.656 1206 l 2,12,13
 623.092 1342 623.092 1342 590.728 1389 c 128,-1,14
 558.363 1436 558.363 1436 447.363 1436 c 2,15,-1
 346.363 1436 l 1,16,-1
 369.689 1556 l 1,17,-1
 515.689 1556 l 2,18,19
 751.689 1556 751.689 1556 828.927 1531.5 c 128,-1,20
 906.165 1507 906.165 1507 944.308 1446 c 0,21,22
 966.115 1409 966.115 1409 968.021 1354.5 c 128,-1,23
 969.928 1300 969.928 1300 948.157 1188 c 2,24,-1
 899.562 938 l 2,25,26
 870.211 787 870.211 787 912.534 729.5 c 128,-1,27
 954.857 672 954.857 672 1094.86 672 c 2,28,-1
 1156.86 672 l 1,29,-1
 1133.34 551 l 1,30,-1
 1071.34 551 l 2,31,32
 931.337 551 931.337 551 866.66 493.5 c 128,-1,33
 801.983 436 801.983 436 772.632 285 c 2,34,-1
 724.037 35 l 2,35,36
 702.267 -77 702.267 -77 679.075 -132 c 128,-1,37
 655.885 -187 655.885 -187 619.887 -223 c 0,38,39
 557.835 -285 557.835 -285 471.073 -309.5 c 128,-1,40
 384.311 -334 384.311 -334 148.311 -334 c 2,41,-1
 2.31055 -334 l 1,42,-1
 25.8311 -213 l 1,0,-1
EndSplineSet
EndChar
StartChar: asciitilde
Encoding: 126 126 97
Width: 1716
Flags: W
Fore
1535.74 831 m 1,0,-1
 1495.7 625 l 1,1,2
 1385.98 539 1385.98 539 1284.51 498 c 128,-1,3
 1183.04 457 1183.04 457 1082.04 457 c 0,4,5
 987.04 457 987.04 457 846.313 515 c 0,6,7
 830.48 521 830.48 521 823.063 524 c 0,8,9
 816.646 527 816.646 527 804.618 532 c 0,10,11
 645.447 598 645.447 598 548.447 598 c 0,12,13
 471.447 598 471.447 598 380.949 562 c 128,-1,14
 290.452 526 290.452 526 180.262 453 c 1,15,-1
 220.305 659 l 1,16,17
 333.216 746 333.216 746 433.588 786.5 c 128,-1,18
 533.96 827 533.96 827 633.96 827 c 0,19,20
 728.96 827 728.96 827 868.881 770 c 0,21,22
 885.52 763 885.52 763 892.937 760 c 2,23,-1
 906.771 754 l 2,24,25
 1066.55 686 1066.55 686 1167.55 686 c 0,26,27
 1244.55 686 1244.55 686 1335.05 722 c 128,-1,28
 1425.55 758 1425.55 758 1535.74 831 c 1,0,-1
EndSplineSet
EndChar
StartChar: exclamdown
Encoding: 161 161 163
Width: 899
Flags: W
HStem: 0 21G<114.271 489.271> 1141 379<523.059 596.729>
Fore
749.603 1329 m 0,0,1
 734.44 1251 734.44 1251 667.75 1196 c 128,-1,2
 601.059 1141 601.059 1141 523.059 1141 c 0,3,4
 444.059 1141 444.059 1141 399.75 1196 c 128,-1,5
 355.44 1251 355.44 1251 370.603 1329 c 0,6,7
 385.958 1408 385.958 1408 452.344 1464 c 128,-1,8
 518.729 1520 518.729 1520 596.729 1520 c 0,9,10
 674.729 1520 674.729 1520 719.746 1463.5 c 128,-1,11
 764.764 1407 764.764 1407 749.603 1329 c 0,0,1
489.271 0 m 1,12,-1
 114.271 0 l 1,13,-1
 394.939 842 l 1,14,-1
 431.871 1032 l 1,15,-1
 570.871 1032 l 1,16,-1
 533.939 842 l 1,17,-1
 489.271 0 l 1,12,-1
EndSplineSet
EndChar
StartChar: cent
Encoding: 162 162 132
Width: 1425
Flags: W
Fore
654.542 94 m 1,0,-1
 824.625 969 l 1,1,2
 720.765 944 720.765 944 657.729 843.5 c 128,-1,3
 594.694 743 594.694 743 553.681 532 c 0,4,5
 512.666 321 512.666 321 536.229 221 c 128,-1,6
 559.79 121 559.79 121 654.542 94 c 1,0,-1
1194.8 332 m 1,7,8
 1132.29 175 1132.29 175 1020.39 85.5 c 128,-1,9
 908.492 -4 908.492 -4 752.799 -23 c 1,10,-1
 699.15 -299 l 1,11,-1
 578.15 -299 l 1,12,-1
 630.633 -29 l 1,13,14
 354.799 -23 354.799 -23 232.276 123.5 c 128,-1,15
 109.753 270 109.753 270 160.681 532 c 0,16,17
 211.608 794 211.608 794 390.891 939.5 c 128,-1,18
 570.173 1085 570.173 1085 848.533 1092 c 1,19,-1
 899.85 1356 l 1,20,-1
 1020.85 1356 l 1,21,-1
 968.562 1087 l 1,22,23
 1026.78 1083 1026.78 1083 1103.59 1064 c 128,-1,24
 1180.4 1045 1180.4 1045 1291.21 1008 c 1,25,-1
 1233.86 713 l 1,26,-1
 1120.86 713 l 1,27,28
 1130.36 839 1130.36 839 1087.89 903.5 c 128,-1,29
 1045.43 968 1045.43 968 947.568 979 c 1,30,-1
 774.375 88 l 1,31,32
 868.485 104 868.485 104 932.343 165 c 128,-1,33
 996.2 226 996.2 226 1028.8 332 c 1,34,-1
 1194.8 332 l 1,7,8
EndSplineSet
EndChar
StartChar: sterling
Encoding: 163 163 133
Width: 1425
Flags: W
HStem: 0 121<21 1128> 0 137<597 1128> 694 121<156 327 729 1058> 1407 113<1028 1072>
Fore
1332.92 1202 m 1,0,-1
 1212.92 1202 l 1,1,2
 1225.77 1299 1225.77 1299 1186.77 1353 c 128,-1,3
 1147.76 1407 1147.76 1407 1063.76 1407 c 0,4,5
 946.764 1407 946.764 1407 881.283 1332.5 c 128,-1,6
 815.802 1258 815.802 1258 781.785 1083 c 2,7,-1
 729.691 815 l 1,8,-1
 1081.69 815 l 1,9,-1
 1058.17 694 l 1,10,-1
 706.171 694 l 1,11,-1
 597.901 137 l 1,12,-1
 1017.9 137 l 1,13,-1
 1062.22 365 l 1,14,-1
 1199.22 365 l 1,15,-1
 1128.27 0 l 1,16,-1
 -0.729492 0 l 1,17,-1
 22.791 121 l 1,18,-1
 215.791 121 l 1,19,-1
 327.171 694 l 1,20,-1
 134.171 694 l 1,21,-1
 157.691 815 l 1,22,-1
 350.691 815 l 1,23,-1
 404.534 1092 l 2,24,25
 446.521 1308 446.521 1308 600.625 1414 c 128,-1,26
 754.729 1520 754.729 1520 1028.73 1520 c 0,27,28
 1093.73 1520 1093.73 1520 1182.48 1511 c 128,-1,29
 1271.23 1502 1271.23 1502 1387.93 1485 c 1,30,-1
 1332.92 1202 l 1,0,-1
EndSplineSet
EndChar
StartChar: currency
Encoding: 164 164 189
Width: 1303
Flags: W
HStem: 213 209<569 610.431> 860 209<695 736.194>
Fore
610.431 422 m 0,0,1
 701.431 422 701.431 422 777.773 485.5 c 128,-1,2
 854.117 549 854.117 549 872 641 c 0,3,4
 889.883 733 889.883 733 838.727 796.5 c 128,-1,5
 787.569 860 787.569 860 695.569 860 c 0,6,7
 604.569 860 604.569 860 528.227 796.5 c 128,-1,8
 451.883 733 451.883 733 434 641 c 0,9,10
 415.923 548 415.923 548 466.677 485 c 128,-1,11
 517.431 422 517.431 422 610.431 422 c 0,0,1
363.496 268 m 1,12,-1
 114.26 61 l 1,13,-1
 -6.80566 215 l 1,14,-1
 242.819 424 l 1,15,16
 220.761 470 220.761 470 216.66 523.5 c 128,-1,17
 212.56 577 212.56 577 225 641 c 0,18,19
 237.246 704 237.246 704 262.742 758 c 128,-1,20
 288.239 812 288.239 812 327.181 858 c 1,21,-1
 158.028 1063 l 1,22,-1
 341.74 1221 l 1,23,-1
 507.727 1010 l 1,24,25
 561.558 1040 561.558 1040 618.376 1054.5 c 128,-1,26
 675.194 1069 675.194 1069 736.194 1069 c 0,27,28
 791.194 1069 791.194 1069 842.876 1054.5 c 128,-1,29
 894.558 1040 894.558 1040 945.727 1010 c 1,30,-1
 1191.74 1221 l 1,31,-1
 1313.81 1067 l 1,32,-1
 1064.96 862 l 1,33,34
 1084.07 806 1084.07 806 1087.78 750.5 c 128,-1,35
 1091.5 695 1091.5 695 1081 641 c 0,36,37
 1068.75 578 1068.75 578 1044.05 525.5 c 128,-1,38
 1019.34 473 1019.34 473 980.208 426 c 1,39,-1
 1148.19 215 l 1,40,-1
 962.26 61 l 1,41,-1
 796.273 272 l 1,42,43
 744.442 242 744.442 242 688.624 227.5 c 128,-1,44
 632.806 213 632.806 213 569.806 213 c 0,45,46
 511.806 213 511.806 213 460.526 227 c 128,-1,47
 409.248 241 409.248 241 363.496 268 c 1,12,-1
EndSplineSet
EndChar
StartChar: yen
Encoding: 165 165 150
Width: 1425
Flags: W
HStem: 0 121<203 939> 0 584<81 939> 467 117<80 461 863 1243> 778 117<140 461 1034 1304> 1372 121<183 297 184 854 1070 1198 1071 1483>
Fore
180.896 0 m 1,0,-1
 204.415 121 l 1,1,-1
 394.415 121 l 1,2,-1
 461.671 467 l 1,3,-1
 58.6709 467 l 1,4,-1
 81.4131 584 l 1,5,-1
 484.413 584 l 1,6,-1
 495.882 643 l 1,7,-1
 461.123 778 l 1,8,-1
 119.123 778 l 1,9,-1
 141.865 895 l 1,10,-1
 427.865 895 l 1,11,-1
 297.585 1372 l 1,12,-1
 160.585 1372 l 1,13,-1
 184.104 1493 l 1,14,-1
 878.104 1493 l 1,15,-1
 854.585 1372 l 1,16,-1
 684.585 1372 l 1,17,-1
 835.481 821 l 1,18,-1
 1198.58 1372 l 1,19,-1
 1047.58 1372 l 1,20,-1
 1071.1 1493 l 1,21,-1
 1507.1 1493 l 1,22,-1
 1483.58 1372 l 1,23,-1
 1348.58 1372 l 1,24,-1
 1034.87 895 l 1,25,-1
 1326.87 895 l 1,26,-1
 1304.12 778 l 1,27,-1
 954.123 778 l 1,28,-1
 878.575 662 l 1,29,-1
 863.413 584 l 1,30,-1
 1266.41 584 l 1,31,-1
 1243.67 467 l 1,32,-1
 840.671 467 l 1,33,-1
 773.415 121 l 1,34,-1
 963.415 121 l 1,35,-1
 939.896 0 l 1,36,-1
 180.896 0 l 1,0,-1
EndSplineSet
EndChar
StartChar: brokenbar
Encoding: 166 166 231
Width: 745
Flags: W
Fore
652.192 1432 m 1,0,-1
 504.853 674 l 1,1,-1
 289.853 674 l 1,2,-1
 437.192 1432 l 1,3,-1
 652.192 1432 l 1,0,-1
453.147 408 m 1,4,-1
 305.808 -350 l 1,5,-1
 90.8076 -350 l 1,6,-1
 238.147 408 l 1,7,-1
 453.147 408 l 1,4,-1
EndSplineSet
EndChar
StartChar: section
Encoding: 167 167 134
Width: 1071
Flags: W
HStem: -195 113<316 367> 1407 113<701 735>
Fore
1054.93 1475 m 1,0,-1
 1008.28 1235 l 1,1,-1
 889.283 1235 l 1,2,3
 899.999 1321 899.999 1321 856.357 1364 c 128,-1,4
 812.716 1407 812.716 1407 715.716 1407 c 0,5,6
 634.716 1407 634.716 1407 582.024 1370 c 128,-1,7
 529.332 1333 529.332 1333 516.309 1266 c 0,8,9
 507.173 1219 507.173 1219 527.758 1186 c 128,-1,10
 548.344 1153 548.344 1153 629.208 1106 c 2,11,-1
 750.212 1034 l 1,12,13
 920.163 936 920.163 936 974.335 852 c 128,-1,14
 1028.51 768 1028.51 768 1006.15 653 c 0,15,16
 985.938 549 985.938 549 914.554 475 c 128,-1,17
 843.17 401 843.17 401 720.812 358 c 1,18,19
 794.676 311 794.676 311 820.832 247.5 c 128,-1,20
 846.989 184 846.989 184 829.495 94 c 0,21,22
 802.864 -43 802.864 -43 679.092 -119 c 128,-1,23
 555.319 -195 555.319 -195 355.319 -195 c 0,24,25
 272.319 -195 272.319 -195 184.055 -183.5 c 128,-1,26
 95.79 -172 95.79 -172 -1.93359 -150 c 1,27,-1
 44.7168 90 l 1,28,-1
 162.717 90 l 1,29,30
 153.223 0 153.223 0 197.254 -41 c 128,-1,31
 241.284 -82 241.284 -82 347.284 -82 c 0,32,33
 434.284 -82 434.284 -82 487.976 -45 c 128,-1,34
 541.668 -8 541.668 -8 555.08 61 c 0,35,36
 564.216 108 564.216 108 544.131 141 c 128,-1,37
 524.045 174 524.045 174 442.181 221 c 2,38,-1
 321.177 293 l 2,39,40
 152.42 392 152.42 392 97.748 476 c 128,-1,41
 43.0762 560 43.0762 560 65.2354 674 c 0,42,43
 85.2568 777 85.2568 777 156.946 850 c 128,-1,44
 228.636 923 228.636 923 352.188 967 c 1,45,46
 278.13 1013 278.13 1013 251.168 1077.5 c 128,-1,47
 224.205 1142 224.205 1142 241.505 1231 c 0,48,49
 267.941 1367 267.941 1367 391.811 1443.5 c 128,-1,50
 515.681 1520 515.681 1520 711.681 1520 c 0,51,52
 785.681 1520 785.681 1520 870.445 1508.5 c 128,-1,53
 955.21 1497 955.21 1497 1054.93 1475 c 1,0,-1
441.359 901 m 1,54,55
 390.945 868 390.945 868 360.364 829 c 128,-1,56
 329.783 790 329.783 790 321.036 745 c 0,57,58
 309.179 684 309.179 684 344.766 633 c 128,-1,59
 380.353 582 380.353 582 479.078 524 c 2,60,-1
 629.973 436 l 1,61,62
 681.776 471 681.776 471 712.954 510.5 c 128,-1,63
 744.132 550 744.132 550 752.296 592 c 0,64,65
 763.959 652 763.959 652 727.372 703 c 128,-1,66
 690.786 754 690.786 754 590.254 813 c 2,67,-1
 441.359 901 l 1,54,55
EndSplineSet
EndChar
StartChar: dieresis
Encoding: 168 168 142
Width: 1024
Flags: HW
Fore
335 1468 m 0,0,1
 347 1528 347 1528 399 1571 c 128,-1,2
 451 1614 451 1614 511 1614 c 128,-1,3
 571 1614 571 1614 606 1571 c 0,4,5
 640 1528 640 1528 628 1468 c 128,-1,6
 616 1408 616 1408 565 1364 c 0,7,8
 514 1321 514 1321 455 1321 c 0,9,10
 395 1321 395 1321 359 1365 c 0,11,12
 324 1409 324 1409 335 1468 c 0,0,1
782 1468 m 0,13,14
 794 1528 794 1528 846 1571 c 0,15,16
 897 1614 897 1614 957 1614 c 128,-1,17
 1017 1614 1017 1614 1053 1571 c 128,-1,18
 1089 1528 1089 1528 1077 1468 c 0,19,20
 1066 1409 1066 1409 1013 1365 c 0,21,22
 961 1321 961 1321 901 1321 c 128,-1,23
 841 1321 841 1321 806 1365 c 128,-1,24
 771 1409 771 1409 782 1468 c 0,13,14
EndSplineSet
LCarets: 0 65535 '    ' 1 0 
Ligature: 0 1 'liga' space uni0308
EndChar
StartChar: copyright
Encoding: 169 169 139
Width: 2048
Flags: W
HStem: 0 154<873 911> 301 98<940 992.23> 1085 99<1114 1148> 1331 154<1130 1175>
Fore
1168.33 1485 m 0,0,1
 1320.33 1485 1320.33 1485 1441.14 1430 c 128,-1,2
 1561.95 1375 1561.95 1375 1649.76 1266 c 0,3,4
 1737.57 1157 1737.57 1157 1766.11 1026 c 128,-1,5
 1794.64 895 1794.64 895 1764.71 741 c 0,6,7
 1735.16 589 1735.16 589 1655.8 458.5 c 128,-1,8
 1576.43 328 1576.43 328 1446.24 219 c 0,9,10
 1316.05 110 1316.05 110 1173.86 55 c 128,-1,11
 1031.67 0 1031.67 0 879.673 0 c 0,12,13
 727.673 0 727.673 0 606.863 55 c 128,-1,14
 486.055 110 486.055 110 398.242 219 c 0,15,16
 310.43 328 310.43 328 281.796 458.5 c 128,-1,17
 253.163 589 253.163 589 282.708 741 c 0,18,19
 312.643 895 312.643 895 392.106 1026 c 128,-1,20
 471.57 1157 471.57 1157 601.758 1266 c 0,21,22
 731.945 1375 731.945 1375 874.137 1430 c 128,-1,23
 1016.33 1485 1016.33 1485 1168.33 1485 c 0,0,1
1138.39 1331 m 0,24,25
 1017.39 1331 1017.39 1331 904.938 1287.5 c 128,-1,26
 792.481 1244 792.481 1244 688.57 1157 c 0,27,28
 585.854 1071 585.854 1071 522.735 967.5 c 128,-1,29
 459.617 864 459.617 864 435.708 741 c 0,30,31
 411.994 619 411.994 619 434.876 515.5 c 128,-1,32
 457.757 412 457.757 412 527.041 326 c 0,33,34
 596.324 240 596.324 240 692.466 197 c 128,-1,35
 788.607 154 788.607 154 909.607 154 c 0,36,37
 1032.61 154 1032.61 154 1143.87 196.5 c 128,-1,38
 1255.13 239 1255.13 239 1359.04 326 c 0,39,40
 1461.76 412 1461.76 412 1524.88 515.5 c 128,-1,41
 1587.99 619 1587.99 619 1611.71 741 c 0,42,43
 1635.62 864 1635.62 864 1612.74 967.5 c 128,-1,44
 1589.85 1071 1589.85 1071 1520.57 1157 c 0,45,46
 1449.68 1245 1449.68 1245 1354.53 1288 c 128,-1,47
 1259.39 1331 1259.39 1331 1138.39 1331 c 0,24,25
1359.41 580 m 1,48,49
 1305.39 441 1305.39 441 1200.29 371 c 128,-1,50
 1095.18 301 1095.18 301 940.181 301 c 0,51,52
 752.181 301 752.181 301 659.701 422 c 128,-1,53
 567.221 543 567.221 543 605.708 741 c 0,54,55
 644.974 943 644.974 943 785.396 1063.5 c 128,-1,56
 925.819 1184 925.819 1184 1121.82 1184 c 0,57,58
 1200.82 1184 1200.82 1184 1277.22 1165.5 c 128,-1,59
 1353.63 1147 1353.63 1147 1433.05 1108 c 1,60,-1
 1389.7 885 l 1,61,-1
 1284.7 885 l 1,62,63
 1290.97 979 1290.97 979 1248.77 1032 c 128,-1,64
 1206.58 1085 1206.58 1085 1125.58 1085 c 0,65,66
 1021.58 1085 1021.58 1085 944.289 993.5 c 128,-1,67
 867.004 902 867.004 902 835.708 741 c 0,68,69
 804.413 580 804.413 580 845.822 489.5 c 128,-1,70
 887.23 399 887.23 399 992.23 399 c 0,71,72
 1065.23 399 1065.23 399 1123.17 445 c 128,-1,73
 1181.11 491 1181.11 491 1221.41 580 c 1,74,-1
 1359.41 580 l 1,48,49
EndSplineSet
EndChar
StartChar: ordfeminine
Encoding: 170 170 157
Width: 997
Flags: W
HStem: 504 135<39 812> 756 94<814 911> 1133 94<481 591> 1434 86<475 532.745>
Fore
40.4961 639 m 1,0,-1
 838.496 639 l 1,1,-1
 812.255 504 l 1,2,-1
 14.2549 504 l 1,3,-1
 40.4961 639 l 1,0,-1
884.876 1212 m 2,4,-1
 814.511 850 l 1,5,-1
 929.511 850 l 1,6,-1
 911.238 756 l 1,7,-1
 532.238 756 l 1,8,-1
 550.122 848 l 1,9,10
 488.042 791 488.042 791 418.294 764 c 128,-1,11
 348.545 737 348.545 737 263.546 737 c 0,12,13
 140.545 737 140.545 737 85.9023 798 c 128,-1,14
 31.2598 859 31.2598 859 53.4189 973 c 0,15,16
 78.2998 1101 78.2998 1101 185.046 1164 c 128,-1,17
 291.792 1227 291.792 1227 483.792 1227 c 2,18,-1
 623.792 1227 l 1,19,-1
 629.234 1255 l 2,20,21
 646.729 1345 646.729 1345 608.379 1389.5 c 128,-1,22
 570.028 1434 570.028 1434 475.028 1434 c 0,23,24
 399.028 1434 399.028 1434 348.711 1401.5 c 128,-1,25
 298.394 1369 298.394 1369 276.342 1307 c 1,26,-1
 180.342 1307 l 1,27,-1
 212.609 1473 l 1,28,29
 290.08 1496 290.08 1496 369.413 1508 c 128,-1,30
 448.745 1520 448.745 1520 532.745 1520 c 0,31,32
 746.745 1520 746.745 1520 831.361 1446 c 128,-1,33
 915.977 1372 915.977 1372 884.876 1212 c 2,4,-1
579.862 1001 m 2,34,-1
 605.52 1133 l 1,35,-1
 504.52 1133 l 2,36,37
 432.52 1133 432.52 1133 383.73 1095.5 c 128,-1,38
 334.941 1058 334.941 1058 322.307 993 c 0,39,40
 310.255 931 310.255 931 334.243 897.5 c 128,-1,41
 358.231 864 358.231 864 415.231 864 c 0,42,43
 478.231 864 478.231 864 522.924 901 c 128,-1,44
 567.616 938 567.616 938 579.862 1001 c 2,34,-1
EndSplineSet
EndChar
StartChar: guillemotleft
Encoding: 171 171 169
Width: 1280
Flags: W
Fore
1178.16 1069 m 1,0,-1
 1149.59 922 l 1,1,-1
 848 600 l 1,2,-1
 1024.6 279 l 1,3,-1
 995.836 131 l 1,4,-1
 601.672 516 l 1,5,-1
 634.328 684 l 1,6,-1
 1178.16 1069 l 1,0,-1
718.164 1069 m 1,7,-1
 689.591 922 l 1,8,-1
 387 600 l 1,9,-1
 564.604 279 l 1,10,-1
 535.836 131 l 1,11,-1
 141.672 516 l 1,12,-1
 174.328 684 l 1,13,-1
 718.164 1069 l 1,7,-1
EndSplineSet
KernsSLIF: 356 -149 0 0 84 -149 0 0 74 -73 0 0
EndChar
StartChar: logicalnot
Encoding: 172 172 164
Width: 1716
Flags: W
HStem: 676 227<275 1285>
Fore
276.869 903 m 1,0,-1
 1558.87 903 l 1,1,-1
 1439.13 287 l 1,2,-1
 1210.13 287 l 1,3,-1
 1285.75 676 l 1,4,-1
 232.745 676 l 1,5,-1
 276.869 903 l 1,0,-1
EndSplineSet
EndChar
StartChar: sfthyphen
Encoding: 173 173 256
Width: 850
Flags: W
HStem: 414 270<136 712>
Fore
137.241 684 m 1,0,-1
 765.241 684 l 1,1,-1
 712.759 414 l 1,2,-1
 84.7588 414 l 1,3,-1
 137.241 684 l 1,0,-1
EndSplineSet
EndChar
StartChar: registered
Encoding: 174 174 138
Width: 2048
Flags: W
HStem: 0 154<873 911> 352 82<588 942 1323 1368> 1077 82<728 800 729 1084> 1331 154<1130 1175>
Fore
1168.24 754 m 1,0,1
 1205.1 743 1205.1 743 1229.95 716.5 c 128,-1,2
 1254.79 690 1254.79 690 1265.83 649 c 2,3,-1
 1324.03 434 l 1,4,-1
 1384.03 434 l 1,5,-1
 1368.09 352 l 1,6,-1
 1145.09 352 l 1,7,-1
 1077.47 606 l 1,8,9
 1058.68 674 1058.68 674 1033.36 695.5 c 128,-1,10
 1008.04 717 1008.04 717 953.043 717 c 2,11,-1
 927.043 717 l 1,12,-1
 872.033 434 l 1,13,-1
 958.033 434 l 1,14,-1
 942.095 352 l 1,15,-1
 573.095 352 l 1,16,-1
 589.033 434 l 1,17,-1
 675.033 434 l 1,18,-1
 800.021 1077 l 1,19,-1
 714.021 1077 l 1,20,-1
 729.959 1159 l 1,21,-1
 1182.96 1159 l 2,22,23
 1302.96 1159 1302.96 1159 1361.27 1104 c 128,-1,24
 1419.58 1049 1419.58 1049 1401.11 954 c 0,25,26
 1383.81 865 1383.81 865 1324.4 814 c 128,-1,27
 1264.98 763 1264.98 763 1168.24 754 c 1,0,1
942.982 799 m 1,28,-1
 1009.98 799 l 2,29,30
 1088.98 799 1088.98 799 1138.48 835 c 128,-1,31
 1187.98 871 1187.98 871 1201 938 c 0,32,33
 1214.02 1005 1214.02 1005 1178.52 1041 c 128,-1,34
 1143.02 1077 1143.02 1077 1064.02 1077 c 2,35,-1
 997.021 1077 l 1,36,-1
 942.982 799 l 1,28,-1
1168.33 1485 m 0,37,38
 1320.33 1485 1320.33 1485 1441.14 1430 c 128,-1,39
 1561.95 1375 1561.95 1375 1649.76 1266 c 0,40,41
 1737.57 1157 1737.57 1157 1766.11 1026 c 128,-1,42
 1794.64 895 1794.64 895 1764.71 741 c 0,43,44
 1735.16 589 1735.16 589 1655.8 458.5 c 128,-1,45
 1576.43 328 1576.43 328 1446.24 219 c 0,46,47
 1316.05 110 1316.05 110 1173.86 55 c 128,-1,48
 1031.67 0 1031.67 0 879.673 0 c 0,49,50
 727.673 0 727.673 0 606.863 55 c 128,-1,51
 486.055 110 486.055 110 398.242 219 c 0,52,53
 310.43 328 310.43 328 281.796 458.5 c 128,-1,54
 253.163 589 253.163 589 282.708 741 c 0,55,56
 312.643 895 312.643 895 392.106 1026 c 128,-1,57
 471.57 1157 471.57 1157 601.758 1266 c 0,58,59
 731.945 1375 731.945 1375 874.137 1430 c 128,-1,60
 1016.33 1485 1016.33 1485 1168.33 1485 c 0,37,38
1138.39 1331 m 0,61,62
 1017.39 1331 1017.39 1331 904.938 1287.5 c 128,-1,63
 792.481 1244 792.481 1244 688.57 1157 c 0,64,65
 585.854 1071 585.854 1071 522.735 967.5 c 128,-1,66
 459.617 864 459.617 864 435.708 741 c 0,67,68
 411.994 619 411.994 619 434.876 515.5 c 128,-1,69
 457.757 412 457.757 412 527.041 326 c 0,70,71
 596.324 240 596.324 240 692.466 197 c 128,-1,72
 788.607 154 788.607 154 909.607 154 c 0,73,74
 1032.61 154 1032.61 154 1143.87 196.5 c 128,-1,75
 1255.13 239 1255.13 239 1359.04 326 c 0,76,77
 1461.76 412 1461.76 412 1524.88 515.5 c 128,-1,78
 1587.99 619 1587.99 619 1611.71 741 c 0,79,80
 1635.62 864 1635.62 864 1612.74 967.5 c 128,-1,81
 1589.85 1071 1589.85 1071 1520.57 1157 c 0,82,83
 1449.68 1245 1449.68 1245 1354.53 1288 c 128,-1,84
 1259.39 1331 1259.39 1331 1138.39 1331 c 0,61,62
EndSplineSet
EndChar
StartChar: macron
Encoding: 175 175 217
Width: 1024
Flags: HW
HStem: 1360 188<354 948>
Fore
355 1548 m 1,0,-1
 985 1548 l 1,1,-1
 949 1360 l 1,2,-1
 319 1360 l 1,3,-1
 355 1548 l 1,0,-1
EndSplineSet
LCarets: 0 65535 '    ' 1 0 
Ligature: 0 1 'liga' space uni0304
EndChar
StartChar: degree
Encoding: 176 176 131
Width: 1024
Flags: W
HStem: 868 162<445.271 478.761> 1372 162<545 576.729>
Fore
576.729 1534 m 0,0,1
 642.729 1534 642.729 1534 698.771 1508.5 c 128,-1,2
 754.815 1483 754.815 1483 793.68 1436 c 1,3,4
 831.349 1388 831.349 1388 844.187 1328 c 128,-1,5
 857.023 1268 857.023 1268 843.806 1200 c 0,6,7
 830.782 1133 830.782 1133 794.522 1072.5 c 128,-1,8
 758.262 1012 758.262 1012 704.515 967 c 0,9,10
 647.185 919 647.185 919 580.229 893.5 c 128,-1,11
 513.271 868 513.271 868 445.271 868 c 0,12,13
 304.271 868 304.271 868 227.335 963.5 c 128,-1,14
 150.398 1059 150.398 1059 177.806 1200 c 0,15,16
 205.213 1341 205.213 1341 320.471 1437.5 c 128,-1,17
 435.729 1534 435.729 1534 576.729 1534 c 0,0,1
545.239 1372 m 0,18,19
 473.239 1372 473.239 1372 413.52 1322 c 128,-1,20
 353.801 1272 353.801 1272 339.806 1200 c 0,21,22
 325.811 1128 325.811 1128 365.785 1079 c 128,-1,23
 405.761 1030 405.761 1030 478.761 1030 c 0,24,25
 550.761 1030 550.761 1030 610.383 1079.5 c 128,-1,26
 670.005 1129 670.005 1129 683.806 1200 c 0,27,28
 697.801 1272 697.801 1272 657.02 1322 c 128,-1,29
 616.239 1372 616.239 1372 545.239 1372 c 0,18,19
EndSplineSet
EndChar
StartChar: plusminus
Encoding: 177 177 147
Width: 1716
Flags: W
HStem: 0 227<135 1374> 698 228<271 753 1028 1509>
Fore
136.332 227 m 1,0,-1
 1418.33 227 l 1,1,-1
 1374.21 0 l 1,2,-1
 92.208 0 l 1,3,-1
 136.332 227 l 1,0,-1
1097.79 1284 m 1,4,-1
 1028.2 926 l 1,5,-1
 1554.2 926 l 1,6,-1
 1509.89 698 l 1,7,-1
 983.886 698 l 1,8,-1
 914.297 340 l 1,9,-1
 684.297 340 l 1,10,-1
 753.886 698 l 1,11,-1
 227.886 698 l 1,12,-1
 272.204 926 l 1,13,-1
 798.204 926 l 1,14,-1
 867.792 1284 l 1,15,-1
 1097.79 1284 l 1,4,-1
EndSplineSet
EndChar
StartChar: twosuperior
Encoding: 178 178 241
Width: 897
Flags: W
HStem: 684 154<216 700> 1436 84<410.923 478.251>
Fore
223.377 1284 m 1,0,-1
 129.377 1284 l 1,1,-1
 167.281 1479 l 1,2,3
 243.169 1499 243.169 1499 320.71 1509.5 c 128,-1,4
 398.251 1520 398.251 1520 478.251 1520 c 0,5,6
 659.251 1520 659.251 1520 746.811 1456 c 128,-1,7
 834.37 1392 834.37 1392 812.211 1278 c 0,8,9
 796.271 1196 796.271 1196 729.234 1131.5 c 128,-1,10
 662.196 1067 662.196 1067 487.702 977 c 2,11,-1
 216.684 838 l 1,12,-1
 630.684 838 l 1,13,-1
 649.344 934 l 1,14,-1
 749.344 934 l 1,15,-1
 700.749 684 l 1,16,-1
 4.74902 684 l 1,17,-1
 30.6016 817 l 1,18,-1
 175.93 901 l 2,19,20
 386.838 1024 386.838 1024 450.445 1094 c 128,-1,21
 514.052 1164 514.052 1164 532.129 1257 c 0,22,23
 548.457 1341 548.457 1341 516.19 1388.5 c 128,-1,24
 483.923 1436 483.923 1436 410.923 1436 c 0,25,26
 347.923 1436 347.923 1436 296.356 1394.5 c 128,-1,27
 244.789 1353 244.789 1353 223.377 1284 c 1,0,-1
EndSplineSet
EndChar
StartChar: threesuperior
Encoding: 179 179 242
Width: 897
Flags: W
HStem: 668 84<286 327> 1067 20G<307.64 348.64> 1436 84<424.479 494.806>
Fore
186.226 1481 m 1,0,1
 277.918 1500 277.918 1500 354.362 1510 c 128,-1,2
 430.806 1520 430.806 1520 494.806 1520 c 0,3,4
 674.806 1520 674.806 1520 757.601 1467.5 c 128,-1,5
 840.396 1415 840.396 1415 820.958 1315 c 0,6,7
 806.963 1243 806.963 1243 745.327 1196 c 128,-1,8
 683.691 1149 683.691 1149 578.581 1133 c 1,9,10
 695.471 1117 695.471 1117 746.683 1061.5 c 128,-1,11
 797.895 1006 797.895 1006 779.817 913 c 0,12,13
 756.103 791 756.103 791 642.148 729.5 c 128,-1,14
 528.194 668 528.194 668 327.194 668 c 0,15,16
 247.194 668 247.194 668 169.235 678.5 c 128,-1,17
 91.2764 689 91.2764 689 15.5527 711 c 1,18,-1
 54.4287 911 l 1,19,-1
 150.429 911 l 1,20,21
 141.878 831 141.878 831 177.2 791.5 c 128,-1,22
 212.521 752 212.521 752 291.521 752 c 0,23,24
 379.521 752 379.521 752 434.38 795 c 128,-1,25
 489.238 838 489.238 838 505.178 920 c 0,26,27
 520.729 1000 520.729 1000 480.184 1043.5 c 128,-1,28
 439.64 1087 439.64 1087 348.64 1087 c 2,29,-1
 307.64 1087 l 1,30,-1
 323.967 1171 l 1,31,-1
 354.967 1171 l 2,32,33
 435.967 1171 435.967 1171 486.076 1205 c 128,-1,34
 536.186 1239 536.186 1239 548.625 1303 c 0,35,36
 560.871 1366 560.871 1366 528.675 1401 c 128,-1,37
 496.479 1436 496.479 1436 424.479 1436 c 0,38,39
 358.479 1436 358.479 1436 311.383 1399.5 c 128,-1,40
 264.288 1363 264.288 1363 246.848 1299 c 1,41,-1
 150.653 1298 l 1,42,-1
 186.226 1481 l 1,0,1
EndSplineSet
EndChar
StartChar: acute
Encoding: 180 180 141
Width: 1024
Flags: HW
Fore
797 1638 m 1,0,-1
 1076 1638 l 1,1,-1
 629 1262 l 1,2,-1
 465 1262 l 1,3,-1
 797 1638 l 1,0,-1
EndSplineSet
LCarets: 0 65535 '    ' 1 0 
Ligature: 0 1 'liga' space acutecomb
EndChar
StartChar: mu
Encoding: 181 181 151
Width: 1499
Flags: W
HStem: -426 121<-66 570> -29 166<618.453 683.72> 0 121<1239 1368> 942 121<200 330 936 1045>
Fore
1422.72 1063 m 1,0,-1
 1239.61 121 l 1,1,-1
 1391.61 121 l 1,2,-1
 1368.09 0 l 1,3,-1
 862.09 0 l 1,4,-1
 886.388 125 l 1,5,6
 815.254 42 815.254 42 753.854 6.5 c 128,-1,7
 692.453 -29 692.453 -29 618.453 -29 c 0,8,9
 587.453 -29 587.453 -29 559.896 -19 c 128,-1,10
 532.341 -9 532.341 -9 503.423 12 c 1,11,-1
 441.804 -305 l 1,12,-1
 593.804 -305 l 1,13,-1
 570.284 -426 l 1,14,-1
 -87.7158 -426 l 1,15,-1
 -64.1963 -305 l 1,16,-1
 87.8037 -305 l 1,17,-1
 330.196 942 l 1,18,-1
 178.196 942 l 1,19,-1
 201.716 1063 l 1,20,-1
 707.716 1063 l 1,21,-1
 591.865 467 l 2,22,23
 549.102 247 549.102 247 572.411 192 c 128,-1,24
 595.72 137 595.72 137 683.72 137 c 0,25,26
 789.72 137 789.72 137 854.673 216.5 c 128,-1,27
 919.626 296 919.626 296 952.865 467 c 2,28,-1
 1045.2 942 l 1,29,-1
 914.196 942 l 1,30,-1
 937.716 1063 l 1,31,-1
 1422.72 1063 l 1,0,-1
EndSplineSet
EndChar
StartChar: paragraph
Encoding: 182 182 136
Width: 1303
Flags: W
HStem: 1368 125<787 1052 787 1317>
Fore
787.251 1493 m 2,0,-1
 1342.25 1493 l 1,1,-1
 1317.95 1368 l 1,2,-1
 1204.95 1368 l 1,3,-1
 900.749 -197 l 1,4,-1
 748.749 -197 l 1,5,-1
 1052.95 1368 l 1,6,-1
 889.954 1368 l 1,7,-1
 585.749 -197 l 1,8,-1
 433.749 -197 l 1,9,-1
 598.194 649 l 1,10,11
 386.499 666 386.499 666 289.978 776.5 c 128,-1,12
 193.457 887 193.457 887 229.223 1071 c 0,13,14
 266.155 1261 266.155 1261 418.703 1377 c 128,-1,15
 571.251 1493 571.251 1493 787.251 1493 c 2,0,-1
EndSplineSet
EndChar
StartChar: periodcentered
Encoding: 183 183 195
Width: 713
Flags: W
Fore
165.902 711 m 0,0,1
 181.064 789 181.064 789 247.95 845 c 128,-1,2
 314.835 901 314.835 901 392.835 901 c 0,3,4
 471.835 901 471.835 901 516.95 845 c 128,-1,5
 562.064 789 562.064 789 546.902 711 c 0,6,7
 531.741 633 531.741 633 464.953 577.5 c 128,-1,8
 398.165 522 398.165 522 319.165 522 c 0,9,10
 241.165 522 241.165 522 195.953 577.5 c 128,-1,11
 150.741 633 150.741 633 165.902 711 c 0,0,1
EndSplineSet
EndChar
StartChar: cedilla
Encoding: 184 184 221
Width: 1024
Flags: W
HStem: -401 147<404 438> -20 20G<505.974 632.974>
Fore
632.974 0 m 1,0,1
 682.533 -64 682.533 -64 701.439 -118.5 c 128,-1,2
 720.346 -173 720.346 -173 710.237 -225 c 0,3,4
 693.521 -311 693.521 -311 620.273 -356 c 128,-1,5
 547.026 -401 547.026 -401 426.026 -401 c 0,6,7
 378.026 -401 378.026 -401 328.29 -394.5 c 128,-1,8
 278.554 -388 278.554 -388 229.081 -375 c 1,9,-1
 258.404 -219 l 1,10,11
 300.1 -236 300.1 -236 340.85 -245 c 128,-1,12
 381.601 -254 381.601 -254 417.601 -254 c 0,13,14
 477.601 -254 477.601 -254 513.669 -230.5 c 128,-1,15
 549.736 -207 549.736 -207 558.483 -162 c 0,16,17
 563.926 -134 563.926 -134 553.841 -101 c 128,-1,18
 543.756 -68 543.756 -68 505.974 0 c 1,19,-1
 632.974 0 l 1,0,1
EndSplineSet
Ligature: 0 1 'liga' space uni0327
EndChar
StartChar: onesuperior
Encoding: 185 185 240
Width: 897
Flags: W
HStem: 684 94<98 674> 1500 20G<446.251 673.251>
Fore
80.749 684 m 1,0,-1
 99.0205 778 l 1,1,-1
 263.021 778 l 1,2,-1
 382.176 1391 l 1,3,-1
 179.544 1290 l 1,4,-1
 199.953 1395 l 1,5,-1
 446.251 1520 l 1,6,-1
 673.251 1520 l 1,7,-1
 529.021 778 l 1,8,-1
 693.021 778 l 1,9,-1
 674.749 684 l 1,10,-1
 80.749 684 l 1,0,-1
EndSplineSet
EndChar
StartChar: ordmasculine
Encoding: 186 186 158
Width: 1024
Flags: W
HStem: 504 135<39 812> 737 86<457 479> 1434 86<575.644 612>
Fore
40.4961 639 m 1,0,-1
 838.496 639 l 1,1,-1
 812.255 504 l 1,2,-1
 14.2549 504 l 1,3,-1
 40.4961 639 l 1,0,-1
475.262 823 m 0,4,5
 551.262 823 551.262 823 598.563 894 c 128,-1,6
 645.864 965 645.864 965 677.548 1128 c 0,7,8
 709.427 1292 709.427 1292 689.728 1363 c 128,-1,9
 670.028 1434 670.028 1434 594.028 1434 c 0,10,11
 517.028 1434 517.028 1434 470.422 1364 c 128,-1,12
 423.815 1294 423.815 1294 391.548 1128 c 0,13,14
 359.476 963 359.476 963 378.869 893 c 128,-1,15
 398.262 823 398.262 823 475.262 823 c 0,4,5
458.546 737 m 0,16,17
 246.545 737 246.545 737 147.261 841 c 128,-1,18
 47.9766 945 47.9766 945 83.5479 1128 c 0,19,20
 119.12 1311 119.12 1311 258.933 1415.5 c 128,-1,21
 398.745 1520 398.745 1520 610.745 1520 c 0,22,23
 822.745 1520 822.745 1520 921.933 1415.5 c 128,-1,24
 1021.12 1311 1021.12 1311 985.548 1128 c 0,25,26
 949.977 945 949.977 945 810.261 841 c 128,-1,27
 670.545 737 670.545 737 458.546 737 c 0,16,17
EndSplineSet
EndChar
StartChar: guillemotright
Encoding: 187 187 170
Width: 1280
Flags: W
Fore
284.164 1069 m 1,0,-1
 678.328 684 l 1,1,-1
 645.672 516 l 1,2,-1
 101.836 131 l 1,3,-1
 130.604 279 l 1,4,-1
 432 600 l 1,5,-1
 255.591 922 l 1,6,-1
 284.164 1069 l 1,0,-1
744.164 1069 m 1,7,-1
 1138.33 684 l 1,8,-1
 1105.67 516 l 1,9,-1
 561.836 131 l 1,10,-1
 590.604 279 l 1,11,-1
 893 600 l 1,12,-1
 715.591 922 l 1,13,-1
 744.164 1069 l 1,7,-1
EndSplineSet
KernsSLIF: 356 -149 0 0 84 -149 0 0 74 -73 0 0
EndChar
StartChar: questiondown
Encoding: 191 191 162
Width: 1200
Flags: W
HStem: -29 113<463.452 580.417> 1141 379<744.877 818.548>
Fore
971.421 1329 m 0,0,1
 956.259 1251 956.259 1251 889.568 1196 c 128,-1,2
 822.877 1141 822.877 1141 744.877 1141 c 0,3,4
 665.877 1141 665.877 1141 621.568 1196 c 128,-1,5
 577.259 1251 577.259 1251 592.421 1329 c 0,6,7
 607.777 1408 607.777 1408 674.162 1464 c 128,-1,8
 740.548 1520 740.548 1520 818.548 1520 c 0,9,10
 896.548 1520 896.548 1520 941.565 1463.5 c 128,-1,11
 986.583 1407 986.583 1407 971.421 1329 c 0,0,1
929.67 39 m 1,12,13
 799.062 5 799.062 5 683.757 -12 c 128,-1,14
 568.452 -29 568.452 -29 463.452 -29 c 0,15,16
 211.452 -29 211.452 -29 97.9316 81.5 c 128,-1,17
 -15.5898 192 -15.5898 192 24.2588 397 c 0,18,19
 63.5234 599 63.5234 599 216.669 715.5 c 128,-1,20
 369.813 832 369.813 832 618.312 850 c 1,21,-1
 658.161 1055 l 1,22,-1
 797.161 1055 l 1,23,-1
 739.041 756 l 1,24,25
 591.683 713 591.683 713 508.202 620.5 c 128,-1,26
 424.723 528 424.723 528 394.982 375 c 0,27,28
 366.797 230 366.797 230 413.607 157 c 128,-1,29
 460.417 84 460.417 84 580.417 84 c 0,30,31
 689.417 84 689.417 84 761.746 150 c 128,-1,32
 834.075 216 834.075 216 869.345 346 c 1,33,-1
 989.345 346 l 1,34,-1
 929.67 39 l 1,12,13
EndSplineSet
EndChar
StartChar: Aring
Encoding: 197 197 99
Width: 1589
Flags: W
HStem: 0 121<-179 243 750 1427> 426 121<345 834> 1747 154<942 972.759>
Fore
786.36 1616 m 0,0,1
 775.863 1562 775.863 1562 807.38 1523.5 c 128,-1,2
 838.896 1485 838.896 1485 891.896 1485 c 0,3,4
 946.896 1485 946.896 1485 992.88 1523.5 c 128,-1,5
 1038.86 1562 1038.86 1562 1049.36 1616 c 0,6,7
 1059.86 1670 1059.86 1670 1028.34 1708.5 c 128,-1,8
 996.824 1747 996.824 1747 942.824 1747 c 0,9,10
 889.824 1747 889.824 1747 843.34 1708.5 c 128,-1,11
 796.856 1670 796.856 1670 786.36 1616 c 0,0,1
-200.759 0 m 1,12,-1
 -177.238 121 l 1,13,-1
 -55.2383 121 l 1,14,-1
 709.264 1384 l 1,15,16
 658.456 1421 658.456 1421 638.716 1481.5 c 128,-1,17
 618.976 1542 618.976 1542 633.36 1616 c 0,18,19
 656.103 1733 656.103 1733 755.931 1817 c 128,-1,20
 855.759 1901 855.759 1901 972.759 1901 c 0,21,22
 1090.76 1901 1090.76 1901 1157.93 1817 c 128,-1,23
 1225.1 1733 1225.1 1733 1202.36 1616 c 0,24,25
 1187.98 1542 1187.98 1542 1146.01 1483 c 128,-1,26
 1104.04 1424 1104.04 1424 1036.26 1384 c 1,27,-1
 1308.76 121 l 1,28,-1
 1450.76 121 l 1,29,-1
 1427.24 0 l 1,30,-1
 728.241 0 l 1,31,-1
 751.762 121 l 1,32,-1
 897.762 121 l 1,33,-1
 834.048 426 l 1,34,-1
 273.048 426 l 1,35,-1
 88.7617 121 l 1,36,-1
 266.762 121 l 1,37,-1
 243.241 0 l 1,38,-1
 -200.759 0 l 1,12,-1
345.567 547 m 1,39,-1
 808.567 547 l 1,40,-1
 691.559 1118 l 1,41,-1
 345.567 547 l 1,39,-1
EndSplineSet
Ligature: 0 0 'liga' A uni030A
EndChar
StartChar: AE
Encoding: 198 198 144
Width: 2118
Flags: W
HStem: 0 121<-186 219 553 1865> 0 137<1134 1865> 0 545<361 1865> 424 121<361 803> 551 326<1278 1716> 741 136<1278 1618> 1047 20G<1682.3 1817.3> 1141 352<587 2069> 1356 137<587 1973> 1372 121<586 764 587 987>
Fore
361.832 545 m 1,0,-1
 826.832 545 l 1,1,-1
 987.585 1372 l 1,2,-1
 912.585 1372 l 1,3,-1
 361.832 545 l 1,0,-1
530.896 0 m 1,4,-1
 554.415 121 l 1,5,-1
 744.415 121 l 1,6,-1
 803.312 424 l 1,7,-1
 281.312 424 l 1,8,-1
 79.415 121 l 1,9,-1
 243.415 121 l 1,10,-1
 219.896 0 l 1,11,-1
 -208.104 0 l 1,12,-1
 -184.585 121 l 1,13,-1
 -70.585 121 l 1,14,-1
 764.585 1372 l 1,15,-1
 563.585 1372 l 1,16,-1
 587.104 1493 l 1,17,-1
 2138.1 1493 l 1,18,-1
 2069.68 1141 l 1,19,-1
 1931.68 1141 l 1,20,-1
 1973.47 1356 l 1,21,-1
 1371.47 1356 l 1,22,-1
 1278.37 877 l 1,23,-1
 1645.37 877 l 1,24,-1
 1682.3 1067 l 1,25,-1
 1817.3 1067 l 1,26,-1
 1717 551 l 1,27,-1
 1582 551 l 1,28,-1
 1618.93 741 l 1,29,-1
 1251.93 741 l 1,30,-1
 1134.53 137 l 1,31,-1
 1757.53 137 l 1,32,-1
 1799.32 352 l 1,33,-1
 1934.32 352 l 1,34,-1
 1865.9 0 l 1,35,-1
 530.896 0 l 1,4,-1
EndSplineSet
KernsSLIF: 45 38 0 0
EndChar
StartChar: Eth
Encoding: 208 208 232
Width: 1790
Flags: W
HStem: 0 121<-14 733> 713 137<107 294 706 1011> 1372 121<253 422 254 972>
Fore
564.415 121 m 1,0,-1
 703.415 121 l 2,1,2
 937.415 121 937.415 121 1073.97 270.5 c 128,-1,3
 1210.54 420 1210.54 420 1274.29 748 c 0,4,5
 1337.66 1074 1337.66 1074 1259.12 1223 c 128,-1,6
 1180.58 1372 1180.58 1372 946.585 1372 c 2,7,-1
 807.585 1372 l 1,8,-1
 706.118 850 l 1,9,-1
 1038.12 850 l 1,10,-1
 1011.49 713 l 1,11,-1
 679.488 713 l 1,12,-1
 564.415 121 l 1,0,-1
-36.1045 0 m 1,13,-1
 -12.585 121 l 1,14,-1
 179.415 121 l 1,15,-1
 294.488 713 l 1,16,-1
 81.4883 713 l 1,17,-1
 108.118 850 l 1,18,-1
 321.118 850 l 1,19,-1
 422.585 1372 l 1,20,-1
 230.585 1372 l 1,21,-1
 254.104 1493 l 1,22,-1
 1022.1 1493 l 2,23,24
 1422.1 1493 1422.1 1493 1597.38 1301.5 c 128,-1,25
 1772.66 1110 1772.66 1110 1702.29 748 c 0,26,27
 1631.73 385 1631.73 385 1381.81 192.5 c 128,-1,28
 1131.9 0 1131.9 0 731.896 0 c 2,29,-1
 -36.1045 0 l 1,13,-1
EndSplineSet
KernsSLIF: 221 -36 0 0 193 -36 0 0 194 -36 0 0 376 -36 0 0 195 -36 0 0 192 -36 0 0 196 -36 0 0 89 -36 0 0 86 -36 0 0 65 -36 0 0 46 -73 0 0 45 75 0 0 44 -73 0 0
EndChar
StartChar: multiply
Encoding: 215 215 239
Width: 1716
Flags: W
Fore
1537.33 1081 m 1,0,-1
 1011.81 641 l 1,1,-1
 1366.28 201 l 1,2,-1
 1182.34 47 l 1,3,-1
 827.871 487 l 1,4,-1
 302.344 47 l 1,5,-1
 178.278 201 l 1,6,-1
 704.806 641 l 1,7,-1
 349.333 1081 l 1,8,-1
 533.656 1237 l 1,9,-1
 888.129 797 l 1,10,-1
 1413.66 1237 l 1,11,-1
 1537.33 1081 l 1,0,-1
EndSplineSet
EndChar
StartChar: Oslash
Encoding: 216 216 145
Width: 1784
Flags: W
HStem: -29 121<738 790> 1399 121<996 1046>
Fore
483.197 479 m 1,0,-1
 1291.99 1157 l 1,1,2
 1273.12 1276 1273.12 1276 1203.57 1337.5 c 128,-1,3
 1134.03 1399 1134.03 1399 1018.03 1399 c 0,4,5
 828.027 1399 828.027 1399 702.94 1236.5 c 128,-1,6
 577.854 1074 577.854 1074 513.902 745 c 0,7,8
 499.13 669 499.13 669 491.301 603 c 128,-1,9
 483.472 537 483.472 537 483.197 479 c 1,0,-1
491.013 334 m 1,10,11
 512.298 212 512.298 212 580.136 152 c 128,-1,12
 647.973 92 647.973 92 763.973 92 c 0,13,14
 958.973 92 958.973 92 1083.43 259 c 128,-1,15
 1207.9 426 1207.9 426 1277.48 784 c 0,16,17
 1290.12 849 1290.12 849 1293.93 899.5 c 128,-1,18
 1297.75 950 1297.75 950 1293.11 993 c 1,19,-1
 491.013 334 l 1,10,11
1619.9 1280 m 1,20,21
 1689.68 1176 1689.68 1176 1708.73 1042.5 c 128,-1,22
 1727.78 909 1727.78 909 1695.9 745 c 0,23,24
 1625.54 383 1625.54 383 1371 177 c 128,-1,25
 1116.45 -29 1116.45 -29 740.452 -29 c 0,26,27
 582.452 -29 582.452 -29 457.533 10 c 128,-1,28
 332.614 49 332.614 49 241.775 127 c 1,29,-1
 -2.07227 -78 l 1,30,-1
 -74.5781 12 l 1,31,-1
 164.492 213 l 1,32,33
 93.3193 315 93.3193 315 73.7695 448.5 c 128,-1,34
 54.2188 582 54.2188 582 85.9023 745 c 0,35,36
 156.269 1107 156.269 1107 410.908 1313.5 c 128,-1,37
 665.548 1520 665.548 1520 1041.55 1520 c 0,38,39
 1201.55 1520 1201.55 1520 1327.06 1481.5 c 128,-1,40
 1452.58 1443 1452.58 1443 1541.61 1366 c 1,41,-1
 1784.07 1569 l 1,42,-1
 1856.58 1479 l 1,43,-1
 1619.9 1280 l 1,20,21
EndSplineSet
KernsSLIF: 88 -36 0 0 86 -36 0 0 46 -120 0 0 45 75 0 0 44 -120 0 0
EndChar
StartChar: Thorn
Encoding: 222 222 236
Width: 1550
Flags: W
HStem: 0 121<-27 767> 328 121<614 864> 1061 20G<737.021 849.021> 1372 121<240 408 241 1032>
Fore
-49.1045 0 m 1,0,-1
 -25.585 121 l 1,1,-1
 165.415 121 l 1,2,-1
 408.585 1372 l 1,3,-1
 217.585 1372 l 1,4,-1
 241.104 1493 l 1,5,-1
 1056.1 1493 l 1,6,-1
 1032.58 1372 l 1,7,-1
 793.585 1372 l 1,8,-1
 760.54 1202 l 1,9,-1
 1034.54 1202 l 2,10,11
 1283.54 1202 1283.54 1202 1407.51 1083.5 c 128,-1,12
 1531.47 965 1531.47 965 1492.79 766 c 0,13,14
 1454.11 567 1454.11 567 1283.38 447.5 c 128,-1,15
 1112.65 328 1112.65 328 864.651 328 c 2,16,-1
 590.651 328 l 1,17,-1
 550.415 121 l 1,18,-1
 791.415 121 l 1,19,-1
 767.896 0 l 1,20,-1
 -49.1045 0 l 1,0,-1
614.172 449 m 1,21,-1
 726.172 449 l 2,22,23
 856.172 449 856.172 449 950.389 535 c 128,-1,24
 1044.61 621 1044.61 621 1072.79 766 c 0,25,26
 1100.78 910 1100.78 910 1040.4 995.5 c 128,-1,27
 980.021 1081 980.021 1081 849.021 1081 c 2,28,-1
 737.021 1081 l 1,29,-1
 614.172 449 l 1,21,-1
EndSplineSet
KernsSLIF: 46 -301 0 0 45 38 0 0 44 -264 0 0
EndChar
StartChar: germandbls
Encoding: 223 223 137
Width: 1556
Flags: W
HStem: -29 113<825 866> 0 121<-56 426> 1444 112<896 934>
Fore
1085.93 1221 m 1,0,1
 1103.03 1345 1103.03 1345 1064.65 1394.5 c 128,-1,2
 1026.28 1444 1026.28 1444 914.275 1444 c 0,3,4
 805.275 1444 805.275 1444 744.71 1384.5 c 128,-1,5
 684.145 1325 684.145 1325 657.903 1190 c 2,6,-1
 426.591 0 l 1,7,-1
 -78.4092 0 l 1,8,-1
 -54.8896 121 l 1,9,-1
 96.1104 121 l 1,10,-1
 295.545 1147 l 2,11,12
 334.615 1348 334.615 1348 494.831 1452 c 128,-1,13
 655.047 1556 655.047 1556 924.047 1556 c 0,14,15
 1187.05 1556 1187.05 1556 1301.04 1450.5 c 128,-1,16
 1415.03 1345 1415.03 1345 1397.52 1116 c 1,17,-1
 1375.52 1116 l 2,18,19
 1220.52 1116 1220.52 1116 1132.17 1070.5 c 128,-1,20
 1043.83 1025 1043.83 1025 1026.53 936 c 0,21,22
 1018.76 896 1018.76 896 1035.24 862.5 c 128,-1,23
 1051.73 829 1051.73 829 1122.88 768 c 2,24,-1
 1198.63 705 l 2,25,26
 1350.75 577 1350.75 577 1384.39 498 c 128,-1,27
 1418.04 419 1418.04 419 1397.04 311 c 0,28,29
 1365.94 151 1365.94 151 1223.95 61 c 128,-1,30
 1081.95 -29 1081.95 -29 857.953 -29 c 0,31,32
 777.953 -29 777.953 -29 693.369 -14 c 128,-1,33
 608.785 1 608.785 1 514.616 31 c 1,34,-1
 564.767 289 l 1,35,-1
 685.767 289 l 1,36,37
 677.968 182 677.968 182 717.443 133 c 128,-1,38
 756.919 84 756.919 84 850.919 84 c 0,39,40
 926.919 84 926.919 84 982.472 128 c 128,-1,41
 1038.02 172 1038.02 172 1052.02 244 c 0,42,43
 1072.43 349 1072.43 349 931.172 466 c 0,44,45
 913.088 481 913.088 481 903.643 489 c 2,46,-1
 827.083 553 l 2,47,48
 739.467 627 739.467 627 709.726 705.5 c 128,-1,49
 679.984 784 679.984 784 700.395 889 c 0,50,51
 726.441 1023 726.441 1023 822.479 1105.5 c 128,-1,52
 918.515 1188 918.515 1188 1085.93 1221 c 1,0,1
EndSplineSet
EndChar
StartChar: ae
Encoding: 230 230 160
Width: 1997
Flags: W
HStem: -29 113<1239.05 1347.01> 481 119<1184 1892> 547 119<624 787> 979 113<606 686.95 1423 1456>
Fore
1526.32 600 m 1,0,1
 1567.13 810 1567.13 810 1544.56 894.5 c 128,-1,2
 1521.99 979 1521.99 979 1427.99 979 c 0,3,4
 1336.99 979 1336.99 979 1281.35 896 c 128,-1,5
 1225.72 813 1225.72 813 1187.81 618 c 2,6,-1
 1184.32 600 l 1,7,-1
 1526.32 600 l 1,0,1
1053.63 936 m 1,8,9
 1145.79 1014 1145.79 1014 1245.87 1053 c 128,-1,10
 1345.95 1092 1345.95 1092 1456.95 1092 c 0,11,12
 1719.95 1092 1719.95 1092 1830.82 937 c 128,-1,13
 1941.69 782 1941.69 782 1892.18 481 c 1,14,-1
 1161.18 481 l 1,15,-1
 1159.63 473 l 2,16,17
 1119.59 267 1119.59 267 1163.8 175.5 c 128,-1,18
 1208.01 84 1208.01 84 1347.01 84 c 0,19,20
 1461.01 84 1461.01 84 1542.77 144.5 c 128,-1,21
 1624.54 205 1624.54 205 1667.28 322 c 1,22,-1
 1835.28 322 l 1,23,24
 1757.09 141 1757.09 141 1613.07 56 c 128,-1,25
 1469.05 -29 1469.05 -29 1239.05 -29 c 0,26,27
 1105.05 -29 1105.05 -29 1008.53 9.5 c 128,-1,28
 912.018 48 912.018 48 849.373 127 c 1,29,30
 745.212 49 745.212 49 632.131 10 c 128,-1,31
 519.05 -29 519.05 -29 395.05 -29 c 0,32,33
 189.05 -29 189.05 -29 98.8633 57.5 c 128,-1,34
 8.67773 144 8.67773 144 40.75 309 c 0,35,36
 75.7393 489 75.7393 489 220.441 577.5 c 128,-1,37
 365.145 666 365.145 666 624.145 666 c 2,38,-1
 810.145 666 l 1,39,-1
 822.39 729 l 2,40,41
 844.938 845 844.938 845 787.462 912 c 128,-1,42
 729.985 979 729.985 979 606.985 979 c 0,43,44
 503.985 979 503.985 979 438.529 935.5 c 128,-1,45
 373.074 892 373.074 892 330.219 795 c 1,46,-1
 217.219 795 l 1,47,-1
 261.732 1024 l 1,48,49
 363.341 1058 363.341 1058 468.646 1075 c 128,-1,50
 573.95 1092 573.95 1092 686.95 1092 c 0,51,52
 823.95 1092 823.95 1092 914.467 1053.5 c 128,-1,53
 1004.98 1015 1004.98 1015 1053.63 936 c 1,8,9
744.832 330 m 2,54,-1
 787.013 547 l 1,55,-1
 654.013 547 l 2,56,57
 545.013 547 545.013 547 481.322 492 c 128,-1,58
 417.631 437 417.631 437 395.666 324 c 0,59,60
 373.701 211 373.701 211 403.871 163 c 128,-1,61
 434.041 115 434.041 115 523.041 115 c 0,62,63
 609.041 115 609.041 115 666.926 171 c 128,-1,64
 724.812 227 724.812 227 744.832 330 c 2,54,-1
EndSplineSet
EndChar
StartChar: eth
Encoding: 240 240 233
Width: 1366
Flags: W
HStem: -29 113<529 566> 928 112<692 728>
Fore
1005.6 1337 m 1,0,1
 1164.64 1188 1164.64 1188 1225.97 986.5 c 128,-1,2
 1287.3 785 1287.3 785 1242.99 557 c 0,3,4
 1189.53 282 1189.53 282 1000.3 126.5 c 128,-1,5
 811.079 -29 811.079 -29 529.079 -29 c 0,6,7
 254.079 -29 254.079 -29 120.056 117.5 c 128,-1,8
 -13.9678 264 -13.9678 264 33.4609 508 c 0,9,10
 78.1689 738 78.1689 738 267.02 889 c 128,-1,11
 455.871 1040 455.871 1040 699.871 1040 c 0,12,13
 741.871 1040 741.871 1040 783.705 1034 c 128,-1,14
 825.539 1028 825.539 1028 867.206 1016 c 1,15,16
 858.452 1079 858.452 1079 836.644 1134 c 128,-1,17
 814.834 1189 814.834 1189 777.941 1241 c 1,18,-1
 429.979 1092 l 1,19,-1
 399.417 1192 l 1,20,-1
 703.881 1323 l 1,21,22
 659.268 1361 659.268 1361 588.793 1392 c 128,-1,23
 518.319 1423 518.319 1423 422.79 1446 c 1,24,-1
 472.172 1556 l 1,25,26
 608.867 1539 608.867 1539 718.772 1502.5 c 128,-1,27
 828.678 1466 828.678 1466 908.986 1411 c 1,28,-1
 1268.92 1565 l 1,29,-1
 1295.9 1462 l 1,30,-1
 1005.6 1337 l 1,0,1
861.909 891 m 1,31,32
 818.602 910 818.602 910 782.852 919 c 128,-1,33
 747.101 928 747.101 928 715.101 928 c 0,34,35
 604.101 928 604.101 928 538.537 832.5 c 128,-1,36
 472.975 737 472.975 737 428.461 508 c 0,37,38
 382.977 274 382.977 274 411.51 179 c 128,-1,39
 440.044 84 440.044 84 551.044 84 c 0,40,41
 662.044 84 662.044 84 726.315 178 c 128,-1,42
 790.587 272 790.587 272 836.461 508 c 0,43,44
 857.26 615 857.26 615 863.323 710.5 c 128,-1,45
 869.387 806 869.387 806 861.909 891 c 1,31,32
EndSplineSet
KernsSLIF: 46 -36 0 0
EndChar
StartChar: divide
Encoding: 247 247 184
Width: 1716
Flags: W
HStem: 123 299<757.116 815.236> 528 228<238 1476> 862 299<900.764 958.884>
CounterMasks: 1 00
Fore
780.921 1012 m 0,0,1
 792.778 1073 792.778 1073 845.331 1117 c 128,-1,2
 897.884 1161 897.884 1161 958.884 1161 c 0,3,4
 1020.88 1161 1020.88 1161 1056.33 1117 c 128,-1,5
 1091.78 1073 1091.78 1073 1079.92 1012 c 0,6,7
 1067.87 950 1067.87 950 1015.32 906 c 128,-1,8
 962.764 862 962.764 862 900.764 862 c 0,9,10
 839.764 862 839.764 862 804.316 906 c 128,-1,11
 768.869 950 768.869 950 780.921 1012 c 0,0,1
637.079 272 m 0,12,13
 649.131 334 649.131 334 701.684 378 c 128,-1,14
 754.236 422 754.236 422 815.236 422 c 0,15,16
 877.236 422 877.236 422 912.684 378 c 128,-1,17
 948.131 334 948.131 334 936.079 272 c 0,18,19
 924.222 211 924.222 211 871.669 167 c 128,-1,20
 819.116 123 819.116 123 757.116 123 c 0,21,22
 696.116 123 696.116 123 660.669 167 c 128,-1,23
 625.222 211 625.222 211 637.079 272 c 0,12,13
239.159 756 m 1,24,-1
 1521.16 756 l 1,25,-1
 1476.84 528 l 1,26,-1
 194.841 528 l 1,27,-1
 239.159 756 l 1,24,-1
EndSplineSet
EndChar
StartChar: oslash
Encoding: 248 248 161
Width: 1366
Flags: W
HStem: -29 113<575 617> 979 113<759 793>
Fore
458.938 416 m 1,0,-1
 920.774 801 l 1,1,2
 921.269 891 921.269 891 884.821 935 c 128,-1,3
 848.374 979 848.374 979 771.374 979 c 0,4,5
 661.374 979 661.374 979 596.311 883.5 c 128,-1,6
 531.247 788 531.247 788 485.568 553 c 2,7,-1
 458.938 416 l 1,0,-1
448.003 262 m 1,8,9
 445.703 173 445.703 173 483.054 128.5 c 128,-1,10
 520.403 84 520.403 84 597.403 84 c 0,11,12
 706.403 84 706.403 84 770.676 178 c 128,-1,13
 834.947 272 834.947 272 880.821 508 c 2,14,-1
 908.229 649 l 1,15,-1
 448.003 262 l 1,8,9
1225.54 913 m 1,16,17
 1277.55 841 1277.55 841 1292.49 745.5 c 128,-1,18
 1307.42 650 1307.42 650 1284.49 532 c 0,19,20
 1233.56 270 1233.56 270 1045 120.5 c 128,-1,21
 856.438 -29 856.438 -29 575.438 -29 c 0,22,23
 464.438 -29 464.438 -29 376.201 -4.5 c 128,-1,24
 287.963 20 287.963 20 217.683 70 c 1,25,-1
 12.249 -102 l 1,26,-1
 -55.0342 -16 l 1,27,-1
 140.649 147 l 1,28,29
 90.2285 222 90.2285 222 75.9854 318.5 c 128,-1,30
 61.7432 415 61.7432 415 84.4863 532 c 0,31,32
 135.608 795 135.608 795 323.974 943.5 c 128,-1,33
 512.339 1092 512.339 1092 793.339 1092 c 0,34,35
 909.339 1092 909.339 1092 998.979 1067 c 128,-1,36
 1088.62 1042 1088.62 1042 1151.1 993 c 1,37,-1
 1351.75 1161 l 1,38,-1
 1421.03 1075 l 1,39,-1
 1225.54 913 l 1,16,17
EndSplineSet
KernsSLIF: 46 -36 0 0
EndChar
StartChar: thorn
Encoding: 254 254 237
Width: 1432
Flags: W
HStem: -426 121<-124 524> -29 156<668.861 746.538> 936 156<826.115 964.438> 1436 120<238 368>
Fore
556.693 584 m 2,0,-1
 536.283 479 l 2,1,2
 500.129 293 500.129 293 531.495 210 c 128,-1,3
 562.861 127 562.861 127 668.861 127 c 0,4,5
 777.861 127 777.861 127 839.467 215 c 128,-1,6
 901.072 303 901.072 303 945.586 532 c 0,7,8
 990.099 761 990.099 761 962.606 848.5 c 128,-1,9
 935.115 936 935.115 936 826.115 936 c 0,10,11
 720.115 936 720.115 936 656.481 853 c 128,-1,12
 592.848 770 592.848 770 556.693 584 c 2,0,-1
368.306 1436 m 1,13,-1
 216.306 1436 l 1,14,-1
 239.631 1556 l 1,15,-1
 745.631 1556 l 1,16,-1
 623.56 928 l 1,17,18
 684.693 1011 684.693 1011 768.566 1051.5 c 128,-1,19
 852.438 1092 852.438 1092 964.438 1092 c 0,20,21
 1191.44 1092 1191.44 1092 1292.88 942.5 c 128,-1,22
 1394.32 793 1394.32 793 1343.59 532 c 0,23,24
 1292.85 271 1292.85 271 1133.2 121 c 128,-1,25
 973.538 -29 973.538 -29 746.538 -29 c 0,26,27
 634.538 -29 634.538 -29 566.41 11.5 c 128,-1,28
 498.283 52 498.283 52 469.416 135 c 1,29,-1
 383.889 -305 l 1,30,-1
 547.889 -305 l 1,31,-1
 524.369 -426 l 1,32,-1
 -145.631 -426 l 1,33,-1
 -122.111 -305 l 1,34,-1
 29.8887 -305 l 1,35,-1
 368.306 1436 l 1,13,-1
EndSplineSet
KernsSLIF: 46 -102 0 0 44 -36 0 0
EndChar
StartChar: Dcroat
Encoding: 272 272 257
Width: 1790
Flags: W
HStem: 0 121<-14 733> 713 137<107 294 706 1011> 1372 121<253 422 254 972>
Fore
564.415 121 m 1,0,-1
 703.415 121 l 2,1,2
 937.415 121 937.415 121 1073.97 270.5 c 128,-1,3
 1210.54 420 1210.54 420 1274.29 748 c 0,4,5
 1337.66 1074 1337.66 1074 1259.12 1223 c 128,-1,6
 1180.58 1372 1180.58 1372 946.585 1372 c 2,7,-1
 807.585 1372 l 1,8,-1
 706.118 850 l 1,9,-1
 1038.12 850 l 1,10,-1
 1011.49 713 l 1,11,-1
 679.488 713 l 1,12,-1
 564.415 121 l 1,0,-1
-36.1045 0 m 1,13,-1
 -12.585 121 l 1,14,-1
 179.415 121 l 1,15,-1
 294.488 713 l 1,16,-1
 81.4883 713 l 1,17,-1
 108.118 850 l 1,18,-1
 321.118 850 l 1,19,-1
 422.585 1372 l 1,20,-1
 230.585 1372 l 1,21,-1
 254.104 1493 l 1,22,-1
 1022.1 1493 l 2,23,24
 1422.1 1493 1422.1 1493 1597.38 1301.5 c 128,-1,25
 1772.66 1110 1772.66 1110 1702.29 748 c 0,26,27
 1631.73 385 1631.73 385 1381.81 192.5 c 128,-1,28
 1131.9 0 1131.9 0 731.896 0 c 2,29,-1
 -36.1045 0 l 1,13,-1
EndSplineSet
EndChar
StartChar: dcroat
Encoding: 273 273 255
Width: 1432
Flags: W
HStem: -29 21G<301.953 470.953> 0 121<1108 1235> 936 156<632.854 711.53> 1223 120<666 968 1345 1494> 1223 333<881 1494> 1436 120<880 1009>
Fore
823.699 479 m 2,0,-1
 844.108 584 l 2,1,2
 880.264 770 880.264 770 848.397 853 c 128,-1,3
 816.53 936 816.53 936 711.53 936 c 0,4,5
 601.53 936 601.53 936 540.022 848.5 c 128,-1,6
 478.514 761 478.514 761 434.001 532 c 0,7,8
 389.488 303 389.488 303 417.383 215 c 128,-1,9
 445.277 127 445.277 127 554.277 127 c 0,10,11
 659.277 127 659.277 127 723.41 210 c 128,-1,12
 787.544 293 787.544 293 823.699 479 c 2,0,-1
1108.11 121 m 1,13,-1
 1259.11 121 l 1,14,-1
 1235.59 0 l 1,15,-1
 730.591 0 l 1,16,-1
 756.832 135 l 1,17,18
 695.698 52 695.698 52 611.326 11.5 c 128,-1,19
 526.953 -29 526.953 -29 414.953 -29 c 0,20,21
 188.953 -29 188.953 -29 88.6104 121 c 128,-1,22
 -11.7324 271 -11.7324 271 39.001 532 c 0,23,24
 89.9287 794 89.9287 794 248.392 943 c 128,-1,25
 406.854 1092 406.854 1092 632.854 1092 c 0,26,27
 744.854 1092 744.854 1092 813.481 1051.5 c 128,-1,28
 882.109 1011 882.109 1011 910.976 928 c 1,29,-1
 968.317 1223 l 1,30,-1
 644.317 1223 l 1,31,-1
 667.644 1343 l 1,32,-1
 991.644 1343 l 1,33,-1
 1009.72 1436 l 1,34,-1
 857.721 1436 l 1,35,-1
 881.047 1556 l 1,36,-1
 1387.05 1556 l 1,37,-1
 1345.64 1343 l 1,38,-1
 1517.64 1343 l 1,39,-1
 1494.32 1223 l 1,40,-1
 1322.32 1223 l 1,41,-1
 1108.11 121 l 1,13,-1
EndSplineSet
EndChar
StartChar: Hbar
Encoding: 294 294 252
Width: 1935
Flags: HW
Fore
-49 0 m 1,0,-1
 -26 121 l 1,1,-1
 165 121 l 1,2,-1
 347 1053 l 1,0,0
 156 1053 l 1,0,0
 182 1190 l 1,0,0
 373 1190 l 1,0,0
 409 1372 l 1,3,-1
 218 1372 l 1,4,-1
 241 1493 l 1,5,-1
 1009 1493 l 1,6,-1
 986 1372 l 1,7,-1
 794 1372 l 1,8,-1
 758 1190 l 1,0,0
 1352 1190 l 1,0,0
 1388 1372 l 1,11,-1
 1197 1372 l 1,12,-1
 1220 1493 l 1,13,-1
 1988 1493 l 1,14,-1
 1965 1372 l 1,15,-1
 1773 1372 l 1,16,-1
 1737 1190 l 1,0,0
 1929 1190 l 1,0,0
 1903 1053 l 1,0,0
 1711 1053 l 1,0,0
 1529 121 l 1,17,-1
 1721 121 l 1,18,-1
 1698 0 l 1,19,-1
 930 0 l 1,20,-1
 953 121 l 1,21,-1
 1144 121 l 1,22,-1
 1263 733 l 1,23,-1
 669 733 l 1,24,-1
 550 121 l 1,25,-1
 742 121 l 1,26,-1
 719 0 l 1,27,-1
 -49 0 l 1,0,-1
696 870 m 1,9,-1
 1290 870 l 1,10,-1
 1326 1053 l 1,0,0
 732 1053 l 1,0,0
 696 870 l 1,9,-1
EndSplineSet
EndChar
StartChar: hbar
Encoding: 295 295 253
Width: 1489
Flags: HW
Fore
-81 0 m 1,0,-1
 -58 121 l 1,1,-1
 93 121 l 1,2,-1
 302 1196 l 1,0,0
 144 1196 l 1,0,0
 171 1333 l 1,0,0
 329 1333 l 1,0,0
 349 1436 l 1,3,-1
 191 1436 l 1,4,-1
 214 1556 l 1,5,-1
 726 1556 l 1,6,-1
 683 1333 l 1,0,0
 1042 1333 l 1,0,0
 1015 1196 l 1,0,0
 656 1196 l 1,0,0
 601 913 l 1,7,8
 684 1008 684 1008 773.5 1050 c 128,-1,9
 864 1092 864 1092 989 1092 c 0,10,11
 1168 1092 1168 1092 1239 986.5 c 128,-1,12
 1284.5 919 1284.5 919 1284.5 810.5 c 0,0,0
 1284.5 749.5 1284.5 749.5 1270 676 c 2,13,-1
 1162 121 l 1,14,-1
 1314 121 l 1,15,-1
 1291 0 l 1,16,-1
 656 0 l 1,17,-1
 679 121 l 1,18,-1
 808 121 l 1,19,-1
 918 686 l 17,20,21
 932 758 932 758 932 804 c 0,0,0
 932 848 932 848 920 873.5 c 128,-1,22
 896 926 896 926 811 926 c 0,23,24
 704 926 704 926 638.5 847.5 c 128,-1,25
 573.5 769 573.5 769 540 598 c 9,26,-1
 447 121 l 1,27,-1
 577 121 l 1,28,-1
 554 0 l 1,29,-1
 -81 0 l 1,0,-1
EndSplineSet
EndChar
StartChar: dotlessi
Encoding: 305 305 214
Width: 778
Flags: W
HStem: 0 121<-11 623> 942 121<172 300>
Fore
495.207 121 m 1,0,-1
 647.207 121 l 1,1,-1
 623.687 0 l 1,2,-1
 -33.3135 0 l 1,3,-1
 -9.79297 121 l 1,4,-1
 141.207 121 l 1,5,-1
 300.793 942 l 1,6,-1
 149.793 942 l 1,7,-1
 173.313 1063 l 1,8,-1
 678.313 1063 l 1,9,-1
 495.207 121 l 1,0,-1
EndSplineSet
EndChar
StartChar: kgreenlandic
Encoding: 312 312 217
Width: 1419
Flags: HW
Fore
605.979 0 m 1,0,-1
 -33.0215 0 l 1,1,-1
 -9.50195 121 l 1,2,-1
 141.498 121 l 1,3,-1
 300.502 939 l 1,4,-1
 149.502 939 l 1,5,-1
 173.021 1060 l 1,6,-1
 678.021 1060 l 1,7,-1
 580.054 556 l 1,8,-1
 1083.5 939 l 1,9,-1
 956.502 939 l 1,10,-1
 980.021 1060 l 1,11,-1
 1465.02 1060 l 1,12,-1
 1441.5 939 l 1,13,-1
 1244.5 939 l 1,14,-1
 923.073 695 l 1,15,-1
 1259.5 121 l 1,16,-1
 1374.5 121 l 1,17,-1
 1350.98 0 l 1,18,-1
 740.979 0 l 1,19,-1
 764.498 121 l 1,20,-1
 889.498 121 l 1,21,-1
 667.975 499 l 1,22,-1
 551.869 411 l 1,23,-1
 495.498 121 l 1,24,-1
 629.498 121 l 1,25,-1
 605.979 0 l 1,0,-1
EndSplineSet
EndChar
StartChar: Lslash
Encoding: 321 321 225
Width: 1454
Flags: W
HStem: 0 121<-14 1263> 0 137<567 1263> 1372 121<253 422 254 998>
Fore
-36.1045 0 m 1,0,-1
 -12.585 121 l 1,1,-1
 179.415 121 l 1,2,-1
 262.61 549 l 1,3,-1
 22.9238 422 l 1,4,-1
 -24.334 539 l 1,5,-1
 293.322 707 l 1,6,-1
 422.585 1372 l 1,7,-1
 230.585 1372 l 1,8,-1
 254.104 1493 l 1,9,-1
 1022.1 1493 l 1,10,-1
 998.585 1372 l 1,11,-1
 807.585 1372 l 1,12,-1
 723.224 938 l 1,13,-1
 1102.29 1139 l 1,14,-1
 1149.55 1022 l 1,15,-1
 692.123 778 l 1,16,-1
 567.525 137 l 1,17,-1
 1155.53 137 l 1,18,-1
 1201.4 373 l 1,19,-1
 1336.4 373 l 1,20,-1
 1263.9 0 l 1,21,-1
 -36.1045 0 l 1,0,-1
EndSplineSet
KernsSLIF: 366 -112 0 0 356 -167 0 0 253 -73 0 0 221 -131 0 0 217 -112 0 0 219 -112 0 0 218 -112 0 0 376 -131 0 0 255 -73 0 0 8217 -311 0 0 8221 -301 0 0 220 -112 0 0 121 -73 0 0 89 -131 0 0 87 -139 0 0 86 -243 0 0 85 -112 0 0 84 -167 0 0
EndChar
StartChar: lslash
Encoding: 322 322 226
Width: 788
Flags: W
HStem: 0 121<-55 579> 1436 120<224 352>
Fore
452.292 121 m 1,0,-1
 603.292 121 l 1,1,-1
 579.772 0 l 1,2,-1
 -77.2275 0 l 1,3,-1
 -53.708 121 l 1,4,-1
 97.292 121 l 1,5,-1
 200.702 653 l 1,6,-1
 27.042 557 l 1,7,-1
 -14.5479 662 l 1,8,-1
 228.305 795 l 1,9,-1
 352.902 1436 l 1,10,-1
 201.902 1436 l 1,11,-1
 225.228 1556 l 1,12,-1
 731.228 1556 l 1,13,-1
 622.958 999 l 1,14,-1
 796.812 1096 l 1,15,-1
 840.403 991 l 1,16,-1
 595.551 858 l 1,17,-1
 452.292 121 l 1,0,-1
EndSplineSet
EndChar
StartChar: Eng
Encoding: 330 330 230
Width: 1872
Flags: HMW
Fore
-55 0 m 1,0,-1
 -31 121 l 1,1,-1
 160 121 l 1,2,-1
 403 1372 l 1,3,-1
 212 1372 l 1,4,-1
 235 1493 l 1,5,-1
 702 1493 l 1,6,-1
 1397.5 436 l 1,7,-1
 1580 1372 l 1,8,-1
 1390 1372 l 1,9,-1
 1413 1493 l 1,10,-1
 1935.5 1493 l 1,11,-1
 1911.5 1372 l 1,12,-1
 1721 1372 l 1,13,-1
 1454 0 l 2,16,17
 1398 -290 1398 -290 1297.5 -367.5 c 128,-1,18
 1183 -455 1183 -455 964.5 -455 c 0,19,20
 904.5 -455 904.5 -455 838.5 -445 c 128,-1,21
 773 -435 773 -435 703 -416 c 1,22,-1
 747 -191 l 1,23,-1
 860 -191 l 1,24,25
 855 -221 855 -221 855 -244.5 c 0,0,0
 855 -284.5 855 -284.5 869 -306.5 c 128,-1,26
 891.5 -342 891.5 -342 957.5 -342 c 0,27,28
 1057 -342 1057 -342 1105 -289 c 128,-1,29
 1146 -243 1146 -243 1192 0 c 1,15,-1
 487 1079 l 1,16,-1
 301 121 l 1,17,-1
 491 121 l 1,18,-1
 467 0 l 1,19,-1
 -55 0 l 1,0,-1
EndSplineSet
EndChar
StartChar: eng
Encoding: 331 331 231
Width: 1489
Flags: HW
Fore
8 0 m 1,0,-1
 31.5 121 l 1,1,-1
 182.5 121 l 1,2,-1
 342 942 l 1,3,-1
 191 942 l 1,4,-1
 214.5 1063 l 1,5,-1
 719.5 1063 l 1,6,-1
 690.5 913 l 1,7,8
 773 1008 773 1008 863 1050 c 128,-1,9
 953.5 1092 953.5 1092 1078.5 1092 c 0,10,11
 1257.5 1092 1257.5 1092 1328.5 986.5 c 128,-1,12
 1399.5 881 1399.5 881 1359.5 676 c 2,13,-1
 1203.5 -125 l 2,16,17
 1172 -288 1172 -288 1040.5 -371.5 c 128,-1,18
 908.5 -455 908.5 -455 683.5 -455 c 0,19,20
 623.5 -455 623.5 -455 557.5 -445 c 128,-1,21
 491.5 -435 491.5 -435 422.5 -416 c 1,22,-1
 466 -191 l 1,23,-1
 579 -191 l 1,24,25
 565.5 -271 565.5 -271 588 -306.5 c 128,-1,26
 610.5 -342 610.5 -342 676.5 -342 c 0,27,28
 749.5 -342 749.5 -342 787.5 -295 c 128,-1,29
 825.5 -248 825.5 -248 849.5 -125 c 2,30,-1
 1007.5 686 l 2,20,21
 1033.5 821 1033.5 821 1009.5 873.5 c 128,-1,22
 985 926 985 926 900 926 c 0,23,24
 793 926 793 926 727.5 847.5 c 128,-1,25
 662.5 769 662.5 769 629.5 598 c 2,26,-1
 536.5 121 l 1,27,-1
 666.5 121 l 1,28,-1
 643 0 l 1,29,-1
 8 0 l 1,0,-1
EndSplineSet
EndChar
StartChar: OE
Encoding: 338 338 176
Width: 2417
Flags: W
HStem: 0 121<881 2166> 0 137<1433 2166> 551 326<1577 2017> 741 136<1577 1917> 1047 20G<1981.3 2118.3> 1141 352<1136 2370> 1356 137<1136 2275> 1372 121<1121 1283>
Fore
1043.42 121 m 1,0,-1
 1286.58 1372 l 1,1,-1
 1159.58 1372 l 2,2,3
 895.585 1372 895.585 1372 731.067 1215 c 128,-1,4
 566.55 1058 566.55 1058 506.292 748 c 0,5,6
 445.256 434 445.256 434 547.836 277.5 c 128,-1,7
 650.415 121 650.415 121 916.415 121 c 2,8,-1
 1043.42 121 l 1,0,-1
2166.9 0 m 1,9,-1
 845.896 0 l 2,10,11
 638.896 0 638.896 0 508.449 26 c 128,-1,12
 378.003 52 378.003 52 288.083 109 c 1,13,14
 147.799 195 147.799 195 95.5664 361 c 128,-1,15
 43.334 527 43.334 527 86.292 748 c 0,16,17
 129.056 968 129.056 968 245.531 1132.5 c 128,-1,18
 362.006 1297 362.006 1297 535.917 1384 c 1,19,20
 647.191 1442 647.191 1442 786.148 1467.5 c 128,-1,21
 925.104 1493 925.104 1493 1136.1 1493 c 2,22,-1
 2439.1 1493 l 1,23,-1
 2370.68 1141 l 1,24,-1
 2233.68 1141 l 1,25,-1
 2275.47 1356 l 1,26,-1
 1670.47 1356 l 1,27,-1
 1577.37 877 l 1,28,-1
 1944.37 877 l 1,29,-1
 1981.3 1067 l 1,30,-1
 2118.3 1067 l 1,31,-1
 2018 551 l 1,32,-1
 1881 551 l 1,33,-1
 1917.93 741 l 1,34,-1
 1550.93 741 l 1,35,-1
 1433.53 137 l 1,36,-1
 2056.53 137 l 1,37,-1
 2098.32 352 l 1,38,-1
 2235.32 352 l 1,39,-1
 2166.9 0 l 1,9,-1
EndSplineSet
KernsSLIF: 45 38 0 0
EndChar
StartChar: oe
Encoding: 339 339 177
Width: 2105
Flags: W
HStem: -29 113<559 599 1378.05 1457.01> 481 119<1297 2005> 979 113<756 794 1536 1572>
Fore
597.015 84 m 0,0,1
 709.015 84 709.015 84 773.176 180 c 128,-1,2
 837.336 276 837.336 276 887.098 532 c 0,3,4
 936.858 788 936.858 788 910.422 883.5 c 128,-1,5
 883.985 979 883.985 979 770.985 979 c 0,6,7
 657.985 979 657.985 979 593.228 882.5 c 128,-1,8
 528.47 786 528.47 786 479.098 532 c 0,9,10
 429.725 278 429.725 278 456.87 181 c 128,-1,11
 484.015 84 484.015 84 597.015 84 c 0,0,1
1637.32 600 m 1,12,13
 1678.13 810 1678.13 810 1655.06 894.5 c 128,-1,14
 1631.99 979 1631.99 979 1538.99 979 c 0,15,16
 1448.99 979 1448.99 979 1394.05 897 c 128,-1,17
 1339.11 815 1339.11 815 1300.81 618 c 2,18,-1
 1297.32 600 l 1,19,-1
 1637.32 600 l 1,12,13
1163.63 936 m 1,20,21
 1254.18 1016 1254.18 1016 1354.56 1054 c 128,-1,22
 1454.95 1092 1454.95 1092 1572.95 1092 c 0,23,24
 1832.95 1092 1832.95 1092 1943.43 935 c 128,-1,25
 2053.92 778 2053.92 778 2005.38 482 c 1,26,-1
 1274.18 481 l 1,27,-1
 1272.63 473 l 2,28,29
 1232.39 266 1232.39 266 1275.7 175 c 128,-1,30
 1319.01 84 1319.01 84 1457.01 84 c 0,31,32
 1572.01 84 1572.01 84 1654.87 145 c 128,-1,33
 1737.73 206 1737.73 206 1780.28 322 c 1,34,-1
 1946.28 322 l 1,35,36
 1873.46 148 1873.46 148 1730.25 59.5 c 128,-1,37
 1587.05 -29 1587.05 -29 1378.05 -29 c 0,38,39
 1246.05 -29 1246.05 -29 1154.53 9.5 c 128,-1,40
 1063.02 48 1063.02 48 1006.37 127 c 1,41,42
 921.406 50 921.406 50 807.728 10.5 c 128,-1,43
 694.05 -29 694.05 -29 559.05 -29 c 0,44,45
 289.05 -29 289.05 -29 161.401 122 c 128,-1,46
 33.7529 273 33.7529 273 84.0977 532 c 0,47,48
 135.219 795 135.219 795 323.585 943.5 c 128,-1,49
 511.95 1092 511.95 1092 792.95 1092 c 0,50,51
 919.95 1092 919.95 1092 1011.97 1053.5 c 128,-1,52
 1103.98 1015 1103.98 1015 1163.63 936 c 1,20,21
EndSplineSet
EndChar
StartChar: Tbar
Encoding: 358 358 231
Width: 1524
Flags: HW
TeX: 0 0 0 0
Fore
226 0 m 1,0,-1
 249 121 l 1,1,-1
 447 121 l 1,2,-1
 552 659 l 1,0,0
 305 659 l 1,0,0
 342 851 l 1,0,0
 589 851 l 1,0,0
 687 1356 l 1,3,-1
 278 1356 l 1,4,-1
 233 1120 l 1,5,-1
 96 1120 l 1,6,-1
 168 1493 l 1,7,-1
 1648 1493 l 1,8,-1
 1576 1120 l 1,9,-1
 1441 1120 l 1,10,-1
 1486 1356 l 1,11,-1
 1074 1356 l 1,12,-1
 976 851 l 1,0,0
 1223 851 l 1,0,0
 1186 659 l 1,0,0
 939 659 l 1,0,0
 834 121 l 1,13,-1
 1033 121 l 1,14,-1
 1010 0 l 1,15,-1
 226 0 l 1,0,-1
EndSplineSet
EndChar
StartChar: tbar
Encoding: 359 359 232
Width: 946
Flags: HW
TeX: 0 0 0 0
Fore
254 942 m 1,0,-1
 100 942 l 1,1,-1
 123 1063 l 1,2,-1
 277 1063 l 1,3,-1
 341 1393 l 1,4,-1
 695 1393 l 1,5,-1
 631 1063 l 1,6,-1
 926 1063 l 1,7,-1
 903 942 l 1,8,-1
 608 942 l 1,9,-1
 554 665 l 1,0,0
 738 665 l 1,0,0
 700 473 l 1,0,0
 516 473 l 1,0,0
 481 291 l 2,10,11
 464 202 464 202 464 157 c 0,0,0
 464 130 464 130 469 118 c 128,-1,12
 485 84 485 84 543 84 c 0,13,14
 607 84 607 84 646 127 c 128,-1,15
 685 170 685 170 705 260 c 1,16,-1
 854 260 l 1,17,18
 814 100 814 100 722 36 c 128,-1,19
 632 -29 632 -29 440 -29 c 0,20,21
 221 -29 221 -29 156 40 c 128,-1,22
 114 84 114 84 114 176 c 0,0,0
 114 226 114 226 127 291 c 2,23,-1
 162 473 l 1,0,0
 14 473 l 1,0,0
 52 665 l 1,0,0
 200 665 l 1,0,0
 254 942 l 1,0,-1
EndSplineSet
EndChar
StartChar: longs
Encoding: 383 383 231
Width: 881
Flags: HW
TeX: 0 0 0 0
HStem: 0 121<-59 628> 942 121<117 252 630 873> 1444 112<817 863>
Fore
447.292 121 m 1,12,-1
 652.292 121 l 1,13,-1
 628.772 0 l 1,14,-1
 -81.2275 0 l 1,15,-1
 -57.708 121 l 1,16,-1
 93.292 121 l 1,17,-1
 252.878 942 l 1,18,-1
 94.8779 942 l 1,19,-1
 118.398 1063 l 1,20,-1
 276.398 1063 l 1,21,-1
 302.251 1196 l 2,22,23
 336.657 1373 336.657 1373 467.442 1464.5 c 128,-1,24
 598.228 1556 598.228 1556 817.228 1556 c 0,25,26
 902.228 1556 902.228 1556 981.381 1546.5 c 128,-1,27
 1060.53 1537 1060.53 1537 1134.84 1518 c 1,28,-1
 1090.52 1290 l 1,0,-1
 978.522 1290 l 1,1,2
 985.685 1368 985.685 1368 955.571 1406 c 128,-1,3
 925.457 1444 925.457 1444 856.457 1444 c 0,4,5
 776.457 1444 776.457 1444 729.28 1386.5 c 128,-1,6
 682.102 1329 682.102 1329 657.028 1200 c 2,7,-1
 447.292 121 l 1,12,-1
EndSplineSet
EndChar
StartChar: florin
Encoding: 402 402 166
Width: 1425
Flags: W
HStem: -432 113<86.25 140.285> 700 121<320 540 944 1183> 1407 113<1205.71 1259.75>
Fore
675.879 1135 m 1,0,1
 735.422 1323 735.422 1323 870.568 1421.5 c 128,-1,2
 1005.71 1520 1005.71 1520 1205.71 1520 c 0,3,4
 1272.71 1520 1272.71 1520 1346.88 1508 c 128,-1,5
 1421.05 1496 1421.05 1496 1505.58 1473 c 1,6,-1
 1460.09 1239 l 1,7,-1
 1339.09 1239 l 1,8,9
 1356.59 1329 1356.59 1329 1338.17 1368 c 128,-1,10
 1319.75 1407 1319.75 1407 1259.75 1407 c 0,11,12
 1184.75 1407 1184.75 1407 1138.67 1350 c 128,-1,13
 1092.59 1293 1092.59 1293 1036.41 1112 c 1,14,-1
 944.844 821 l 1,15,-1
 1206.84 821 l 1,16,-1
 1183.32 700 l 1,17,-1
 907.323 700 l 1,18,-1
 671.121 -47 l 1,19,20
 613.772 -234 613.772 -234 477.028 -333 c 128,-1,21
 340.285 -432 340.285 -432 140.285 -432 c 0,22,23
 71.2852 -432 71.2852 -432 -2.97949 -420.5 c 128,-1,24
 -77.2441 -409 -77.2441 -409 -160.579 -385 c 1,25,-1
 -115.289 -152 l 1,26,-1
 5.71094 -152 l 1,27,28
 -11.5889 -241 -11.5889 -241 7.83105 -280 c 128,-1,29
 27.25 -319 27.25 -319 86.25 -319 c 0,30,31
 162.25 -319 162.25 -319 208.232 -262.5 c 128,-1,32
 254.215 -206 254.215 -206 311.397 -25 c 2,33,-1
 540.323 700 l 1,34,-1
 298.323 700 l 1,35,-1
 321.844 821 l 1,36,-1
 577.844 821 l 1,37,-1
 675.879 1135 l 1,0,1
EndSplineSet
EndChar
StartChar: dotlessj
Encoding: 567 567 218
Width: 741
Flags: W
HStem: -455 113<-53 -19> 942 121<214 343>
Fore
343.015 942 m 1,12,-1
 192.015 942 l 1,13,-1
 215.534 1063 l 1,14,-1
 720.534 1063 l 1,15,-1
 489.611 -125 l 2,16,17
 457.927 -288 457.927 -288 326.196 -371.5 c 128,-1,18
 194.466 -455 194.466 -455 -30.5342 -455 c 0,19,20
 -90.5342 -455 -90.5342 -455 -156.591 -445 c 128,-1,21
 -222.647 -435 -222.647 -435 -291.954 -416 c 1,22,-1
 -248.023 -190 l 1,23,-1
 -135.218 -191 l 1,24,25
 -148.769 -271 -148.769 -271 -126.169 -306.5 c 128,-1,26
 -103.569 -342 -103.569 -342 -37.5693 -342 c 0,27,28
 35.4307 -342 35.4307 -342 73.5664 -295 c 128,-1,29
 111.702 -248 111.702 -248 135.611 -125 c 2,30,-1
 343.015 942 l 1,12,-1
EndSplineSet
EndChar
StartChar: uni02BB
Encoding: 699 699 173
Width: 713
Flags: W
Fore
624.518 1384 m 1,0,1
 515.494 1317 515.494 1317 453.125 1222.5 c 128,-1,2
 390.756 1128 390.756 1128 363.737 989 c 2,3,-1
 353.047 934 l 1,4,-1
 84.0469 934 l 1,5,6
 132.283 1141 132.283 1141 243.788 1282.5 c 128,-1,7
 355.293 1424 355.293 1424 545.953 1520 c 1,8,-1
 624.518 1384 l 1,0,1
EndSplineSet
KernsSLIF: 193 -282 0 0 194 -282 0 0 195 -282 0 0 192 -282 0 0 198 -253 0 0 196 -282 0 0 65 -282 0 0
EndChar
StartChar: afii57929
Encoding: 700 700 174
Width: 713
Flags: HW
TeX: 0 0 0 0
Fore
84.0469 1070 m 1,0,1
 193.07 1137 193.07 1137 255.439 1231.5 c 128,-1,2
 317.809 1326 317.809 1326 344.827 1465 c 2,3,-1
 355.518 1520 l 1,4,-1
 624.518 1520 l 1,5,6
 576.281 1313 576.281 1313 464.776 1171.5 c 128,-1,7
 353.271 1030 353.271 1030 162.611 934 c 1,8,-1
 84.0469 1070 l 1,0,1
EndSplineSet
EndChar
StartChar: circumflex
Encoding: 710 710 215
Width: 1024
Flags: HW
Fore
546 1638 m 1,0,-1
 788 1638 l 1,1,-1
 970 1262 l 1,2,-1
 806 1262 l 1,3,-1
 637 1487 l 1,4,-1
 380 1262 l 1,5,-1
 216 1262 l 1,6,-1
 546 1638 l 1,0,-1
EndSplineSet
EndChar
StartChar: caron
Encoding: 711 711 224
Width: 1024
Flags: HW
Fore
492 1262 m 1,0,-1
 310 1638 l 1,1,-1
 474 1638 l 1,2,-1
 642 1411 l 1,3,-1
 900 1638 l 1,4,-1
 1064 1638 l 1,5,-1
 734 1262 l 1,6,-1
 492 1262 l 1,0,-1
EndSplineSet
EndChar
StartChar: breve
Encoding: 728 728 218
Width: 1024
Flags: HW
Fore
348 1589 m 1,0,-1
 473 1589 l 1,1,2
 465 1516 465 1516 513 1477 c 128,-1,3
 562 1438 562 1438 661 1438 c 0,4,5
 760 1438 760 1438 823 1477 c 128,-1,6
 887 1516 887 1516 907 1589 c 1,7,-1
 1032 1589 l 1,8,9
 1004 1443 1004 1443 897 1360 c 128,-1,10
 791 1278 791 1278 630 1278 c 0,11,12
 467 1278 467 1278 394 1359 c 128,-1,13
 321 1440 321 1440 348 1589 c 1,0,-1
EndSplineSet
LCarets: 0 65535 '    ' 1 0 
Ligature: 0 1 'liga' space uni0306
EndChar
StartChar: dotaccent
Encoding: 729 729 219
Width: 1024
Flags: HW
Fore
521 1468 m 0,0,1
 533 1528 533 1528 585 1571 c 128,-1,2
 636 1614 636 1614 696 1614 c 0,3,4
 756 1614 756 1614 792 1571 c 128,-1,5
 827 1528 827 1528 815 1468 c 0,6,7
 804 1409 804 1409 752 1365 c 128,-1,8
 700 1321 700 1321 640 1321 c 0,9,10
 580 1321 580 1321 545 1365 c 128,-1,11
 510 1409 510 1409 521 1468 c 0,0,1
EndSplineSet
LCarets: 0 65535 '    ' 1 0 
Ligature: 0 1 'liga' space uni0307
EndChar
StartChar: ring
Encoding: 730 730 220
Width: 1024
Flags: HW
HStem: 1249 154<616 647> 1665 154<697 727>
Fore
387 1534 m 0,0,1
 410 1652 410 1652 510 1736 c 128,-1,2
 609 1819 609 1819 727 1819 c 0,3,4
 845 1819 845 1819 913 1736 c 128,-1,5
 980 1652 980 1652 957 1534 c 0,6,7
 934 1416 934 1416 834 1332 c 128,-1,8
 735 1249 735 1249 617 1249 c 0,9,10
 499 1249 499 1249 431 1332 c 128,-1,11
 364 1416 364 1416 387 1534 c 0,0,1
541 1534 m 0,12,13
 530 1479 530 1479 561 1441 c 128,-1,14
 593 1403 593 1403 647 1403 c 0,15,16
 702 1403 702 1403 747 1442 c 128,-1,17
 793 1480 793 1480 803 1534 c 0,18,19
 813 1588 813 1588 782 1626 c 128,-1,20
 751 1665 751 1665 697 1665 c 0,21,22
 642 1665 642 1665 597 1626 c 128,-1,23
 551 1588 551 1588 541 1534 c 0,12,13
EndSplineSet
LCarets: 0 65535 '    ' 1 0 
Ligature: 0 1 'liga' space uni030A
EndChar
StartChar: ogonek
Encoding: 731 731 223
Width: 1024
Flags: W
HStem: -401 147<516.026 579.601> -20 20G<482.974 607.974>
Fore
482.974 0 m 1,0,-1
 607.974 0 l 1,1,2
 546.339 -65 546.339 -65 519.646 -102 c 128,-1,3
 492.954 -139 492.954 -139 487.317 -168 c 0,4,5
 479.348 -209 479.348 -209 503.475 -231.5 c 128,-1,6
 527.601 -254 527.601 -254 579.601 -254 c 0,7,8
 618.601 -254 618.601 -254 660.655 -246 c 128,-1,9
 702.711 -238 702.711 -238 743.626 -223 c 1,10,-1
 712.303 -379 l 1,11,12
 656.165 -390 656.165 -390 607.096 -395.5 c 128,-1,13
 558.026 -401 558.026 -401 516.026 -401 c 0,14,15
 403.026 -401 403.026 -401 349.468 -355 c 128,-1,16
 295.91 -309 295.91 -309 312.237 -225 c 0,17,18
 322.346 -173 322.346 -173 363.939 -118.5 c 128,-1,19
 405.533 -64 405.533 -64 482.974 0 c 1,0,-1
EndSplineSet
Ligature: 0 1 'liga' space uni0328
EndChar
StartChar: tilde
Encoding: 732 732 216
Width: 1024
Flags: HW
Fore
274 1309 m 1,0,-1
 277 1325 l 2,1,2
 305 1471 305 1471 373 1546 c 128,-1,3
 441 1622 441 1622 543 1622 c 0,4,5
 580 1622 580 1622 613 1610 c 128,-1,6
 646 1597 646 1597 686 1567 c 2,7,-1
 748 1520 l 1,8,-1
 750 1518 l 2,9,10
 789 1489 789 1489 825 1489 c 0,11,12
 866 1489 866 1489 897 1524 c 128,-1,13
 928 1559 928 1559 940 1620 c 1,14,-1
 1050 1620 l 1,15,-1
 1047 1604 l 2,16,17
 1019 1458 1019 1458 951 1382 c 128,-1,18
 883 1307 883 1307 781 1307 c 0,19,20
 744 1307 744 1307 711 1320 c 128,-1,21
 678 1332 678 1332 638 1362 c 2,22,-1
 575 1409 l 1,23,-1
 574 1410 l 2,24,25
 535 1440 535 1440 499 1440 c 0,26,27
 458 1440 458 1440 427 1405 c 128,-1,28
 396 1370 396 1370 384 1309 c 1,29,-1
 274 1309 l 1,0,-1
EndSplineSet
LCarets: 0 65535 '    ' 1 0 
Ligature: 0 1 'liga' space tildecomb
EndChar
StartChar: hungarumlaut
Encoding: 733 733 222
Width: 1024
Flags: HW
Fore
927 1638 m 1,0,-1
 1163 1638 l 1,1,-1
 792 1262 l 1,2,-1
 628 1262 l 1,3,-1
 927 1638 l 1,0,-1
561 1638 m 1,4,-1
 778 1638 l 1,5,-1
 460 1262 l 1,6,-1
 298 1262 l 1,7,-1
 561 1638 l 1,4,-1
EndSplineSet
LCarets: 0 65535 '    ' 1 0 
Ligature: 0 1 'liga' space uni030B
EndChar
StartChar: uni0312
Encoding: 786 786 223
Width: 713
Flags: HW
TeX: 0 0 0 0
Fore
527.047 1192 m 1,0,1
 441.047 1150 441.047 1150 394.047 1098 c 128,-1,2
 347.047 1046 347.047 1046 333.047 977 c 2,3,-1
 325.047 934 l 1,4,-1
 111.047 934 l 1,5,-1
 132.047 1048 132.047 1048 219.047 1128 c 129,-1,8
 303.047 1208 303.047 1208 458.047 1263 c 1,9,-1
 527.047 1192 l 1,0,1
EndSplineSet
EndChar
StartChar: uni0326
Encoding: 806 806 223
Width: 1024
Flags: HW
Fore
142 -389 m 1,0,1
 228 -347 228 -347 275 -295 c 128,-1,2
 322 -243 322 -243 336 -174 c 2,3,-1
 344 -131 l 1,4,-1
 558 -131 l 1,5,-1
 537 -245 537 -245 450 -325 c 129,-1,8
 366 -405 366 -405 211 -460 c 1,9,-1
 142 -389 l 1,0,1
EndSplineSet
EndChar
StartChar: Omega
Encoding: 937 937 159
Width: 1823
Flags: W
HStem: 0 184<126 688 1137 1572> 0 309<13 688 1494 1572> 1399 121<1009 1060>
Fore
1137.04 184 m 1,0,-1
 1471.04 184 l 1,1,-1
 1495.33 309 l 1,2,-1
 1632.33 309 l 1,3,-1
 1572.27 0 l 1,4,-1
 839.271 0 l 1,5,-1
 876.786 193 l 1,6,7
 1039.01 225 1039.01 225 1148.55 377 c 128,-1,8
 1258.1 529 1258.1 529 1309.8 795 c 0,9,10
 1367.15 1090 1367.15 1090 1297.18 1244.5 c 128,-1,11
 1227.21 1399 1227.21 1399 1035.21 1399 c 0,12,13
 843.209 1399 843.209 1399 713.678 1244.5 c 128,-1,14
 584.146 1090 584.146 1090 526.415 793 c 0,15,16
 475.682 532 475.682 532 526.844 378.5 c 128,-1,17
 578.007 225 578.007 225 725.786 193 c 1,18,-1
 688.271 0 l 1,19,-1
 -45.7295 0 l 1,20,-1
 14.335 309 l 1,21,-1
 150.335 309 l 1,22,-1
 126.037 184 l 1,23,-1
 461.037 184 l 1,24,25
 241.92 276 241.92 276 151.118 436.5 c 128,-1,26
 60.3164 597 60.3164 597 103.08 817 c 0,27,28
 164.504 1133 164.504 1133 426.616 1326.5 c 128,-1,29
 688.729 1520 688.729 1520 1058.73 1520 c 0,30,31
 1428.73 1520 1428.73 1520 1616.12 1326.5 c 128,-1,32
 1803.5 1133 1803.5 1133 1742.08 817 c 0,33,34
 1699.32 597 1699.32 597 1546.12 436.5 c 128,-1,35
 1392.92 276 1392.92 276 1137.04 184 c 1,0,-1
EndSplineSet
EndChar
StartChar: pi
Encoding: 960 960 155
Width: 1499
Flags: W
HStem: 0 121<-11 601 712 1326> 942 121<172 300 173 1003 173 1509>
Fore
-33.3135 0 m 1,0,-1
 -9.79297 121 l 1,1,-1
 141.207 121 l 1,2,-1
 300.793 942 l 1,3,-1
 149.793 942 l 1,4,-1
 173.313 1063 l 1,5,-1
 1533.31 1063 l 1,6,-1
 1509.79 942 l 1,7,-1
 1357.79 942 l 1,8,-1
 1198.21 121 l 1,9,-1
 1350.21 121 l 1,10,-1
 1326.69 0 l 1,11,-1
 689.687 0 l 1,12,-1
 713.207 121 l 1,13,-1
 844.207 121 l 1,14,-1
 1003.79 942 l 1,15,-1
 654.793 942 l 1,16,-1
 495.207 121 l 1,17,-1
 625.207 121 l 1,18,-1
 601.687 0 l 1,19,-1
 -33.3135 0 l 1,0,-1
EndSplineSet
EndChar
StartChar: afii10051
Encoding: 1026 1026 158
Width: 1846
Flags: W
HStem: -438 121<948 979> 0 121<64 276 64 838> 754 121<787 1201> 1120 373<21 1639> 1356 137<203 1639>
Fore
1653.21 436 m 2,0,1
 1692.09 635.995 1692.09 635.995 1567.82 755.5 c 0,2,3
 1443.56 875 1443.56 875 1201.55 875 c 2,4,-1
 810.547 875 l 1,5,-1
 904.044 1356 l 1,6,-1
 1478.04 1356 l 1,7,-1
 1432.17 1120 l 1,8,-1
 1567.17 1120 l 1,9,-1
 1639.67 1493 l 1,10,-1
 93.6738 1493 l 1,11,-1
 21.1699 1120 l 1,12,-1
 158.17 1120 l 1,13,-1
 204.044 1356 l 1,14,-1
 517.044 1356 l 1,15,-1
 276.984 121 l 1,16,-1
 87.9844 121 l 1,17,-1
 64.4648 0 l 1,18,-1
 815.465 0 l 1,19,-1
 838.984 121 l 1,20,-1
 665.984 121 l 1,21,-1
 787.027 754 l 1,22,-1
 1051.03 754 l 2,23,24
 1181.03 754 1181.03 754 1241.71 667.5 c 0,25,26
 1302.4 581.005 1302.4 581.005 1274.21 436 c 2,27,-1
 1205.99 85 l 2,28,29
 1161.63 -143.189 1161.63 -143.189 1111.67 -230.145 c 1,30,31
 1103.83 -242.5 l 1,32,33
 1050.85 -317 1050.85 -317 953.846 -317 c 0,34,35
 877.855 -317 877.855 -317 847.898 -273 c 0,36,37
 817.951 -229.001 817.951 -229.001 830.223 -135 c 1,38,-1
 700.223 -135 l 1,39,-1
 654.544 -370 l 1,40,41
 734.935 -404 734.935 -404 815.63 -421 c 0,42,43
 896.326 -438 896.326 -438 979.326 -438 c 0,44,45
 1238.33 -438 1238.33 -438 1382.6 -326 c 0,46,47
 1484.31 -247.039 1484.31 -247.039 1549.1 -53.501 c 0,48,49
 1570.47 10.3252 1570.47 10.3252 1583.43 77 c 2,50,-1
 1653.21 436 l 2,0,1
EndSplineSet
EndChar
StartChar: afii10053
Encoding: 1028 1028 160
Width: 1629
Flags: W
HStem: -29 121<752 818.973> 669 161<531 1165> 1399 121<1041 1091>
Fore
1463.9 426 m 1,0,1
 1360 195.005 1360 195.005 1185.22 83 c 0,2,3
 1010.45 -29 1010.45 -29 752.452 -29 c 0,4,5
 374.452 -29 374.452 -29 195.48 179.5 c 0,6,7
 16.5088 388 16.5088 388 85.9023 745 c 0,8,9
 155.491 1103 155.491 1103 415.52 1311.5 c 0,10,11
 675.548 1520 675.548 1520 1053.55 1520 c 0,12,13
 1186.53 1520 1186.53 1520 1324.33 1488 c 0,14,15
 1462.07 1456.02 1462.07 1456.02 1610.47 1391 c 1,16,-1
 1539.13 1024 l 1,17,-1
 1412.13 1024 l 1,18,19
 1409.68 1212.01 1409.68 1212.01 1324.85 1305.5 c 0,20,21
 1240.02 1399 1240.02 1399 1071.03 1399 c 0,22,23
 853.027 1399 853.027 1399 715.829 1238.5 c 0,24,25
 594.02 1096 594.02 1096 531.854 830 c 1,26,-1
 1196.42 830 l 1,27,-1
 1165.13 669 l 1,28,-1
 499.777 669 l 1,29,30
 457.441 417.671 457.441 417.671 514.094 275.084 c 0,31,32
 518.73 263.413 518.73 263.413 524.073 252 c 0,33,34
 598.973 92 598.973 92 818.973 92 c 0,35,36
 967.973 92 967.973 92 1078.61 175 c 0,37,38
 1189.23 257.994 1189.23 257.994 1264.9 426 c 1,39,-1
 1463.9 426 l 1,0,1
EndSplineSet
EndChar
StartChar: afii10054
Encoding: 1029 1029 161
Width: 1479
Flags: W
HStem: -29 121<554 624> 1399 121<826 892>
Fore
27.085 72 m 1,0,-1
 95.8955 426 l 1,1,-1
 222.896 426 l 1,2,3
 219.239 258 219.239 258 311.106 175 c 0,4,5
 402.973 92.001 402.973 92.001 593.973 92 c 0,6,7
 748.973 92 748.973 92 841.44 151 c 0,8,9
 933.909 209.999 933.909 209.999 956.068 324 c 0,10,11
 973.563 414.005 973.563 414.005 928.282 464 c 0,12,13
 883 514 883 514 719.359 557 c 2,14,-1
 506.05 612 l 1,15,16
 297.936 667.999 297.936 667.999 228.276 767.5 c 0,17,18
 158.617 867 158.617 867 194.383 1051 c 0,19,20
 237.535 1273 237.535 1273 409.042 1396.5 c 0,21,22
 580.554 1520 580.554 1520 846.548 1520 c 0,23,24
 977.581 1520 977.581 1520 1114.77 1498 c 0,25,26
 1252.01 1475.99 1252.01 1475.99 1395.44 1432 c 1,27,-1
 1331.3 1102 l 1,28,-1
 1204.3 1102 l 1,29,30
 1205.24 1255.98 1205.24 1255.98 1121.13 1327.5 c 0,31,32
 1037.03 1399 1037.03 1399 856.027 1399 c 0,33,34
 708.034 1399 708.034 1399 622.517 1347.5 c 0,35,36
 537.006 1296 537.006 1296 517.18 1194 c 0,37,38
 499.101 1100.99 499.101 1100.99 541.675 1052.5 c 0,39,40
 584.254 1004 584.254 1004 777.14 952 c 1,41,-1
 990.448 897 l 2,42,43
 1188.35 845 1188.35 845 1260.46 735 c 0,44,45
 1332.58 624.995 1332.58 624.995 1295.06 432 c 0,46,47
 1251.13 206 1251.13 206 1072.29 88.5 c 0,48,49
 893.452 -29 893.452 -29 590.452 -29 c 0,50,51
 444.452 -29 444.452 -29 305.312 -4 c 0,52,53
 166.172 21 166.172 21 27.085 72 c 1,0,-1
EndSplineSet
EndChar
StartChar: afii10055
Encoding: 1030 1030 162
Width: 958
Flags: W
HStem: 0 121<-27 718> 1372 121<240 408 241 985>
Fore
-49.1045 0 m 1,0,-1
 -25.585 121 l 1,1,-1
 165.415 121 l 1,2,-1
 408.585 1372 l 1,3,-1
 217.585 1372 l 1,4,-1
 241.104 1493 l 1,5,-1
 1009.1 1493 l 1,6,-1
 985.585 1372 l 1,7,-1
 793.585 1372 l 1,8,-1
 550.415 121 l 1,9,-1
 742.415 121 l 1,10,-1
 718.896 0 l 1,11,-1
 -49.1045 0 l 1,0,-1
EndSplineSet
EndChar
StartChar: afii10057
Encoding: 1032 1032 164
Width: 969
Flags: W
HStem: -426 121<-37 1> 1372 121<281 475 282 1053>
Fore
-323.29 -358 m 1,0,-1
 -277.61 -123 l 1,1,-1
 -147.61 -123 l 1,2,3
 -159.883 -217.001 -159.883 -217.001 -129.936 -261 c 0,4,5
 -99.9883 -305 -99.9883 -305 -23.9883 -305 c 0,6,7
 73.0117 -305 73.0117 -305 125.993 -230.5 c 0,8,9
 178.975 -156 178.975 -156 218.822 49 c 2,10,-1
 475.988 1372 l 1,11,-1
 258.988 1372 l 1,12,-1
 282.508 1493 l 1,13,-1
 1077.51 1493 l 1,14,-1
 1053.99 1372 l 1,15,-1
 862.988 1372 l 1,16,-1
 604.268 41 l 2,17,18
 557.033 -202 557.033 -202 412.763 -314 c 0,19,20
 268.492 -426 268.492 -426 1.49219 -426 c 0,21,22
 -81.5059 -426 -81.5059 -426 -162.203 -409 c 0,23,24
 -242.899 -392 -242.899 -392 -323.29 -358 c 1,0,-1
EndSplineSet
EndChar
StartChar: afii10058
Encoding: 1033 1033 165
Width: 2583
Flags: W
HStem: -20 121<116 153> 0 121<953 1705> 1372 121<368 549 369 1966>
Fore
1386.42 1356 m 1,0,-1
 928.419 1356 l 1,1,-1
 751.727 447 l 2,2,3
 704.492 204 704.492 204 560.222 92 c 0,4,5
 415.951 -20 415.951 -20 153.951 -20 c 0,6,7
 70.9531 -20 70.9531 -20 -9.74414 -3 c 0,8,9
 -90.4395 13.999 -90.4395 13.999 -170.831 48 c 1,10,-1
 -125.151 283 l 1,11,-1
 4.84863 283 l 1,12,13
 -7.42383 188.999 -7.42383 188.999 22.5244 145 c 0,14,15
 52.4727 101 52.4727 101 128.472 101 c 0,16,17
 225.472 101 225.472 101 278.453 175.5 c 0,18,19
 332.358 251.3 332.358 251.3 371.282 455 c 1,20,-1
 549.528 1372 l 1,21,-1
 345.528 1372 l 1,22,-1
 369.049 1493 l 1,23,-1
 1990.05 1493 l 1,24,-1
 1966.53 1372 l 1,25,-1
 1774.53 1372 l 1,26,-1
 1675.95 870 l 1,27,-1
 1751.95 870 l 2,28,29
 1913.55 870 1913.55 870 2042.48 847 c 0,30,31
 2236.02 812.475 2236.02 812.475 2354.99 697.866 c 0,32,33
 2356.47 696.438 2356.47 696.438 2357.93 695 c 0,34,35
 2458.69 596 2458.69 596 2426.81 432 c 0,36,37
 2383.66 209.997 2383.66 209.997 2195.75 105 c 0,38,39
 2058.94 28.5537 2058.94 28.5537 1891.95 9.33594 c 0,40,41
 1810.83 0 1810.83 0 1705.84 0 c 2,42,-1
 930.839 0 l 1,43,-1
 954.359 121 l 1,44,-1
 1145.36 121 l 1,45,-1
 1386.42 1356 l 1,0,-1
1530.36 121 m 1,35,-1
 1618.36 121 l 2,36,37
 1732.42 121 1732.42 121 1800 157.497 c 0,38,39
 1823.35 170.106 1823.35 170.106 1861.13 197 c 0,40,41
 1967.91 273.005 1967.91 273.005 1998.81 432 c 0,42,43
 2029.91 592 2029.91 592 1952.27 671 c 0,44,45
 1902.75 721.382 1902.75 721.382 1860.27 735.575 c 1,46,47
 1817.15 745.42 l 1,48,49
 1785.36 750 1785.36 750 1740.62 750 c 2,50,-1
 1652.62 750 l 1,51,-1
 1530.36 121 l 1,35,-1
EndSplineSet
EndChar
StartChar: afii10059
Encoding: 1034 1034 166
Width: 2581
Flags: W
HStem: 0 121<-27 718 952 1703> 733 137<696 1263> 1372 121<240 408 241 985 1219 1387 1220 1963>
Fore
1220.1 1493 m 9,11,-1
 1987.1 1493 l 1,12,-1
 1963.58 1372 l 1,13,-1
 1771.58 1372 l 1,14,-1
 1674.01 870 l 1,15,-1
 1750.01 870 l 2,16,17
 1911.61 870 1911.61 870 2040.54 847 c 0,18,19
 2234.07 812.475 2234.07 812.475 2353.05 697.866 c 0,20,21
 2354.53 696.438 2354.53 696.438 2355.99 695 c 0,22,23
 2456.75 596 2456.75 596 2424.87 432 c 0,24,25
 2381.71 209.997 2381.71 209.997 2193.8 105 c 0,26,27
 2057 28.5537 2057 28.5537 1890.01 9.33594 c 0,28,29
 1808.88 0 1808.88 0 1703.9 0 c 2,30,-1
 929.896 0 l 1,31,-1
 953.415 121 l 1,32,-1
 1144.42 121 l 1,33,-1
 1263.38 733 l 1,34,-1
 669.376 733 l 1,35,-1
 550.415 121 l 1,36,-1
 742.415 121 l 1,37,-1
 718.896 0 l 1,38,-1
 -49.1045 0 l 1,39,-1
 -25.585 121 l 1,40,-1
 165.415 121 l 1,41,-1
 408.585 1372 l 1,42,-1
 217.585 1372 l 1,43,-1
 241.104 1493 l 1,44,-1
 1009.1 1493 l 1,45,-1
 985.585 1372 l 1,46,-1
 793.585 1372 l 1,47,-1
 696.006 870 l 1,48,-1
 1290.01 870 l 1,49,-1
 1387.58 1372 l 1,50,-1
 1196.58 1372 l 1,51,-1
 1220.1 1493 l 9,11,-1
1528.42 121 m 1,17,-1
 1616.42 121 l 2,18,19
 1730.48 121 1730.48 121 1798.06 157.497 c 0,20,21
 1821.41 170.106 1821.41 170.106 1859.19 197 c 0,22,23
 1965.96 273.005 1965.96 273.005 1996.87 432 c 0,24,25
 2027.97 592 2027.97 592 1950.32 671 c 0,26,27
 1900.81 721.382 1900.81 721.382 1858.33 735.575 c 1,28,29
 1815.21 745.42 l 1,30,31
 1783.42 750 1783.42 750 1738.68 750 c 2,32,-1
 1650.68 750 l 1,33,-1
 1528.42 121 l 1,17,-1
EndSplineSet
EndChar
StartChar: afii10060
Encoding: 1035 1035 167
Width: 1972
Flags: W
HStem: 0 121<21 234 21 796 977 1170 977 1740> 754 121<744 1158> 1120 373<-21 1597> 1356 137<160 1597>
Fore
861.475 1356 m 1,0,-1
 1435.47 1356 l 1,1,-1
 1389.6 1120 l 1,2,-1
 1524.6 1120 l 1,3,-1
 1597.1 1493 l 1,4,-1
 51.1045 1493 l 1,5,-1
 -21.3994 1120 l 1,6,-1
 115.601 1120 l 1,7,-1
 161.475 1356 l 1,8,-1
 474.475 1356 l 1,9,-1
 234.415 121 l 1,10,-1
 45.415 121 l 1,11,-1
 21.8955 0 l 1,12,-1
 772.896 0 l 1,13,-1
 796.415 121 l 1,14,-1
 623.415 121 l 1,15,-1
 744.458 754 l 1,16,-1
 1008.46 754 l 2,17,18
 1138.46 754 1138.46 754 1199.14 667.5 c 0,19,20
 1259.83 581.005 1259.83 581.005 1231.64 436 c 2,21,-1
 1170.42 121 l 1,22,-1
 1001.42 121 l 1,23,-1
 977.896 0 l 1,24,-1
 1716.9 0 l 1,25,-1
 1740.42 121 l 1,26,-1
 1549.42 121 l 1,27,-1
 1610.64 436 l 2,28,29
 1649.52 635.995 1649.52 635.995 1525.25 755.5 c 0,30,31
 1400.99 875 1400.99 875 1158.98 875 c 2,32,-1
 767.978 875 l 1,33,-1
 861.475 1356 l 1,0,-1
EndSplineSet
EndChar
StartChar: afii10145
Encoding: 1039 1039 171
Width: 1935
Flags: W
HStem: 0 121<8 718 1564 1732> 0 137<588 718 588 1732> 1372 121<274 443 275 1020 1253 1422 1254 1999>
Fore
-14.3105 0 m 1,0,-1
 9.20898 121 l 1,1,-1
 200.209 121 l 1,2,-1
 443.379 1372 l 1,3,-1
 252.379 1372 l 1,4,-1
 275.899 1493 l 1,5,-1
 1043.9 1493 l 1,6,-1
 1020.38 1372 l 1,7,-1
 828.379 1372 l 1,8,-1
 588.319 137 l 1,9,-1
 1182.32 137 l 1,10,-1
 1422.38 1372 l 1,11,-1
 1231.38 1372 l 1,12,-1
 1254.9 1493 l 1,13,-1
 2022.9 1493 l 1,14,-1
 1999.38 1372 l 1,15,-1
 1807.38 1372 l 1,16,-1
 1564.21 121 l 1,17,-1
 1756.21 121 l 1,18,-1
 1732.69 0 l 1,19,-1
 999.689 0 l 1,20,-1
 930.101 -358 l 1,21,-1
 649.101 -358 l 1,22,-1
 718.689 0 l 1,23,-1
 -14.3105 0 l 1,0,-1
EndSplineSet
EndChar
StartChar: afii10017
Encoding: 1040 1040 172
Width: 1589
Flags: W
HStem: 0 121<-139 282 790 1466> 426 121<385 873> 1473 20G<813.104 1052.1>
Fore
-161.104 0 m 1,0,-1
 -137.585 121 l 1,1,-1
 -15.585 121 l 1,2,-1
 813.104 1493 l 1,3,-1
 1052.1 1493 l 1,4,-1
 1348.42 121 l 1,5,-1
 1490.42 121 l 1,6,-1
 1466.9 0 l 1,7,-1
 767.896 0 l 1,8,-1
 791.415 121 l 1,9,-1
 937.415 121 l 1,10,-1
 873.701 426 l 1,11,-1
 312.701 426 l 1,12,-1
 128.415 121 l 1,13,-1
 306.415 121 l 1,14,-1
 282.896 0 l 1,15,-1
 -161.104 0 l 1,0,-1
385.221 547 m 1,16,-1
 848.221 547 l 1,17,-1
 729.212 1118 l 1,18,-1
 385.221 547 l 1,16,-1
EndSplineSet
EndChar
StartChar: afii10018
Encoding: 1041 1041 173
Width: 1750
Flags: W
HStem: 0 121<-27 781> 750 120<696 816> 1120 373<241 1618> 1356 137<241 1529> 1372 121<240 408>
Fore
790.475 1356 m 1,0,-1
 696.006 870 l 1,1,-1
 828.006 870 l 2,2,3
 1032.34 870 1032.34 870 1169.37 852.375 c 0,4,5
 1182.4 850.698 1182.4 850.698 1191.92 849 c 0,6,7
 1382.59 814.987 1382.59 814.987 1504.05 697.868 c 0,8,9
 1505.52 696.44 1505.52 696.44 1506.99 695 c 0,10,11
 1607.75 596 1607.75 596 1575.87 432 c 0,12,13
 1532.71 209.997 1532.71 209.997 1344.8 105 c 0,14,15
 1156.88 0 1156.88 0 781.896 0 c 2,16,-1
 -49.1045 0 l 1,17,-1
 -25.585 121 l 1,18,-1
 165.415 121 l 1,19,-1
 408.585 1372 l 1,20,-1
 217.585 1372 l 1,21,-1
 241.104 1493 l 1,22,-1
 1691.1 1493 l 1,23,-1
 1618.6 1120 l 1,24,-1
 1483.6 1120 l 1,25,-1
 1529.47 1356 l 1,26,-1
 790.475 1356 l 1,0,-1
550.415 121 m 1,20,-1
 694.415 121 l 2,21,22
 896.146 121 896.146 121 1003.68 192.523 c 0,23,24
 1007.01 194.733 1007.01 194.733 1010.19 197 c 0,25,26
 1116.96 273.005 1116.96 273.005 1147.87 432 c 0,27,28
 1178.97 592 1178.97 592 1101.32 671 c 0,29,30
 1027.34 746.282 1027.34 746.282 832.949 749.852 c 0,31,32
 824.873 750 824.873 750 816.681 750 c 2,33,-1
 672.681 750 l 1,34,-1
 550.415 121 l 1,20,-1
EndSplineSet
EndChar
StartChar: afii10019
Encoding: 1042 1042 174
Width: 1731
Flags: W
HStem: 0 121<-27 780> 750 120<696 847> 1372 121<240 408 241 959>
Fore
-49.1045 0 m 1,0,-1
 -25.585 121 l 1,1,-1
 165.415 121 l 1,2,-1
 408.585 1372 l 1,3,-1
 217.585 1372 l 1,4,-1
 241.104 1493 l 1,5,-1
 1126.1 1493 l 2,6,7
 1399.1 1493 1399.1 1493 1518.22 1401 c 0,8,9
 1637.34 1309 1637.34 1309 1601.38 1124 c 0,10,11
 1575.53 991 1575.53 991 1465.86 913 c 0,12,13
 1356.2 835 1356.2 835 1166.32 815 c 1,14,15
 1387.23 794 1387.23 794 1487.99 695 c 0,16,17
 1588.75 596 1588.75 596 1556.87 432 c 0,18,19
 1513.71 209.997 1513.71 209.997 1325.8 105 c 0,20,21
 1137.88 0 1137.88 0 780.896 0 c 2,22,-1
 -49.1045 0 l 1,0,-1
696.006 870 m 1,19,-1
 827.006 870 l 2,20,21
 999.012 870 999.012 870 1094.15 932.5 c 0,22,23
 1189.3 995.004 1189.3 995.004 1214.38 1124 c 0,24,25
 1239.65 1254.01 1239.65 1254.01 1170.62 1313 c 0,26,27
 1101.57 1372 1101.57 1372 924.585 1372 c 2,28,-1
 793.585 1372 l 1,29,-1
 696.006 870 l 1,19,-1
550.415 121 m 1,28,-1
 693.415 121 l 2,29,30
 884.425 121 884.425 121 991.188 197 c 0,31,32
 1097.96 273.005 1097.96 273.005 1128.87 432 c 0,33,34
 1159.97 592 1159.97 592 1082.32 671 c 0,35,36
 1004.68 750 1004.68 750 815.681 750 c 2,37,-1
 672.681 750 l 1,38,-1
 550.415 121 l 1,28,-1
EndSplineSet
EndChar
StartChar: afii10020
Encoding: 1043 1043 175
Width: 1454
Flags: W
HStem: 0 121<-27 763> 1141 352<241 1503> 1356 137<241 1408> 1372 121<240 408>
Fore
552.415 121 m 1,0,-1
 787.415 121 l 1,1,-1
 763.896 0 l 1,2,-1
 -49.1045 0 l 1,3,-1
 -25.585 121 l 1,4,-1
 165.415 121 l 1,5,-1
 408.585 1372 l 1,6,-1
 217.585 1372 l 1,7,-1
 241.104 1493 l 1,8,-1
 1572.1 1493 l 1,9,-1
 1503.68 1141 l 1,10,-1
 1366.68 1141 l 1,11,-1
 1408.47 1356 l 1,12,-1
 792.475 1356 l 1,13,-1
 552.415 121 l 1,0,-1
EndSplineSet
EndChar
StartChar: afii10021
Encoding: 1044 1044 176
Width: 1935
Flags: HW
Fore
1437.94 -151 m 1,0,-1
 352.939 -151 l 1,1,2
 232.445 -196.116 232.445 -196.116 172.794 -353.124 c 0,3,4
 151.474 -409.24 151.474 -409.24 118.611 -542.923 c 0,5,6
 99.4648 -620.814 99.4648 -620.814 95.499 -642 c 1,7,-1
 -121.501 -642 l 1,8,-1
 4.65137 7 l 1,9,-1
 251.877 7 l 1,10,11
 290.195 25.6191 290.195 25.6191 317.135 63.5 c 0,12,13
 357.064 119.648 357.064 119.648 412.72 364.55 c 0,14,15
 423.595 412.4 423.595 412.4 431.734 455 c 1,16,-1
 609.981 1372 l 1,17,-1
 405.981 1372 l 1,18,-1
 429.501 1493 l 1,19,-1
 2050.5 1493 l 1,20,-1
 2026.98 1372 l 1,21,-1
 1834.98 1372 l 1,22,-1
 1569.65 7 l 1,23,-1
 1834.65 7 l 1,24,-1
 1708.5 -642 l 1,25,-1
 1491.5 -642 l 1,26,27
 1502.39 -555.298 1502.39 -555.298 1513.3 -469.45 c 0,28,29
 1532.78 -317.168 1532.78 -317.168 1505.7 -236.178 c 0,30,31
 1486.38 -178.376 1486.38 -178.376 1437.94 -151 c 1,0,-1
630.286 7 m 1,32,-1
 1184.65 7 l 1,33,-1
 1446.87 1356 l 1,34,-1
 988.871 1356 l 1,35,-1
 812.179 447 l 2,36,37
 778.652 274.52 778.652 274.52 708.86 127.87 c 0,38,39
 668.753 43.5947 668.753 43.5947 630.286 7 c 1,32,-1
EndSplineSet
EndChar
StartChar: afii10022
Encoding: 1045 1045 177
Width: 1561
Flags: W
HStem: 0 121<-27 1310> 0 137<553 1310> 551 326<697 1161> 741 136<697 1061> 1047 20G<1125.3 1262.3> 1141 352<241 1514> 1356 137<241 1418> 1372 121<240 408>
Fore
-49.1045 0 m 1,0,-1
 -25.585 121 l 1,1,-1
 165.415 121 l 1,2,-1
 408.585 1372 l 1,3,-1
 217.585 1372 l 1,4,-1
 241.104 1493 l 1,5,-1
 1583.1 1493 l 1,6,-1
 1514.68 1141 l 1,7,-1
 1376.68 1141 l 1,8,-1
 1418.47 1356 l 1,9,-1
 790.475 1356 l 1,10,-1
 697.366 877 l 1,11,-1
 1088.37 877 l 1,12,-1
 1125.3 1067 l 1,13,-1
 1262.3 1067 l 1,14,-1
 1162 551 l 1,15,-1
 1025 551 l 1,16,-1
 1061.93 741 l 1,17,-1
 670.931 741 l 1,18,-1
 553.525 137 l 1,19,-1
 1200.53 137 l 1,20,-1
 1242.32 352 l 1,21,-1
 1379.32 352 l 1,22,-1
 1310.9 0 l 1,23,-1
 -49.1045 0 l 1,0,-1
EndSplineSet
EndChar
StartChar: afii10024
Encoding: 1046 1046 178
Width: 2698
Flags: W
HStem: 0 121<-66 417 813 1558 2313 2437> 1372 121<342 518 343 876 1080 1249 1081 1825 2029 2166 2030 2563>
Fore
1849.1 1493 m 1,5,-1
 1825.58 1372 l 1,6,-1
 1633.58 1372 l 1,7,-1
 1527.65 827 l 1,8,-1
 2166.58 1372 l 1,9,-1
 2006.58 1372 l 1,10,-1
 2030.1 1493 l 1,11,-1
 2587.1 1493 l 1,12,-1
 2563.58 1372 l 1,13,-1
 2364.58 1372 l 1,14,-1
 1838.98 911 l 1,15,-1
 2314.42 121 l 1,16,-1
 2461.42 121 l 1,17,-1
 2437.9 0 l 1,18,-1
 1931.9 0 l 1,19,-1
 1507.82 725 l 1,20,-1
 1390.42 121 l 1,21,-1
 1582.42 121 l 1,22,-1
 1558.9 0 l 1,23,-1
 790.896 0 l 1,24,-1
 814.415 121 l 1,25,-1
 1006.42 121 l 1,26,-1
 1123.82 725 l 1,27,-1
 417.896 0 l 1,28,-1
 -88.1045 0 l 1,29,-1
 -64.585 121 l 1,30,-1
 82.415 121 l 1,31,-1
 864.976 911 l 1,32,-1
 518.585 1372 l 1,33,-1
 319.585 1372 l 1,34,-1
 343.104 1493 l 1,35,-1
 900.104 1493 l 1,36,-1
 876.585 1372 l 1,37,-1
 716.585 1372 l 1,38,-1
 1143.65 827 l 1,39,-1
 1249.58 1372 l 1,40,-1
 1057.58 1372 l 1,41,-1
 1081.1 1493 l 1,42,-1
 1849.1 1493 l 1,5,-1
EndSplineSet
EndChar
StartChar: afii10025
Encoding: 1047 1047 179
Width: 1425
Flags: W
HStem: -29 117<441 498.452> 1403 117<694.805 824.548>
Fore
312.941 1450 m 1,0,1
 451.742 1484.99 451.742 1484.99 579.146 1502.5 c 0,2,3
 706.513 1520 706.513 1520 824.548 1520 c 0,4,5
 1094.54 1520 1094.54 1520 1220.29 1423.5 c 0,6,7
 1346.03 1327 1346.03 1327 1311.04 1147 c 0,8,9
 1284.8 1012.01 1284.8 1012.01 1185.47 928 c 0,10,11
 1086.16 844 1086.16 844 920.51 815 c 1,12,13
 1109.48 784 1109.48 784 1185.66 682 c 0,14,15
 1261.83 580 1261.83 580 1227.42 403 c 0,16,17
 1186.8 194.003 1186.8 194.003 999.626 82.5 c 0,18,19
 812.457 -29 812.457 -29 498.452 -29 c 0,20,21
 380.453 -29 380.453 -29 258.84 -9 c 0,22,23
 137.228 11 137.228 11 8.00293 51 c 1,24,-1
 71.7598 379 l 1,25,-1
 192.76 379 l 1,26,27
 176.157 237.001 176.157 237.001 239.677 162.5 c 0,28,29
 303.195 87.999 303.195 87.999 441.195 88 c 0,30,31
 593.195 88 593.195 88 692.62 172.5 c 0,32,33
 792.045 257 792.045 257 822.174 412 c 0,34,35
 853.664 574 853.664 574 784.27 662 c 0,36,37
 714.875 750 714.875 750 555.875 750 c 2,38,-1
 489.875 750 l 1,39,-1
 513.2 870 l 1,40,-1
 565.2 870 l 2,41,42
 712.2 870 712.2 870 799.418 938 c 0,43,44
 886.636 1006 886.636 1006 912.877 1141 c 0,45,46
 937.563 1268 937.563 1268 881.185 1335.5 c 0,47,48
 824.805 1403 824.805 1403 694.805 1403 c 0,49,50
 576.805 1403 576.805 1403 495.268 1338.5 c 0,51,52
 413.73 1274 413.73 1274 375.821 1151 c 1,53,-1
 254.821 1151 l 1,54,-1
 312.941 1450 l 1,0,1
EndSplineSet
EndChar
StartChar: afii10026
Encoding: 1048 1048 180
Width: 1935
Flags: W
HStem: 0 121<-27 718 952 1697> 1372 121<240 408 241 985 1219 1387 1220 1964>
Fore
-49.1045 0 m 1,0,-1
 -25.585 121 l 1,1,-1
 165.415 121 l 1,2,-1
 408.585 1372 l 1,3,-1
 217.585 1372 l 1,4,-1
 241.104 1493 l 1,5,-1
 1009.1 1493 l 1,6,-1
 985.585 1372 l 1,7,-1
 793.585 1372 l 1,8,-1
 636.72 565 l 1,9,-1
 1366.79 1265 l 1,10,-1
 1387.58 1372 l 1,11,-1
 1196.58 1372 l 1,12,-1
 1220.1 1493 l 1,13,-1
 1988.1 1493 l 1,14,-1
 1964.58 1372 l 1,15,-1
 1772.58 1372 l 1,16,-1
 1529.42 121 l 1,17,-1
 1721.42 121 l 1,18,-1
 1697.9 0 l 1,19,-1
 929.896 0 l 1,20,-1
 953.415 121 l 1,21,-1
 1144.42 121 l 1,22,-1
 1306.72 956 l 1,23,-1
 576.656 256 l 1,24,-1
 550.415 121 l 1,25,-1
 742.415 121 l 1,26,-1
 718.896 0 l 1,27,-1
 -49.1045 0 l 1,0,-1
EndSplineSet
EndChar
StartChar: afii10028
Encoding: 1050 1050 182
Width: 1780
Flags: W
HStem: 0 121<-27 718 1573 1697> 1372 121<240 408 241 985 1289 1426 1290 1823>
Fore
-49.1045 0 m 1,0,-1
 -25.585 121 l 1,1,-1
 165.415 121 l 1,2,-1
 408.585 1372 l 1,3,-1
 217.585 1372 l 1,4,-1
 241.104 1493 l 1,5,-1
 1009.1 1493 l 1,6,-1
 985.585 1372 l 1,7,-1
 793.585 1372 l 1,8,-1
 687.647 827 l 1,9,-1
 1426.58 1372 l 1,10,-1
 1266.58 1372 l 1,11,-1
 1290.1 1493 l 1,12,-1
 1847.1 1493 l 1,13,-1
 1823.58 1372 l 1,14,-1
 1624.58 1372 l 1,15,-1
 998.976 911 l 1,16,-1
 1574.42 121 l 1,17,-1
 1721.42 121 l 1,18,-1
 1697.9 0 l 1,19,-1
 1191.9 0 l 1,20,-1
 667.821 725 l 1,21,-1
 550.415 121 l 1,22,-1
 742.415 121 l 1,23,-1
 718.896 0 l 1,24,-1
 -49.1045 0 l 1,0,-1
EndSplineSet
EndChar
StartChar: afii10029
Encoding: 1051 1051 183
Width: 1935
Flags: W
HStem: -20 121<116 153> 0 121<931 1146 931 1723> 1372 121<345 1990>
Fore
928.419 1356 m 1,0,-1
 1386.42 1356 l 1,1,-1
 1146.36 121 l 1,2,-1
 955.359 121 l 1,3,-1
 931.839 0 l 1,4,-1
 1699.84 0 l 1,5,-1
 1723.36 121 l 1,6,-1
 1531.36 121 l 1,7,-1
 1774.53 1372 l 1,8,-1
 1966.53 1372 l 1,9,-1
 1990.05 1493 l 1,10,-1
 369.049 1493 l 1,11,-1
 345.528 1372 l 1,12,-1
 549.528 1372 l 1,13,-1
 371.282 455 l 1,14,15
 332.358 251.3 332.358 251.3 278.453 175.5 c 0,16,17
 225.472 101 225.472 101 128.472 101 c 0,18,19
 52.4727 101 52.4727 101 22.5244 145 c 0,20,21
 -7.42383 188.999 -7.42383 188.999 4.84863 283 c 1,22,-1
 -125.151 283 l 1,23,-1
 -170.831 48 l 1,24,25
 -90.4395 13.999 -90.4395 13.999 -9.74414 -3 c 0,26,27
 70.9531 -20 70.9531 -20 153.951 -20 c 0,28,29
 415.951 -20 415.951 -20 560.222 92 c 0,30,31
 704.492 204 704.492 204 751.727 447 c 2,32,-1
 928.419 1356 l 1,0,-1
EndSplineSet
EndChar
StartChar: afii10030
Encoding: 1052 1052 184
Width: 2267
Flags: W
HStem: 0 121<-37 460 1280 2025> 1372 121<230 397 1701 2292>
Fore
-59.1045 0 m 1,0,-1
 -35.585 121 l 1,1,-1
 154.415 121 l 1,2,-1
 397.585 1372 l 1,3,-1
 207.585 1372 l 1,4,-1
 231.104 1493 l 1,5,-1
 847.104 1493 l 1,6,-1
 1086.89 535 l 1,7,-1
 1701.1 1493 l 1,8,-1
 2316.1 1493 l 1,9,-1
 2292.58 1372 l 1,10,-1
 2101.58 1372 l 1,11,-1
 1858.42 121 l 1,12,-1
 2049.42 121 l 1,13,-1
 2025.9 0 l 1,14,-1
 1257.9 0 l 1,15,-1
 1281.42 121 l 1,16,-1
 1471.42 121 l 1,17,-1
 1692.81 1260 l 1,18,-1
 1027.46 219 l 1,19,-1
 774.465 219 l 1,20,-1
 515.814 1260 l 1,21,-1
 294.415 121 l 1,22,-1
 484.415 121 l 1,23,-1
 460.896 0 l 1,24,-1
 -59.1045 0 l 1,0,-1
EndSplineSet
EndChar
StartChar: afii10031
Encoding: 1053 1053 185
Width: 1935
Flags: W
HStem: 0 121<-27 718 952 1697> 733 137<696 1263> 1372 121<240 408 241 985 1219 1387 1220 1964>
Fore
-49.1045 0 m 1,0,-1
 -25.585 121 l 1,1,-1
 165.415 121 l 1,2,-1
 408.585 1372 l 1,3,-1
 217.585 1372 l 1,4,-1
 241.104 1493 l 1,5,-1
 1009.1 1493 l 1,6,-1
 985.585 1372 l 1,7,-1
 793.585 1372 l 1,8,-1
 696.006 870 l 1,9,-1
 1290.01 870 l 1,10,-1
 1387.58 1372 l 1,11,-1
 1196.58 1372 l 1,12,-1
 1220.1 1493 l 1,13,-1
 1988.1 1493 l 1,14,-1
 1964.58 1372 l 1,15,-1
 1772.58 1372 l 1,16,-1
 1529.42 121 l 1,17,-1
 1721.42 121 l 1,18,-1
 1697.9 0 l 1,19,-1
 929.896 0 l 1,20,-1
 953.415 121 l 1,21,-1
 1144.42 121 l 1,22,-1
 1263.38 733 l 1,23,-1
 669.376 733 l 1,24,-1
 550.415 121 l 1,25,-1
 742.415 121 l 1,26,-1
 718.896 0 l 1,27,-1
 -49.1045 0 l 1,0,-1
EndSplineSet
EndChar
StartChar: afii10032
Encoding: 1054 1054 186
Width: 1784
Flags: W
HStem: -29 121<736 786> 1399 121<992 1043>
Fore
763.973 92 m 0,0,1
 954.973 92 954.973 92 1079.27 253 c 0,2,3
 1203.56 414 1203.56 414 1267.9 745 c 0,4,5
 1332.44 1077.01 1332.44 1077.01 1270.73 1238 c 0,6,7
 1209.03 1399 1209.03 1399 1018.03 1399 c 0,8,9
 828.029 1399 828.029 1399 702.94 1236.5 c 0,10,11
 577.854 1074 577.854 1074 513.902 745 c 0,12,13
 450.146 417 450.146 417 512.06 254.5 c 0,14,15
 573.973 92 573.973 92 763.973 92 c 0,0,1
740.452 -29 m 0,12,13
 363.452 -29 363.452 -29 189.495 177 c 0,14,15
 15.5371 382.999 15.5371 382.999 85.9023 745 c 0,16,17
 156.267 1106.99 156.267 1106.99 410.908 1313.5 c 0,18,19
 665.543 1520 665.543 1520 1041.55 1520 c 0,20,21
 1418.54 1520 1418.54 1520 1592.5 1314 c 0,22,23
 1766.46 1108.01 1766.46 1108.01 1695.9 745 c 0,24,25
 1625.54 383 1625.54 383 1371 177 c 0,26,27
 1116.45 -29 1116.45 -29 740.452 -29 c 0,12,13
EndSplineSet
EndChar
StartChar: afii10033
Encoding: 1055 1055 187
Width: 1935
Flags: W
HStem: 0 121<-49 165 -49 742 929 1144 929 1721> 1372 121<217 1988>
Fore
241.104 1493 m 1,0,-1
 217.585 1372 l 1,1,-1
 408.585 1372 l 1,2,-1
 165.415 121 l 1,3,-1
 -25.585 121 l 1,4,-1
 -49.1045 0 l 1,5,-1
 718.896 0 l 1,6,-1
 742.415 121 l 1,7,-1
 550.415 121 l 1,8,-1
 790.475 1356 l 1,9,-1
 1384.47 1356 l 1,10,-1
 1144.42 121 l 1,11,-1
 953.415 121 l 1,12,-1
 929.896 0 l 1,13,-1
 1697.9 0 l 1,14,-1
 1721.42 121 l 1,15,-1
 1529.42 121 l 1,16,-1
 1772.58 1372 l 1,17,-1
 1964.58 1372 l 1,18,-1
 1988.1 1493 l 1,19,-1
 241.104 1493 l 1,0,-1
EndSplineSet
EndChar
StartChar: afii10034
Encoding: 1056 1056 188
Width: 1540
Flags: W
HStem: 0 121<-27 767> 618 121<670 921> 1372 121<240 408 241 927>
Fore
-49.1045 0 m 1,0,-1
 -25.585 121 l 1,1,-1
 165.415 121 l 1,2,-1
 408.585 1372 l 1,3,-1
 217.585 1372 l 1,4,-1
 241.104 1493 l 1,5,-1
 1091.1 1493 l 2,6,7
 1340.1 1493 1340.1 1493 1464.07 1374.5 c 0,8,9
 1588.04 1256 1588.04 1256 1549.36 1057 c 0,10,11
 1510.48 857.005 1510.48 857.005 1339.75 737.5 c 0,12,13
 1169.03 618 1169.03 618 921.022 618 c 2,14,-1
 647.022 618 l 1,15,-1
 550.415 121 l 1,16,-1
 791.415 121 l 1,17,-1
 767.896 0 l 1,18,-1
 -49.1045 0 l 1,0,-1
670.542 739 m 1,17,-1
 782.542 739 l 2,18,19
 912.542 739 912.542 739 1006.86 825.5 c 0,20,21
 1101.17 911.995 1101.17 911.995 1129.36 1057 c 0,22,23
 1157.34 1200.99 1157.34 1200.99 1096.97 1286.5 c 0,24,25
 1036.58 1372 1036.58 1372 905.585 1372 c 2,26,-1
 793.585 1372 l 1,27,-1
 670.542 739 l 1,17,-1
EndSplineSet
EndChar
StartChar: afii10035
Encoding: 1057 1057 189
Width: 1630
Flags: W
HStem: -29 121<752 818.973> 1399 121<1041 1091>
Fore
1463.9 426 m 1,0,1
 1360 195.005 1360 195.005 1185.22 83 c 0,2,3
 1010.45 -29 1010.45 -29 752.452 -29 c 0,4,5
 374.452 -29 374.452 -29 195.48 179.5 c 0,6,7
 16.5088 388 16.5088 388 85.9023 745 c 0,8,9
 155.491 1103 155.491 1103 415.52 1311.5 c 0,10,11
 675.548 1520 675.548 1520 1053.55 1520 c 0,12,13
 1186.53 1520 1186.53 1520 1324.33 1488 c 0,14,15
 1462.07 1456.02 1462.07 1456.02 1610.47 1391 c 1,16,-1
 1539.13 1024 l 1,17,-1
 1412.13 1024 l 1,18,19
 1409.68 1212.01 1409.68 1212.01 1324.85 1305.5 c 0,20,21
 1240.02 1399 1240.02 1399 1071.03 1399 c 0,22,23
 853.027 1399 853.027 1399 715.829 1238.5 c 0,24,25
 578.632 1078 578.632 1078 513.902 745 c 0,26,27
 449.174 412 449.174 412 524.073 252 c 0,28,29
 598.973 92 598.973 92 818.973 92 c 0,30,31
 967.973 92 967.973 92 1078.61 175 c 0,32,33
 1189.23 257.994 1189.23 257.994 1264.9 426 c 1,34,-1
 1463.9 426 l 1,0,1
EndSplineSet
EndChar
StartChar: afii10036
Encoding: 1058 1058 190
Width: 1524
Flags: W
HStem: 0 121<248 1009> 1356 137<168 687 168 1486>
Fore
225.896 0 m 1,0,-1
 249.415 121 l 1,1,-1
 447.415 121 l 1,2,-1
 687.475 1356 l 1,3,-1
 278.475 1356 l 1,4,-1
 232.601 1120 l 1,5,-1
 95.6006 1120 l 1,6,-1
 168.104 1493 l 1,7,-1
 1648.1 1493 l 1,8,-1
 1575.6 1120 l 1,9,-1
 1440.6 1120 l 1,10,-1
 1486.47 1356 l 1,11,-1
 1074.47 1356 l 1,12,-1
 834.415 121 l 1,13,-1
 1033.42 121 l 1,14,-1
 1009.9 0 l 1,15,-1
 225.896 0 l 1,0,-1
EndSplineSet
EndChar
StartChar: afii10037
Encoding: 1059 1059 191
Width: 1662
Flags: W
HStem: 0 188<308 603> 1356 137<195 326 196 738 1077 1200 1078 1696>
Fore
524.045 258 m 2,0,-1
 655.865 468 l 1,1,-1
 326.475 1356 l 1,2,-1
 169.475 1356 l 1,3,-1
 196.104 1493 l 1,4,-1
 765.104 1493 l 1,5,-1
 738.475 1356 l 1,6,-1
 593.475 1356 l 1,7,-1
 822.736 740 l 1,8,-1
 1200.47 1356 l 1,9,-1
 1051.47 1356 l 1,10,-1
 1078.1 1493 l 1,11,-1
 1723.1 1493 l 1,12,-1
 1696.47 1356 l 1,13,-1
 1557.47 1356 l 1,14,-1
 765.057 78 l 2,15,16
 716.896 0 716.896 0 603.896 0 c 2,17,-1
 272.896 0 l 1,18,-1
 309.438 188 l 1,19,-1
 369.438 188 l 2,20,21
 466.183 188 466.183 188 508.743 237.082 c 0,22,23
 516.808 246.382 516.808 246.382 524.045 258 c 2,0,-1
EndSplineSet
EndChar
StartChar: afii10038
Encoding: 1060 1060 192
Width: 2150
Flags: W
HStem: -351 121<553 1179> -29 121<738 772 1073 1140> 1399 121<994 1060 1350 1396> 1698 121<951 1120 952 1577>
Fore
1117.21 92 m 2,0,1
 1306.71 92 1306.71 92 1432.7 254 c 1,2,3
 1557.48 417.5 1557.48 417.5 1621.14 745 c 0,4,5
 1685.09 1074 1685.09 1074 1623.58 1236 c 0,6,7
 1561.05 1399 1561.05 1399 1371.26 1399 c 2,8,-1
 1327.26 1399 l 1,9,-1
 1073.21 92 l 1,10,-1
 1117.21 92 l 2,0,1
742.688 -29 m 2,11,12
 365.688 -29 365.688 -29 191.73 177 c 0,13,14
 17.7725 382.999 17.7725 382.999 88.1377 745 c 0,15,16
 158.502 1106.99 158.502 1106.99 413.144 1313.5 c 0,17,18
 667.778 1520 667.778 1520 1043.78 1520 c 2,19,-1
 1085.78 1520 l 1,20,-1
 1120.38 1698 l 1,21,-1
 929.383 1698 l 1,22,-1
 952.902 1819 l 1,23,-1
 1600.9 1819 l 1,24,-1
 1577.38 1698 l 1,25,-1
 1385.38 1698 l 1,26,-1
 1350.78 1520 l 1,27,-1
 1394.78 1520 l 2,28,29
 1771.26 1520 1771.26 1520 1944.74 1314 c 0,30,31
 2119.69 1107.96 2119.69 1107.96 2049.14 745 c 0,32,33
 1978.58 382.021 1978.58 382.021 1724.73 177 c 0,34,35
 1469.67 -29 1469.67 -29 1093.69 -29 c 2,36,-1
 1049.69 -29 l 1,37,-1
 1010.62 -230 l 1,38,-1
 1202.62 -230 l 1,39,-1
 1179.1 -351 l 1,40,-1
 531.098 -351 l 1,41,-1
 554.617 -230 l 1,42,-1
 745.617 -230 l 1,43,-1
 784.688 -29 l 1,44,-1
 742.688 -29 l 2,11,12
808.208 92 m 1,45,-1
 1062.26 1399 l 1,46,-1
 1020.26 1399 l 2,47,48
 830.265 1399 830.265 1399 705.176 1236.5 c 0,49,50
 580.089 1074 580.089 1074 516.138 745 c 0,51,52
 452.382 417 452.382 417 514.295 254.5 c 0,53,54
 576.208 92 576.208 92 766.208 92 c 2,55,-1
 808.208 92 l 1,45,-1
EndSplineSet
EndChar
StartChar: afii10039
Encoding: 1061 1061 193
Width: 1589
Flags: W
HStem: 0 121<-86 421 719 1441> 1372 121<154 268 155 873 1133 1284 1134 1630>
Fore
660.664 575 m 1,0,-1
 261.415 121 l 1,1,-1
 445.415 121 l 1,2,-1
 421.896 0 l 1,3,-1
 -108.104 0 l 1,4,-1
 -84.585 121 l 1,5,-1
 99.415 121 l 1,6,-1
 603.406 692 l 1,7,-1
 268.585 1372 l 1,8,-1
 131.585 1372 l 1,9,-1
 155.104 1493 l 1,10,-1
 897.104 1493 l 1,11,-1
 873.585 1372 l 1,12,-1
 709.585 1372 l 1,13,-1
 916.945 952 l 1,14,-1
 1284.58 1372 l 1,15,-1
 1110.58 1372 l 1,16,-1
 1134.1 1493 l 1,17,-1
 1654.1 1493 l 1,18,-1
 1630.58 1372 l 1,19,-1
 1446.58 1372 l 1,20,-1
 973.397 836 l 1,21,-1
 1324.42 121 l 1,22,-1
 1465.42 121 l 1,23,-1
 1441.9 0 l 1,24,-1
 696.896 0 l 1,25,-1
 720.415 121 l 1,26,-1
 886.415 121 l 1,27,-1
 660.664 575 l 1,0,-1
EndSplineSet
EndChar
StartChar: afii10040
Encoding: 1062 1062 194
Width: 1935
Flags: W
HStem: 0 121<-14 200> 0 137<-14 1182> 1372 121<252 1043 1231 2022>
Fore
1783.21 121 m 1,0,-1
 1564.21 121 l 1,1,-1
 1807.38 1372 l 1,2,-1
 1999.38 1372 l 1,3,-1
 2022.9 1493 l 1,4,-1
 1254.9 1493 l 1,5,-1
 1231.38 1372 l 1,6,-1
 1422.38 1372 l 1,7,-1
 1182.32 137 l 1,8,-1
 588.319 137 l 1,9,-1
 828.379 1372 l 1,10,-1
 1020.38 1372 l 1,11,-1
 1043.9 1493 l 1,12,-1
 275.899 1493 l 1,13,-1
 252.379 1372 l 1,14,-1
 443.379 1372 l 1,15,-1
 200.209 121 l 1,16,-1
 9.20898 121 l 1,17,-1
 -14.3105 0 l 1,18,-1
 1408.69 0 l 1,19,-1
 1339.1 -358 l 1,20,-1
 1690.1 -358 l 1,21,-1
 1783.21 121 l 1,0,-1
EndSplineSet
EndChar
StartChar: afii10041
Encoding: 1063 1063 195
Width: 1864
Flags: W
HStem: 0 121<818 1612> 618 121<903 1157> 1372 121<207 375 208 923 1151 1301 1152 1879>
Fore
1903.1 1493 m 1,0,-1
 1879.58 1372 l 1,1,-1
 1688.58 1372 l 1,2,-1
 1445.42 121 l 1,3,-1
 1636.42 121 l 1,4,-1
 1612.9 0 l 1,5,-1
 795.896 0 l 1,6,-1
 819.415 121 l 1,7,-1
 1060.42 121 l 1,8,-1
 1157.02 618 l 1,9,-1
 766.022 618 l 2,10,11
 524.017 618 524.017 618 399.751 737.5 c 0,12,13
 275.48 857.005 275.48 857.005 314.355 1057 c 2,14,-1
 375.585 1372 l 1,15,-1
 184.585 1372 l 1,16,-1
 208.104 1493 l 1,17,-1
 947.104 1493 l 1,18,-1
 923.585 1372 l 1,19,-1
 754.585 1372 l 1,20,-1
 693.355 1057 l 2,21,22
 665.169 911.995 665.169 911.995 725.856 825.5 c 0,23,24
 786.542 739 786.542 739 916.542 739 c 2,25,-1
 1180.54 739 l 1,26,-1
 1301.58 1372 l 1,27,-1
 1128.58 1372 l 1,28,-1
 1152.1 1493 l 1,29,-1
 1903.1 1493 l 1,0,-1
EndSplineSet
EndChar
StartChar: afii10042
Encoding: 1064 1064 196
Width: 2289
Flags: W
HStem: 0 121<-27 2031> 0 137<553 2031> 1372 121<240 408 241 985 1553 1721 1554 2298>
Fore
-49.1045 0 m 1,0,-1
 -25.585 121 l 1,1,-1
 165.415 121 l 1,2,-1
 408.585 1372 l 1,3,-1
 217.585 1372 l 1,4,-1
 241.104 1493 l 1,5,-1
 1009.1 1493 l 1,6,-1
 985.585 1372 l 1,7,-1
 793.585 1372 l 1,8,-1
 553.525 137 l 1,9,-1
 907.525 137 l 1,10,-1
 1114.15 1200 l 1,11,-1
 1334.15 1200 l 1,12,-1
 1127.53 137 l 1,13,-1
 1481.53 137 l 1,14,-1
 1721.58 1372 l 1,15,-1
 1530.58 1372 l 1,16,-1
 1554.1 1493 l 1,17,-1
 2322.1 1493 l 1,18,-1
 2298.58 1372 l 1,19,-1
 2106.58 1372 l 1,20,-1
 1863.42 121 l 1,21,-1
 2055.42 121 l 1,22,-1
 2031.9 0 l 1,23,-1
 -49.1045 0 l 1,0,-1
EndSplineSet
EndChar
StartChar: afii10043
Encoding: 1065 1065 197
Width: 2320
Flags: W
HStem: 0 121<8 1742> 0 137<588 1742> 1372 121<274 443 275 1020 1587 1756 1588 2333>
Fore
2117.21 121 m 1,0,-1
 2024.1 -358 l 1,1,-1
 1673.1 -358 l 1,2,-1
 1742.69 0 l 1,3,-1
 -14.3105 0 l 1,4,-1
 9.20898 121 l 1,5,-1
 200.209 121 l 1,6,-1
 443.379 1372 l 1,7,-1
 252.379 1372 l 1,8,-1
 275.899 1493 l 1,9,-1
 1043.9 1493 l 1,10,-1
 1020.38 1372 l 1,11,-1
 828.379 1372 l 1,12,-1
 588.319 137 l 1,13,-1
 942.319 137 l 1,14,-1
 1148.95 1200 l 1,15,-1
 1368.95 1200 l 1,16,-1
 1162.32 137 l 1,17,-1
 1516.32 137 l 1,18,-1
 1756.38 1372 l 1,19,-1
 1565.38 1372 l 1,20,-1
 1588.9 1493 l 1,21,-1
 2356.9 1493 l 1,22,-1
 2333.38 1372 l 1,23,-1
 2141.38 1372 l 1,24,-1
 1898.21 121 l 1,25,-1
 2117.21 121 l 1,0,-1
EndSplineSet
EndChar
StartChar: afii10044
Encoding: 1066 1066 198
Width: 1803
Flags: W
HStem: 0 121<155 907> 1372 121<69 1167>
Fore
69.1045 1493 m 9,0,-1
 1191.1 1493 l 1,1,-1
 1167.58 1372 l 1,2,-1
 975.585 1372 l 1,3,-1
 878.006 870 l 1,4,-1
 954.006 870 l 2,5,6
 1115.61 870 1115.61 870 1244.54 847 c 0,7,8
 1438.06 812.475 1438.06 812.475 1557.05 697.866 c 0,9,10
 1558.53 696.438 1558.53 696.438 1559.99 695 c 0,11,12
 1660.75 596 1660.75 596 1628.87 432 c 0,13,14
 1585.71 209.997 1585.71 209.997 1397.8 105 c 0,15,16
 1261 28.5537 1261 28.5537 1094.01 9.33594 c 0,17,18
 1012.88 0 1012.88 0 907.896 0 c 2,19,-1
 132.896 0 l 1,20,-1
 156.415 121 l 1,21,-1
 347.415 121 l 1,22,-1
 588.475 1356 l 1,23,-1
 179.475 1356 l 1,24,-1
 133.601 1120 l 1,25,-1
 -3.39941 1120 l 1,26,-1
 69.1045 1493 l 9,0,-1
732.415 121 m 1,20,-1
 820.415 121 l 2,21,22
 934.476 121 934.476 121 1002.06 157.497 c 0,23,24
 1025.41 170.106 1025.41 170.106 1063.19 197 c 0,25,26
 1169.96 273.005 1169.96 273.005 1200.87 432 c 0,27,28
 1231.97 592 1231.97 592 1154.32 671 c 0,29,30
 1104.81 721.382 1104.81 721.382 1062.33 735.575 c 1,31,32
 1019.21 745.42 l 1,33,34
 987.421 750 987.421 750 942.681 750 c 2,35,-1
 854.681 750 l 1,36,-1
 732.415 121 l 1,20,-1
EndSplineSet
EndChar
StartChar: afii10045
Encoding: 1067 1067 199
Width: 2437
Flags: W
HStem: 0 121<-27 725 1407 2152> 1372 121<240 408 241 985 1674 1842 1675 2419>
Fore
1384.9 0 m 1,0,-1
 1408.42 121 l 1,1,-1
 1599.42 121 l 1,2,-1
 1842.58 1372 l 1,3,-1
 1651.58 1372 l 1,4,-1
 1675.1 1493 l 1,5,-1
 2443.1 1493 l 1,6,-1
 2419.58 1372 l 1,7,-1
 2227.58 1372 l 1,8,-1
 1984.42 121 l 1,9,-1
 2176.42 121 l 1,10,-1
 2152.9 0 l 1,11,-1
 1384.9 0 l 1,0,-1
1062.54 847 m 128,-1,12
 1256.06 812.475 1256.06 812.475 1375.05 697.866 c 0,13,14
 1376.53 696.438 1376.53 696.438 1377.99 695 c 0,15,16
 1478.75 596 1478.75 596 1446.87 432 c 0,17,18
 1403.71 209.997 1403.71 209.997 1215.8 105 c 0,19,20
 1079 28.5537 1079 28.5537 912.01 9.33594 c 0,21,22
 830.89 0 830.89 0 725.896 0 c 2,23,-1
 -49.1045 0 l 1,24,-1
 -25.585 121 l 1,25,-1
 165.415 121 l 1,26,-1
 408.585 1372 l 1,27,-1
 217.585 1372 l 1,28,-1
 241.104 1493 l 1,29,-1
 1009.1 1493 l 1,30,-1
 985.585 1372 l 1,31,-1
 793.585 1372 l 1,32,-1
 696.006 870 l 1,33,-1
 772.006 870 l 2,34,35
 933.61 870 933.61 870 1062.54 847 c 128,-1,12
550.415 121 m 1,29,-1
 638.415 121 l 2,30,31
 752.473 121 752.473 121 820.058 157.497 c 0,32,33
 843.406 170.106 843.406 170.106 881.188 197 c 0,34,35
 987.962 273.005 987.962 273.005 1018.87 432 c 0,36,37
 1049.97 592 1049.97 592 972.324 671 c 0,38,39
 922.808 721.382 922.808 721.382 880.325 735.575 c 0,40,41
 837.151 750 837.151 750 760.681 750 c 2,42,-1
 672.681 750 l 1,43,-1
 550.415 121 l 1,29,-1
EndSplineSet
EndChar
StartChar: afii10046
Encoding: 1068 1068 200
Width: 1621
Flags: W
HStem: 0 121<-27 725> 1372 121<240 408 241 985>
Fore
1062.54 847 m 128,-1,0
 1256.06 812.475 1256.06 812.475 1375.05 697.866 c 0,1,2
 1376.53 696.438 1376.53 696.438 1377.99 695 c 0,3,4
 1478.75 596 1478.75 596 1446.87 432 c 0,5,6
 1403.71 209.997 1403.71 209.997 1215.8 105 c 0,7,8
 1079 28.5537 1079 28.5537 912.01 9.33594 c 0,9,10
 830.89 0 830.89 0 725.896 0 c 2,11,-1
 -49.1045 0 l 1,12,-1
 -25.585 121 l 1,13,-1
 165.415 121 l 1,14,-1
 408.585 1372 l 1,15,-1
 217.585 1372 l 1,16,-1
 241.104 1493 l 1,17,-1
 1009.1 1493 l 1,18,-1
 985.585 1372 l 1,19,-1
 793.585 1372 l 1,20,-1
 696.006 870 l 1,21,-1
 772.006 870 l 2,22,23
 933.61 870 933.61 870 1062.54 847 c 128,-1,0
550.415 121 m 1,17,-1
 638.415 121 l 2,18,19
 752.473 121 752.473 121 820.058 157.497 c 0,20,21
 843.406 170.106 843.406 170.106 881.188 197 c 0,22,23
 987.962 273.005 987.962 273.005 1018.87 432 c 0,24,25
 1049.97 592 1049.97 592 972.324 671 c 0,26,27
 922.808 721.382 922.808 721.382 880.325 735.575 c 0,28,29
 837.151 750 837.151 750 760.681 750 c 2,30,-1
 672.681 750 l 1,31,-1
 550.415 121 l 1,17,-1
EndSplineSet
EndChar
StartChar: afii10047
Encoding: 1069 1069 201
Width: 1629
Flags: W
HStem: -29 121<518 568> 669 161<417 1113> 1399 121<795 859.548>
Fore
23.8955 426 m 1,0,1
 37.4307 196.066 37.4307 196.066 169.223 83 c 0,2,3
 299.772 -29 299.772 -29 558.452 -29 c 0,4,5
 937.492 -29 937.492 -29 1196.08 180 c 1,6,7
 1456.22 386.531 1456.22 386.531 1525.9 745 c 0,8,9
 1595.39 1102.48 1595.39 1102.48 1416.12 1312 c 0,10,11
 1236.49 1520 1236.49 1520 859.548 1520 c 0,12,13
 728.834 1520 728.834 1520 576.327 1488 c 0,14,15
 430.753 1457.45 430.753 1457.45 252.473 1391 c 1,16,-1
 181.135 1024 l 1,17,-1
 308.135 1024 l 1,18,19
 383.807 1212.06 383.807 1212.06 504.95 1306 c 0,20,21
 626.527 1399 626.527 1399 795.027 1399 c 0,22,23
 1013.18 1399 1013.18 1399 1087.73 1238 c 0,24,25
 1153.62 1096.36 1153.62 1096.36 1113.42 830 c 1,26,-1
 448.425 830 l 1,27,-1
 417.13 669 l 1,28,-1
 1082.13 669 l 1,29,30
 1026.42 415.64 1026.42 415.64 913.251 272.825 c 0,31,32
 904.905 262.297 904.905 262.297 896.073 252 c 0,33,34
 758.805 92 758.805 92 538.973 92 c 0,35,36
 391.555 92 391.555 92 311.106 175 c 1,37,38
 233.744 257.927 233.744 257.927 222.896 426 c 1,39,-1
 23.8955 426 l 1,0,1
EndSplineSet
EndChar
StartChar: afii10048
Encoding: 1070 1070 202
Width: 2636
Flags: W
HStem: -29 121<1557 1600> 0 121<-27 719> 667 161<688 892> 1372 121<240 408 241 985> 1399 121<1822 1862>
Fore
-48.9102 0 m 1,0,-1
 -25.3906 121 l 1,1,-1
 165.609 121 l 1,2,-1
 408.779 1372 l 1,3,-1
 217.779 1372 l 1,4,-1
 241.299 1493 l 1,5,-1
 1009.3 1493 l 1,6,-1
 985.779 1372 l 1,7,-1
 793.779 1372 l 1,8,-1
 688.036 828 l 1,9,-1
 924.003 828 l 1,10,11
 1005.22 1131.28 1005.22 1131.28 1229.91 1313.5 c 0,12,13
 1484.54 1520 1484.54 1520 1860.55 1520 c 0,14,15
 2237.54 1520 2237.54 1520 2411.5 1314 c 0,16,17
 2585.46 1108.01 2585.46 1108.01 2514.9 745 c 0,18,19
 2444.54 383 2444.54 383 2190 177 c 0,20,21
 1935.45 -29 1935.45 -29 1559.45 -29 c 0,22,23
 1182.45 -29 1182.45 -29 1008.5 177 c 0,24,25
 853.735 360.265 853.735 360.265 892.347 667 c 1,26,-1
 656.741 667 l 1,27,-1
 550.609 121 l 1,28,-1
 742.609 121 l 1,29,-1
 719.09 0 l 1,30,-1
 -48.9102 0 l 1,0,-1
1582.97 92 m 0,31,32
 1773.97 92 1773.97 92 1898.27 253 c 0,33,34
 2022.56 414 2022.56 414 2086.9 745 c 0,35,36
 2151.44 1077 2151.44 1077 2089.73 1238 c 0,37,38
 2028.03 1399 2028.03 1399 1837.03 1399 c 0,39,40
 1647.03 1399 1647.03 1399 1521.94 1236.5 c 0,41,42
 1396.85 1074 1396.85 1074 1332.9 745 c 0,43,44
 1269.15 417 1269.15 417 1331.06 254.5 c 0,45,46
 1392.97 92.001 1392.97 92.001 1582.97 92 c 0,31,32
EndSplineSet
EndChar
StartChar: afii10049
Encoding: 1071 1071 203
Width: 1702
Flags: W
HStem: 0 121<-49 127 800 1016 800 1592> 668 120<1037 1146> 1372 121<1101 1859>
Fore
719.599 729 m 1,0,1
 628.07 715.999 628.07 715.999 558.13 670 c 0,2,3
 488.188 624 488.188 624 426.277 537 c 2,4,-1
 127.415 121 l 1,5,-1
 -25.585 121 l 1,6,-1
 -49.1045 0 l 1,7,-1
 441.896 0 l 1,8,-1
 767.561 451 l 1,9,10
 863.773 591 863.773 591 919.758 629.5 c 0,11,12
 975.74 668 975.74 668 1061.74 668 c 2,13,-1
 1122.74 668 l 1,14,-1
 1016.42 121 l 1,15,-1
 824.415 121 l 1,16,-1
 800.896 0 l 1,17,-1
 1568.9 0 l 1,18,-1
 1592.42 121 l 1,19,-1
 1401.42 121 l 1,20,-1
 1644.58 1372 l 1,21,-1
 1835.58 1372 l 1,22,-1
 1859.1 1493 l 1,23,-1
 1007.1 1493 l 2,24,25
 747.098 1493 747.098 1493 585.292 1388.5 c 0,26,27
 423.478 1283.99 423.478 1283.99 386.158 1092 c 0,28,29
 355.835 936 355.835 936 438.743 845.5 c 0,30,31
 521.653 754.999 521.653 754.999 719.599 729 c 1,0,1
1146.07 788 m 1,28,-1
 1015.07 788 l 2,29,30
 875.065 788 875.065 788 814.34 864 c 0,31,32
 753.612 940 753.612 940 781.021 1081 c 0,33,34
 808.428 1222 808.428 1222 898.507 1297 c 0,35,36
 988.585 1372 988.585 1372 1128.58 1372 c 2,37,-1
 1259.58 1372 l 1,38,-1
 1146.07 788 l 1,28,-1
EndSplineSet
EndChar
